<?xml version="1.0" standalone="no"?>
<!DOCTYPE svg PUBLIC "-//W3C//DTD SVG 1.1//EN" "http://www.w3.org/Graphics/SVG/1.1/DTD/svg11.dtd" >
<svg xmlns="http://www.w3.org/2000/svg">
<metadata>
This is a custom SVG webfont generated by Font Squirrel.
Copyright   : Copyright c 2011 by Pablo Impallari wwwimpallaricom Igino Marini wwwikerncom All rights reserved
Designer    : Pablo Impallari
Foundry     : Pablo Impallari wwwimpallaricom Igino Marini wwwikerncom
Foundry URL : wwwimpallaricom
</metadata>
<defs>
<font id="CabinItalic" horiz-adv-x="1167" >
<font-face units-per-em="2048" ascent="1638" descent="-410" />
<missing-glyph horiz-adv-x="509" />
<glyph unicode=" "  horiz-adv-x="509" />
<glyph unicode="&#x09;" horiz-adv-x="509" />
<glyph unicode="&#xa0;" horiz-adv-x="509" />
<glyph unicode="!" horiz-adv-x="542" d="M55 0l33 195h199l-35 -195h-197zM162 455l166 1249h254l-275 -1249h-145z" />
<glyph unicode="&#x22;" horiz-adv-x="849" d="M195 1024l79 680h213l-161 -680h-131zM645 1024l80 680h209l-162 -680h-127z" />
<glyph unicode="#" horiz-adv-x="1464" d="M25 -25l266 517h-246l123 206h233l134 260h-254l94 195h264l227 438h174l-229 -438h260l229 438h173l-228 -438h230l-95 -195h-237l-133 -260h260l-125 -206h-248l-264 -517h-176l268 517h-258l-268 -517h-174zM575 698h259l135 260h-258z" />
<glyph unicode="$" horiz-adv-x="1087" d="M49 270l72 248q119 -131 358 -131q248 0 248 166q0 63 -57.5 106t-139.5 73l-163 63q-82 33 -140.5 94t-58.5 149q0 82 39 162t144.5 149.5t262.5 84.5l13 266h196l-80 -266q213 -12 314 -84l-60 -217q-188 109 -323 108q-113 0 -190.5 -35t-77.5 -114q0 -57 59 -96.5 t145 -66t170 -62.5t144.5 -106.5t60.5 -172.5q0 -37 -6 -76t-33.5 -96.5t-74 -101.5t-136.5 -79.5t-213 -48.5l-12 -260h-197l80 258q-235 14 -344 86z" />
<glyph unicode="%" horiz-adv-x="1753" d="M164 1069q0 238 121 386.5t278 148.5q111 0 175.5 -83t64.5 -233q0 -236 -115 -383t-282 -147q-113 0 -177.5 82t-64.5 229zM213 -27l1149 1618h170l-1145 -1618h-174zM297 1094q0 -98 36 -159t95 -61q94 0 168 114t74 276q0 100 -36 161.5t-93 61.5q-90 0 -167 -114.5 t-77 -278.5zM987 287q0 236 122 386t280 150q113 0 178 -85t65 -234q0 -236 -115.5 -384.5t-285.5 -148.5q-115 0 -179.5 83t-64.5 233zM1112 301q0 -106 35 -162.5t100 -56.5q111 0 183.5 116.5t72.5 293.5q0 102 -39 163.5t-100 61.5q-98 0 -175 -120t-77 -296z" />
<glyph unicode="&#x26;" horiz-adv-x="1271" d="M27 297q0 150 86 276.5t260 257.5q-90 188 -90 334q0 190 143 311t330 121q131 0 195.5 -63.5t64.5 -173.5q0 -287 -416 -551l281 -442q61 86 135 432h190q-72 -358 -221 -572l148 -227h-222l-63 104q-178 -158 -406 -157q-213 0 -314 95t-101 255zM236 330 q0 -102 59 -165t182 -63q166 0 291 138l-319 471q-94 -68 -153.5 -170t-59.5 -211zM475 1165q0 -123 60 -241l79 66t75.5 63.5t56 54.5t49 62.5t24.5 60.5t12 74q0 137 -124 137q-92 0 -162 -74t-70 -203z" />
<glyph unicode="'" horiz-adv-x="415" d="M195 1024l81 680h222l-160 -680h-143z" />
<glyph unicode="(" horiz-adv-x="585" d="M74 309q0 406 107.5 741.5t342.5 653.5h185q-215 -301 -338 -619.5t-123 -713.5q0 -383 104 -680h-182q-96 243 -96 618z" />
<glyph unicode=")" horiz-adv-x="585" d="M-111 -309q215 303 337 620.5t122 714.5q0 393 -104 678h184q96 -252 96 -617q0 -403 -107.5 -741t-342.5 -655h-185z" />
<glyph unicode="*" horiz-adv-x="913" d="M213 1450l80 94l260 -196l20 354h125l-106 -354l330 196l45 -96l-351 -143l191 -263l-105 -71l-143 303l-250 -309l-76 71l279 267z" />
<glyph unicode="+" horiz-adv-x="964" d="M82 541l35 196h293l49 291h174l-51 -291h290l-32 -196h-291l-55 -310h-172l51 310h-291z" />
<glyph unicode="," horiz-adv-x="487" d="M-23 -219l105 199l-64 20l35 195h219l-36 -195l-216 -248z" />
<glyph unicode="-" horiz-adv-x="899" d="M109 541l34 196h635l-35 -196h-634z" />
<glyph unicode="." horiz-adv-x="471" d="M16 0l33 195h207l-33 -195h-207z" />
<glyph unicode="/" horiz-adv-x="1124" d="M-100 -193l1079 1784h227l-1079 -1784h-227z" />
<glyph unicode="0" horiz-adv-x="1515" d="M152 594q0 430 237.5 730t542.5 300q219 0 346 -172t127 -477q0 -418 -226.5 -713t-545.5 -295q-233 0 -357 167t-124 460zM377 608q0 -444 289 -444q219 0 368.5 224t149.5 564q0 240 -78 357.5t-209 117.5q-195 0 -357.5 -230.5t-162.5 -588.5z" />
<glyph unicode="1" horiz-adv-x="778" d="M209 0l219 1241q-94 -68 -219 -100l6 202q78 25 178.5 99t155.5 149h166l-281 -1591h-225z" />
<glyph unicode="2" horiz-adv-x="1110" d="M6 0q504 625 652.5 853t148.5 361q0 207 -199 207q-193 0 -364 -211l6 193q27 37 77 80t155.5 92t217.5 49q170 0 249 -101.5t79 -248.5q0 -176 -129 -404.5t-473 -674.5h471l-33 -195h-858z" />
<glyph unicode="3" horiz-adv-x="1159" d="M-4 88l88 201q147 -125 307 -125q150 0 257.5 93t107.5 278q0 115 -59.5 180t-213.5 65h-159l51 172h82q371 0 370 295q0 84 -41 132t-157 48q-166 0 -289 -92l-6 183q41 37 135 71.5t217 34.5q205 0 289 -98.5t84 -247.5q0 -104 -50.5 -198.5t-185.5 -196.5 q162 -78 162 -322q0 -270 -190.5 -432t-429.5 -162q-129 0 -236.5 44t-132.5 77z" />
<glyph unicode="4" horiz-adv-x="1191" d="M0 432l864 1159h178l-170 -964h177l-37 -195h-172l-78 -432h-223l77 432h-616zM354 627h295l103 577z" />
<glyph unicode="5" horiz-adv-x="1153" d="M20 57l86 203q123 -96 278 -96t275.5 122t120.5 289q0 123 -82 177.5t-280 54.5h-189l226 784h653l-55 -194h-465l-109 -398q281 -4 407 -92t126 -286q0 -276 -204 -465t-456 -189q-102 0 -210 29.5t-122 60.5z" />
<glyph unicode="6" horiz-adv-x="1208" d="M115 408q0 221 91 446t222 382t268.5 256t233.5 99l129 -86l-129 -67q-39 -25 -131 -90.5t-146.5 -128t-123 -170t-111.5 -238.5q113 143 301 143q158 0 258 -94t100 -278q0 -248 -171 -431.5t-427 -183.5q-364 1 -364 441zM330 397q0 -121 59.5 -180t149.5 -59 q137 0 229 120.5t92 266.5q0 94 -46 159.5t-148 65.5q-131 0 -233.5 -106.5t-102.5 -266.5z" />
<glyph unicode="7" horiz-adv-x="1067" d="M66 0l774 1397h-619l33 194h932l-893 -1591h-227z" />
<glyph unicode="8" horiz-adv-x="1288" d="M94 360q0 299 340 494q-119 135 -119 305q0 80 27 156t80 147.5t155.5 114.5t237.5 43q362 0 363 -324q0 -121 -59.5 -201.5t-233.5 -213.5q231 -109 231 -344q0 -131 -65.5 -259t-209 -219.5t-329.5 -91.5q-217 0 -317.5 113.5t-100.5 279.5zM317 381q0 -217 222 -217 q147 0 248.5 94t101.5 234q0 102 -60.5 173.5t-162.5 102.5q-145 -29 -247 -131t-102 -256zM514 1190q0 -156 168 -234q139 47 210 134.5t71 179.5q0 158 -187 157q-123 0 -192.5 -68.5t-69.5 -168.5z" />
<glyph unicode="9" horiz-adv-x="1216" d="M172 1006q0 254 174 436t434 182q172 0 266.5 -103.5t94.5 -355.5q0 -238 -88 -464t-217 -373.5t-264.5 -237.5t-235.5 -90l-141 86q106 55 172.5 96t171 125t179.5 199t113 258q-113 -129 -315 -129q-156 0 -250 94.5t-94 276.5zM395 1047q0 -94 46 -160t147 -66 q133 0 236.5 106.5t103.5 266.5q0 117 -59.5 178.5t-151.5 61.5q-139 0 -230.5 -121t-91.5 -266z" />
<glyph unicode=":" horiz-adv-x="471" d="M16 0l33 195h207l-33 -195h-207zM158 805l35 194h204l-32 -194h-207z" />
<glyph unicode=";" horiz-adv-x="497" d="M-23 -219l105 199l-64 20l35 195h219l-36 -197l-216 -246zM160 805l33 194h229l-33 -194h-229z" />
<glyph unicode="&#x3c;" horiz-adv-x="890" d="M80 645l522 469h227l-522 -469l357 -467h-228z" />
<glyph unicode="=" horiz-adv-x="1064" d="M100 365l29 172h758l-31 -172h-756zM164 723l29 172h757l-28 -172h-758z" />
<glyph unicode="&#x3e;" horiz-adv-x="892" d="M57 178l523 467l-357 469h228l356 -469l-522 -467h-228z" />
<glyph unicode="?" horiz-adv-x="948" d="M205 0l35 195h209l-37 -195h-207zM233 1552q55 66 151.5 109t201.5 43q176 0 268 -111.5t92 -255.5q0 -90 -45 -182q-41 -92 -110 -172l-136 -160q-70 -78 -123 -158.5t-65 -148.5l-12 -61h-138q8 88 13 102q16 84 64 165t108 146l116 136q57 68 95.5 152.5t38.5 174.5 q0 111 -56.5 167t-142.5 56t-168 -50t-123 -103z" />
<glyph unicode="@" horiz-adv-x="1515" d="M57 260q0 264 137.5 497.5t354.5 366.5t446 133q203 0 313.5 -121.5t110.5 -332.5q0 -133 -40 -263t-132 -228.5t-215 -98.5q-37 0 -55.5 15.5t-18.5 62.5q0 61 26 133t87.5 206t99.5 232q-84 121 -227 121q-137 0 -288.5 -106.5t-252 -272.5t-100.5 -321 q0 -84 35 -138.5t113 -54.5q94 0 212.5 70.5t202.5 193.5l-10 -26q-6 -20 -10 -44t-4 -53q0 -135 90 -135q57 0 144 44t147 102q-131 -199 -334 -320t-414 -121q-199 0 -308.5 121t-109.5 338zM475 346q0 186 163 342t298 156q76 0 84 -51q-61 -184 -218 -367.5t-257 -183.5 q-70 0 -70 104z" />
<glyph unicode="A" horiz-adv-x="1290" d="M-84 0l793 1591h219l231 -1591h-227l-58 430h-524l-207 -430h-227zM455 625h385l-76 663z" />
<glyph unicode="B" horiz-adv-x="1284" d="M63 0l281 1591h344q260 0 371.5 -65.5t111.5 -263.5q0 -137 -47 -227.5t-141 -186.5q98 -53 140 -124t42 -199t-36.5 -224t-95 -151.5t-140.5 -91t-158 -47t-160 -11.5h-512zM313 195h219q207 0 306.5 60t99.5 247q0 121 -52 177t-184 56h-292zM442 930h246q53 0 90 8 t81 33.5t67.5 87t23.5 155.5q0 111 -45 148t-180 37h-201z" />
<glyph unicode="C" horiz-adv-x="1284" d="M104 645q0 416 258.5 697.5t616.5 281.5q225 0 387 -94l-59 -201q-8 6 -60.5 27.5t-71.5 27.5l-63 21q-43 14 -82 18t-80 4q-272 0 -439 -229t-167 -541q0 -225 98.5 -359t292.5 -134q31 0 68 4t62.5 10t67.5 18.5t58 16.5l68 23q49 18 59 24l-14 -201q-193 -92 -410 -92 q-272 0 -431 180.5t-159 497.5z" />
<glyph unicode="D" horiz-adv-x="1525" d="M63 0l281 1591h530q274 0 432 -171t158 -486q0 -410 -250.5 -672t-617.5 -262h-533zM313 195h316q276 0 436 211.5t160 517.5q0 225 -96.5 349t-286.5 124h-318z" />
<glyph unicode="E" d="M63 0l281 1591h889l-35 -194h-670l-82 -467h527l-35 -195h-526l-97 -540h691l-35 -195h-908z" />
<glyph unicode="F" horiz-adv-x="1105" d="M63 0l281 1591h877l-35 -194h-662l-82 -467h510l-34 -195h-508l-129 -735h-218z" />
<glyph unicode="G" horiz-adv-x="1411" d="M106 647q0 416 256 696.5t621 280.5q244 0 416 -92l-56 -189q-203 84 -385 84q-193 0 -337 -114.5t-210.5 -286.5t-66.5 -367q0 -231 104.5 -363t313.5 -132q133 0 233 43l72 395h-205l33 197h422l-125 -711q-94 -49 -241.5 -85t-268.5 -36q-262 0 -419 181.5t-157 498.5 z" />
<glyph unicode="H" horiz-adv-x="1562" d="M63 0l281 1591h215l-117 -657h770l115 657h217l-282 -1591h-215l129 729h-766l-129 -729h-218z" />
<glyph unicode="I" horiz-adv-x="579" d="M63 0l281 1591h215l-278 -1591h-218z" />
<glyph unicode="J" horiz-adv-x="581" d="M-172 -391l4 127h21q98 0 142 59.5t68 198.5l283 1597h215l-293 -1665q-57 -317 -393 -317h-47z" />
<glyph unicode="K" horiz-adv-x="1243" d="M63 0l281 1591h215l-278 -1591h-218zM498 844l653 747h233l-653 -747l373 -844h-234z" />
<glyph unicode="L" horiz-adv-x="1060" d="M63 0l281 1591h215l-246 -1396h637l-37 -195h-850z" />
<glyph unicode="M" horiz-adv-x="1708" d="M-6 0l475 1591h195l213 -788l491 788h197l-86 -1591h-230l78 1174l-522 -797l-248 797l-336 -1174h-227z" />
<glyph unicode="N" horiz-adv-x="1482" d="M63 0l281 1591h227l465 -1192l209 1192h219l-282 -1591h-183l-497 1257l-221 -1257h-218z" />
<glyph unicode="O" horiz-adv-x="1613" d="M104 641q0 418 254 700.5t611 282.5q270 0 426.5 -179t156.5 -495q0 -416 -255 -699.5t-609 -283.5q-270 0 -427 179.5t-157 494.5zM344 655q0 -223 94 -357t287 -134q176 0 313.5 111.5t208 286.5t70.5 374q0 223 -96.5 357t-288.5 134q-174 0 -311.5 -111.5 t-207 -286.5t-69.5 -374z" />
<glyph unicode="P" horiz-adv-x="1222" d="M63 0l281 1591h442q240 0 350.5 -78.5t110.5 -314.5q0 -168 -56 -298t-145.5 -201.5t-183.5 -106.5t-184 -35h-293l-98 -557h-224zM418 750h258q180 0 262 118.5t82 292.5q0 129 -56.5 183.5t-213.5 54.5h-215z" />
<glyph unicode="Q" horiz-adv-x="1609" d="M104 643q0 416 254 698.5t609 282.5q274 0 429.5 -180t155.5 -490q0 -352 -256 -702l105 -111l-144 -135l-114 123q-217 -162 -459 -162q-266 0 -423 180.5t-157 495.5zM344 649q0 -221 94 -353t289 -132q170 0 287 90l-170 192l143 138l170 -193q55 84 86 140.5 t57.5 162t26.5 224.5q0 242 -98.5 375.5t-294.5 133.5q-266 0 -428 -231.5t-162 -546.5z" />
<glyph unicode="R" horiz-adv-x="1284" d="M63 0l281 1591h483q205 0 315.5 -83t110.5 -277q0 -188 -97 -331.5t-251 -221.5l211 -678h-229l-201 621h-291l-108 -621h-224zM432 829h273q141 0 230 88.5t89 256.5q0 123 -57.5 183t-188.5 60h-241z" />
<glyph unicode="S" horiz-adv-x="1222" d="M14 70l72 254q63 -68 172 -114t240 -46q158 0 263 69.5t105 202.5q0 115 -72.5 172.5t-232.5 120.5q-92 37 -136 58.5t-113.5 68.5t-101.5 107.5t-32 138.5q0 82 34 169t100.5 167t189.5 133t280 53q131 0 252 -35t180 -76l-61 -229q-123 74 -208 108.5t-179 34.5 q-129 0 -239.5 -68.5t-110.5 -193.5q0 -88 61.5 -137t198.5 -100q66 -25 88 -37l86 -37q59 -27 84 -46l66 -55q42 -36 60.5 -72t34 -87t15.5 -111q0 -94 -34 -181t-103.5 -165t-200.5 -124t-309 -46q-297 1 -449 103z" />
<glyph unicode="T" horiz-adv-x="1187" d="M199 1397l32 194h1045l-35 -194h-414l-245 -1397h-215l245 1397h-413z" />
<glyph unicode="U" horiz-adv-x="1517" d="M147 463q0 100 21 213l162 915h215l-144 -811q-27 -154 -26 -260q0 -356 295 -356q117 0 202.5 50t141 143.5t88.5 192.5t55 230l143 811h216l-160 -915q-59 -338 -241.5 -523.5t-477.5 -185.5q-246 0 -368 129t-122 367z" />
<glyph unicode="V" horiz-adv-x="1351" d="M170 1591h227l197 -1329l663 1329h228l-817 -1591h-240z" />
<glyph unicode="W" horiz-adv-x="2019" d="M211 1591h227l66 -1323l579 1291h181l118 -1289l541 1321h225l-700 -1591h-217l-103 1305l-571 -1305h-225z" />
<glyph unicode="X" horiz-adv-x="1275" d="M-88 0l616 811l-327 780h250l245 -633l478 633h233l-631 -782l361 -809h-234l-278 653l-478 -653h-235z" />
<glyph unicode="Y" horiz-adv-x="1241" d="M178 1591h228l258 -661l481 661h227l-635 -856l-131 -735h-221l129 735z" />
<glyph unicode="Z" horiz-adv-x="1136" d="M-94 0l981 1397h-641l35 194h997l-983 -1396h643l-33 -195h-999z" />
<glyph unicode="[" horiz-adv-x="694" d="M-8 -307l354 2011h524l-26 -154h-336l-301 -1702h336l-27 -155h-524z" />
<glyph unicode="\" horiz-adv-x="1107" d="M242 1591h217l450 -1784h-219z" />
<glyph unicode="]" horiz-adv-x="704" d="M-154 -307l33 190h336l287 1630h-336l35 191h524l-354 -2011h-525z" />
<glyph unicode="^" horiz-adv-x="1042" d="M274 993l43 242l508 489l334 -489l-41 -242l-336 492z" />
<glyph unicode="_" horiz-adv-x="1161" d="M-160 -276l35 194h1145l-33 -194h-1147z" />
<glyph unicode="`" horiz-adv-x="620" d="M385 1501l29 164l344 -217l-17 -92z" />
<glyph unicode="a" horiz-adv-x="1226" d="M47 446q0 270 170 480.5t418 210.5q186 0 258 -142l43 119h182l-133 -788q-10 -49 -10 -90q0 -53 24.5 -74t81.5 -21l-55 -164q-59 0 -92 3.5t-72 18.5t-61.5 50t-34.5 92q-66 -78 -160 -121t-188 -43q-166 0 -268.5 133t-102.5 336zM262 467q0 -137 55.5 -222t169.5 -85 q139 0 248 126t109 343q0 164 -63.5 244.5t-168.5 80.5q-150 0 -250 -145t-100 -342z" />
<glyph unicode="b" horiz-adv-x="1181" d="M23 0l301 1704h206l-124 -711q123 143 311 144q180 0 279.5 -134.5t99.5 -334.5q0 -276 -173 -483.5t-399 -207.5q-188 0 -274 164l-41 -141h-186zM305 463q0 -303 217 -303q154 0 257.5 145.5t103.5 341.5q0 139 -57.5 223t-166.5 84q-141 0 -247.5 -136t-106.5 -355z " />
<glyph unicode="c" horiz-adv-x="948" d="M53 453q0 285 166 484.5t461 199.5q184 0 283 -66l-60 -184q-119 68 -246 67q-188 0 -290.5 -136t-102.5 -345q0 -315 256 -315q127 0 268 67l-6 -164q-133 -84 -305 -84q-217 0 -320.5 131.5t-103.5 344.5z" />
<glyph unicode="d" horiz-adv-x="1181" d="M47 449q0 268 170 478t418 210q186 0 258 -142l125 709h207l-299 -1704h-189l8 141q-143 -164 -327 -164q-166 0 -268.5 133.5t-102.5 338.5zM262 467q0 -137 55.5 -222t169.5 -85q139 0 248 126t109 343q0 164 -63.5 244.5t-168.5 80.5q-150 0 -250 -145t-100 -342z" />
<glyph unicode="e" horiz-adv-x="1040" d="M47 459q0 272 172 475t436 203q158 0 245 -77t87 -208q0 -150 -123 -262.5t-395 -112.5q-117 0 -201 19q0 -186 76 -261t213 -75q166 0 307 65l-10 -162q-188 -86 -352 -86q-221 0 -338 134.5t-117 347.5zM291 639q16 -2 37.5 -9t49.5 -10.5t73 -3.5q184 0 266 63.5 t82 147.5q0 63 -46 95t-118 32q-233 0 -344 -315z" />
<glyph unicode="f" horiz-adv-x="688" d="M78 0l168 954h-164l49 160h141l52 283q53 307 329 307q92 0 172 -29l-57 -172q-51 20 -111 21q-70 0 -95 -49.5t-58 -225.5l-25 -135h258l-30 -160h-254l-168 -954h-207z" />
<glyph unicode="g" horiz-adv-x="1042" d="M-96 -281q0 78 51 163t172 136q-74 47 -74 123q0 41 36 94.5t106 90.5q-111 117 -111 297q0 205 137 359.5t359 154.5q141 0 235 -82q109 63 246 63h33l-43 -135h-62q-47 0 -102 -16q43 -90 43 -201q0 -193 -138.5 -351.5t-353.5 -158.5q-74 0 -131 20q-53 -35 -53 -73 q0 -37 55.5 -57.5t218.5 -55.5q68 -12 117 -28.5t111.5 -47t96.5 -81t34 -117.5q0 -150 -156 -267.5t-403 -117.5q-217 0 -320.5 88.5t-103.5 199.5zM94 -250q0 -68 68.5 -114t191.5 -46q145 0 237.5 59.5t92.5 135.5q0 47 -46 80t-101.5 46t-137.5 29.5t-114 26.5 q-78 -27 -134.5 -89t-56.5 -128zM276 637q0 -106 49.5 -164.5t135.5 -58.5q121 0 198.5 103.5t77.5 242.5q0 104 -48 158.5t-136 54.5q-123 0 -200 -98.5t-77 -237.5z" />
<glyph unicode="h" horiz-adv-x="1148" d="M23 0l301 1704h208l-126 -711q125 143 299 144q324 0 323 -369q0 -74 -123 -768h-207q121 690 121 750q0 111 -42 157.5t-138 46.5q-160 0 -266 -145l-144 -809h-206z" />
<glyph unicode="i" horiz-adv-x="485" d="M23 0l196 1114h207l-197 -1114h-206zM264 1364l39 227h207l-39 -227h-207z" />
<glyph unicode="j" horiz-adv-x="485" d="M-193 -551l7 158q88 12 122.5 52t57.5 175l225 1280h207l-240 -1358q-45 -254 -307 -295zM264 1364l41 227h207l-41 -227h-207z" />
<glyph unicode="k" horiz-adv-x="972" d="M23 0l301 1704h206l-194 -1092l444 502h246l-491 -514l299 -600h-242l-262 565l-101 -565h-206z" />
<glyph unicode="l" horiz-adv-x="530" d="M55 186q0 37 260 1518h207q-252 -1434 -252 -1473q0 -53 28 -71.5t99 -18.5l-53 -164h-72q-113 0 -165 58.5t-52 150.5z" />
<glyph unicode="m" horiz-adv-x="1820" d="M23 0l196 1114h162v-119q143 141 309 142q236 0 297 -224q127 223 397 224q324 0 324 -318q0 -68 -133 -819h-207q127 723 127 772q0 182 -176 182q-248 0 -303 -309l-113 -645h-207q123 696 123 760q0 109 -45 151.5t-131 42.5q-174 0 -270 -145l-144 -809h-206z" />
<glyph unicode="n" horiz-adv-x="1169" d="M23 0l196 1114h174l-6 -119q145 141 332 142q332 0 332 -357q0 -82 -125 -780h-207q123 694 123 752q0 104 -47 153t-146 49q-180 0 -276 -145l-144 -809h-206z" />
<glyph unicode="o" d="M47 449q0 281 175 484.5t437 203.5q205 0 312.5 -132.5t107.5 -340.5q0 -279 -175 -483t-435 -204q-205 0 -313.5 131.5t-108.5 340.5zM260 467q0 -307 238 -307q166 0 268 139t102 348q0 307 -239 307q-166 0 -267.5 -139t-101.5 -348z" />
<glyph unicode="p" horiz-adv-x="1185" d="M-76 -551l295 1665h168l-8 -160q158 182 338 183q184 0 281.5 -133.5t97.5 -337.5q0 -272 -159 -480.5t-400 -208.5q-199 0 -285 164l-121 -692h-207zM305 469q0 -160 60.5 -234.5t158.5 -74.5q154 0 256.5 147.5t102.5 345.5q0 137 -56.5 219t-162.5 82 q-143 0 -251 -134t-108 -351z" />
<glyph unicode="q" horiz-adv-x="1183" d="M47 430q0 279 166 493t414 214q104 0 166.5 -44t113.5 -139l47 160h168l-293 -1665h-206l122 692q-66 -78 -154.5 -121t-164.5 -43q-184 0 -281.5 125t-97.5 328zM264 467q0 -139 54.5 -223t164.5 -84q141 0 250 130t109 349q0 162 -61.5 238.5t-164.5 76.5 q-154 0 -253 -144t-99 -343z" />
<glyph unicode="r" horiz-adv-x="696" d="M23 0l196 1114h178l-16 -184q190 225 360 225h31l-82 -225h-74q-61 0 -132.5 -44t-108.5 -100l-139 -786h-213z" />
<glyph unicode="s" horiz-adv-x="882" d="M-23 76l58 196q113 -113 297 -112q104 0 156.5 43t52.5 114q0 51 -29 86t-57.5 49.5t-79.5 28.5q-61 20 -96 35.5t-78 46.5t-63.5 77t-20.5 112q0 152 108.5 268.5t329.5 116.5q166 0 276 -74l-53 -186q-88 98 -237 98q-94 0 -155.5 -44t-61.5 -124q0 -63 42 -93t158 -71 q49 -16 81 -32.5t72 -47.5t60.5 -82t20.5 -116q0 -47 -9.5 -92.5t-39 -100.5t-75.5 -96t-129 -70t-192 -29q-213 1 -336 99z" />
<glyph unicode="t" horiz-adv-x="688" d="M80 954l45 160h145l52 275l208 20l-53 -295h252l-29 -160h-251q-121 -686 -121 -725q0 -59 32.5 -73.5t137.5 -14.5h55l-45 -164h-172q-115 0 -168 58.5t-53 148.5q0 39 129 770h-164z" />
<glyph unicode="u" horiz-adv-x="1122" d="M78 305q0 74 129 809h207q-121 -686 -121 -745q0 -209 178 -209q147 0 238 127l145 827h207l-195 -1114h-188l6 123q-63 -76 -132 -111t-165 -35q-309 0 -309 328z" />
<glyph unicode="v" horiz-adv-x="997" d="M80 1114h217l117 -889l426 889h219l-580 -1114h-211z" />
<glyph unicode="w" horiz-adv-x="1503" d="M111 1114h227l31 -889l356 854h199l55 -854l344 889h227l-497 -1114h-209l-64 823l-358 -823h-207z" />
<glyph unicode="x" horiz-adv-x="997" d="M-84 0l440 559l-237 555h235l150 -432l295 432h241l-460 -573l272 -541h-236l-174 434l-290 -434h-236z" />
<glyph unicode="y" horiz-adv-x="1042" d="M-29 -551l336 600l-233 1065h229l152 -827l422 827h231l-918 -1665h-219z" />
<glyph unicode="z" horiz-adv-x="976" d="M-66 0l674 954h-485l27 160h854l-676 -954h493l-30 -160h-857z" />
<glyph unicode="{" horiz-adv-x="634" d="M53 698q92 59 141.5 136t71.5 202q8 55 21.5 169t19.5 159q29 162 143.5 247t358.5 93l-29 -156q-70 -2 -116 -10t-80.5 -30.5t-55 -45t-39 -74t-27.5 -97.5l-26 -132q-6 -31 -14 -97.5t-12 -96.5q-16 -84 -54.5 -142.5t-142.5 -124.5q113 -92 113 -194q0 -53 -39 -189.5 t-39 -257.5q0 -113 50 -157.5t183 -49.5l-26 -157q-205 6 -297 74.5t-92 197.5q0 59 47 231.5t47 258.5q-1 159 -107 243z" />
<glyph unicode="|" horiz-adv-x="509" d="M-41 -475l385 2179h188l-385 -2179h-188z" />
<glyph unicode="}" horiz-adv-x="628" d="M-166 -307l27 157q70 2 116 10.5t81.5 31t55 45t38 74.5t27.5 96.5l26 132.5l16 111q10 71 15 102q14 76 52 128t142 117q-113 90 -113 207q0 29 39 169t39 267q0 111 -50 157t-183 50l26 156q389 -10 390 -274q0 -59 -47.5 -229.5t-47.5 -256.5q0 -162 105 -246 q-94 -57 -142.5 -137t-68.5 -201q-8 -53 -22.5 -167.5l-20.5 -159.5q-27 -164 -145.5 -247t-354.5 -93z" />
<glyph unicode="~" horiz-adv-x="985" d="M86 432q37 102 111.5 153.5t150.5 51.5q49 0 133 -56.5t119 -56.5q88 0 156 117l92 -20q-39 -100 -109.5 -156.5t-154.5 -56.5q-47 0 -131 57t-117 57q-96 0 -150 -110z" />
<glyph unicode="&#xa1;" horiz-adv-x="534" d="M-78 -569l277 1251h141l-162 -1251h-256zM215 942l35 195h201l-37 -195h-199z" />
<glyph unicode="&#xa2;" horiz-adv-x="999" d="M94 674q0 262 151.5 467t413.5 241l19 318h156l-93 -318q170 -12 258 -73l-49 -176q-115 74 -248 73q-164 0 -270 -154.5t-106 -357.5q0 -139 60 -229t171 -90q133 0 272 74l-10 -179q-117 -61 -282 -71l-15 -269h-157l81 269q-174 27 -263 158t-89 317z" />
<glyph unicode="&#xa3;" horiz-adv-x="1062" d="M-37 0q133 152 213 325t148 416h-193l53 133h170l52 285q14 98 38.5 168t68.5 137.5t120 104.5t180 37q238 0 260 -201l-86 -86q-10 39 -17 60.5t-23.5 44t-44.5 32.5t-68 10q-113 0 -164.5 -88t-85.5 -268l-41 -236h393l-51 -133h-373q-41 -176 -83 -288.5t-138 -288.5 h549l-29 -164h-848z" />
<glyph unicode="&#xa4;" horiz-adv-x="1325" d="M47 121l197 231q-90 147 -90 334q0 291 245 545l-114 231l88 54l116 -234q150 86 295 86q147 0 267 -88l202 236l68 -54l-199 -235q90 -139 90 -334q0 -285 -245 -543l116 -229l-88 -55l-118 235q-145 -88 -295 -88q-152 0 -267 88l-198 -235zM365 686q0 -147 62 -239.5 t179 -92.5q176 0 287 162t111 379q0 147 -63.5 239.5t-180.5 92.5q-176 0 -285.5 -161t-109.5 -380z" />
<glyph unicode="&#xa5;" horiz-adv-x="1421" d="M182 332l66 123h311l27 149h-357l66 115h299l-367 872h215l303 -698l549 698h215l-673 -872h329l-67 -115h-295l-25 -149h340l-67 -123h-295l-60 -332h-217l58 332h-355z" />
<glyph unicode="&#xa6;" horiz-adv-x="509" d="M-37 -477l152 848h178l-150 -848h-180zM170 700l178 1004h180l-176 -1004h-182z" />
<glyph unicode="&#xa7;" horiz-adv-x="968" d="M12 -102l49 143q121 -94 250 -94q102 0 171 58t69 165q0 72 -47 116t-112.5 68.5t-132 56t-113 98t-46.5 169.5q0 145 70 254.5t205 157.5q-78 88 -78 196q0 70 20.5 137.5t65.5 134t130 106.5t196 40q86 0 165.5 -26.5t116.5 -63.5l-47 -144q-129 98 -248 99 q-94 0 -163.5 -67.5t-69.5 -155.5q0 -63 46 -106.5t109.5 -73t127 -66.5t109.5 -105.5t46 -169.5q0 -281 -268 -397q72 -88 72 -197q0 -100 -38 -190t-135.5 -160.5t-242.5 -70.5q-88 0 -167 24.5t-110 63.5zM268 748q0 -156 264 -250q76 27 135.5 104.5t59.5 165.5 q0 168 -238 227q-68 -2 -144.5 -62t-76.5 -185z" />
<glyph unicode="&#xa8;" horiz-adv-x="862" d="M418 1364l41 227h159l-38 -227h-162zM764 1364l41 227h162l-41 -227h-162z" />
<glyph unicode="&#xa9;" horiz-adv-x="1515" d="M137 684q0 385 229.5 638t555.5 253q236 0 377 -163t141 -435q0 -385 -228.5 -639t-554.5 -254q-238 0 -379 164t-141 436zM260 682q0 -225 104.5 -361.5t311.5 -136.5q199 0 348.5 113t221 290t71.5 388q0 225 -104.5 361.5t-309.5 136.5q-299 0 -471 -230.5 t-172 -560.5zM471 750q0 199 117 326.5t284 127.5q102 0 185 -43l-41 -135q-90 43 -168 43q-102 0 -162.5 -89t-60.5 -214q0 -82 35.5 -133t103.5 -51q78 0 184 45l-10 -133q-86 -45 -199 -45q-123 0 -195.5 82t-72.5 219z" />
<glyph unicode="&#xaa;" horiz-adv-x="747" d="M164 1143q0 76 43 131t110.5 81.5t123 39t104.5 14.5q0 51 -15.5 73.5t-66.5 22.5q-72 0 -180 -45l10 135q129 53 242 54q190 0 190 -179q0 -45 -39 -249q-6 -39 -6 -58q0 -39 37 -39h24l-36 -137h-78q-39 0 -73 20.5t-44 49.5q-72 -70 -201 -70q-63 0 -104 42t-41 114z M348 1165q0 -51 66 -51q37 0 88 39l26 143q-53 -2 -116.5 -37t-63.5 -94z" />
<glyph unicode="&#xab;" horiz-adv-x="1214" d="M47 645l387 469h236l-385 -469l219 -467h-236zM580 645l387 469h235l-387 -469l223 -467h-237z" />
<glyph unicode="&#xac;" horiz-adv-x="1251" d="M166 786l24 138h943l-103 -580h-139l78 442h-803z" />
<glyph unicode="&#xad;" horiz-adv-x="901" d="M106 522l39 215h635l-39 -215h-635z" />
<glyph unicode="&#xae;" horiz-adv-x="1515" d="M137 684q0 385 229.5 638t555.5 253q236 0 377 -163t141 -435q0 -385 -228.5 -639t-554.5 -254q-238 0 -379 164t-141 436zM260 684q0 -225 104.5 -363.5t311.5 -138.5q295 0 469 232.5t174 560.5q0 225 -105.5 362.5t-310.5 137.5q-201 0 -349 -113t-221 -290t-73 -388z M481 477l131 729h248q197 0 197 -172q0 -150 -148 -252l95 -305h-150l-84 266h-96l-47 -266h-146zM696 870h72q137 0 137 144q0 82 -94 82h-74z" />
<glyph unicode="&#xb0;" horiz-adv-x="706" d="M203 1346q0 150 94 260t238 110q106 0 164.5 -70.5t58.5 -181.5q0 -154 -93.5 -261t-238.5 -107q-104 0 -163.5 70.5t-59.5 179.5zM309 1348q0 -82 33 -137.5t92 -55.5q96 0 155.5 96.5t59.5 212.5q0 80 -32.5 136.5t-94.5 56.5q-88 0 -150.5 -97t-62.5 -212z" />
<glyph unicode="&#xb1;" horiz-adv-x="1048" d="M49 96l29 152h756l-27 -152h-758zM164 743l26 152h304l57 315h149l-55 -315h303l-26 -152h-304l-59 -327h-149l59 327h-305z" />
<glyph unicode="&#xb2;" horiz-adv-x="649" d="M68 727q279 330 361.5 454t82.5 195q0 92 -84 92q-119 0 -215 -133v148q33 43 106.5 83t161.5 40q102 0 147.5 -56.5t45.5 -132.5q0 -92 -64.5 -206.5t-228.5 -323.5h231l-30 -160h-514z" />
<glyph unicode="&#xb3;" horiz-adv-x="655" d="M68 778l69 150q8 -23 59.5 -41.5t100.5 -18.5q178 0 178 158q0 106 -110 107h-117l37 124h59q160 0 160 129q0 80 -96 80q-94 0 -148 -39l-6 121q74 57 199 58q123 0 173 -57.5t50 -135.5q0 -131 -103 -209q66 -61 66 -166q0 -152 -110.5 -240.5t-252.5 -88.5 q-70 0 -134 24.5t-74 44.5z" />
<glyph unicode="&#xb4;" horiz-adv-x="616" d="M356 1356l17 92l420 217l-27 -164z" />
<glyph unicode="&#xb5;" horiz-adv-x="1267" d="M-41 -551l293 1665h205l-103 -586q-16 -82 -16 -159q0 -211 184 -211q74 0 129.5 30.5t116.5 100.5l145 825h203l-127 -727q-16 -100 -16 -145q0 -100 65 -101h41l-55 -164h-68q-162 0 -190 166q-150 -168 -297 -168q-63 0 -107.5 16.5t-91.5 69.5l-106 -612h-205z" />
<glyph unicode="&#xb6;" horiz-adv-x="1298" d="M143 1006q0 104 45 206.5t128 187.5t217.5 138t295.5 53h533l-27 -151h-151l-254 -1440h-123l252 1440h-178l-256 -1440h-103l99 553q-236 16 -357 145.5t-121 307.5z" />
<glyph unicode="&#xb7;" horiz-adv-x="522" d="M100 483l52 297h256l-54 -297h-254z" />
<glyph unicode="&#xb8;" horiz-adv-x="616" d="M207 -436l192 299l162 14l-239 -303z" />
<glyph unicode="&#xb9;" horiz-adv-x="477" d="M178 727l111 629q-41 -31 -105 -39l17 135q35 8 90 51t76 84h129l-150 -860h-168z" />
<glyph unicode="&#xba;" horiz-adv-x="792" d="M186 1264q0 156 107.5 270.5t271.5 114.5q125 0 195.5 -79t70.5 -198q0 -154 -107.5 -269.5t-272.5 -115.5q-125 0 -195 78t-70 199zM365 1270q0 -68 27.5 -108t82.5 -40q80 0 130 71t50 173q0 66 -29.5 106.5t-82.5 40.5q-80 0 -129 -70.5t-49 -172.5z" />
<glyph unicode="&#xbb;" horiz-adv-x="1216" d="M6 178l389 467l-223 469h238l219 -469l-385 -467h-238zM539 178l387 467l-221 469h233l223 -469l-385 -467h-237z" />
<glyph unicode="&#xbc;" horiz-adv-x="1503" d="M-14 -193l1081 1784h227l-1081 -1784h-227zM211 727l113 629q-41 -31 -105 -39l14 135q37 8 91.5 51t74.5 84h131l-151 -860h-168zM723 233l494 627h141l-90 -495h102l-22 -132h-103l-41 -233h-166l43 233h-358zM967 365h137l45 249z" />
<glyph unicode="&#xbd;" horiz-adv-x="1521" d="M-16 -193l1079 1784h227l-1079 -1784h-227zM209 727l113 629q-41 -31 -107 -39l16 135q37 8 91.5 51t74.5 84h131l-151 -860h-168zM807 0q276 330 359 454t83 193q0 94 -84 94q-117 0 -213 -135v150q33 43 107 82t162 39q102 0 146 -55.5t44 -133.5q0 -90 -63.5 -204.5 t-227.5 -323.5h230l-29 -160h-514z" />
<glyph unicode="&#xbe;" horiz-adv-x="1849" d="M96 778l68 150q8 -23 59 -41.5t103 -18.5q176 0 176 158q0 106 -111 107h-117l37 124h60q162 0 161 129q0 80 -98 80q-94 0 -147 -39l-4 121q72 57 196 58q123 0 173 -57.5t50 -135.5q0 -131 -102 -209q66 -61 66 -166q0 -152 -110 -240.5t-251 -88.5q-72 0 -136.5 24.5 t-72.5 44.5zM326 -193l1079 1784h227l-1079 -1784h-227zM1063 233l493 627h142l-88 -495h102l-22 -132h-103l-41 -233h-166l43 233h-360zM1307 365h139l43 249z" />
<glyph unicode="&#xbf;" horiz-adv-x="946" d="M-8 -201q0 90 45 183q41 92 108 172l138 159q68 78 121 159t67 149l10 61h137q-6 -88 -12 -102q-14 -84 -63 -165t-109 -147l-117 -135q-55 -68 -94 -152.5t-39 -175.5q0 -111 56.5 -167t143.5 -56t169 50.5t123 103.5l26 -152q-55 -66 -152 -109.5t-202 -43.5 q-174 0 -265 112.5t-91 255.5zM489 942l33 195h209l-33 -195h-209z" />
<glyph unicode="&#xc0;" horiz-adv-x="1290" d="M-84 0l793 1591h219l231 -1591h-227l-58 430h-524l-207 -430h-227zM455 625h385l-76 663zM696 1978l29 164l344 -217l-16 -92z" />
<glyph unicode="&#xc1;" horiz-adv-x="1290" d="M-84 0l793 1591h219l231 -1591h-227l-58 430h-524l-207 -430h-227zM455 625h385l-76 663zM670 1833l16 92l422 217l-29 -164z" />
<glyph unicode="&#xc2;" horiz-adv-x="1290" d="M-84 0l793 1591h219l231 -1591h-227l-58 430h-524l-207 -430h-227zM455 625h385l-76 663zM563 1847l15 82l344 242l258 -242l-15 -82l-268 187z" />
<glyph unicode="&#xc3;" horiz-adv-x="1290" d="M-84 0l793 1591h219l231 -1591h-227l-58 430h-524l-207 -430h-227zM455 625h385l-76 663zM504 1864q37 102 111.5 153t150.5 51q49 0 134 -55t118 -55q90 0 156 115l92 -21q-39 -100 -109 -156.5t-153 -56.5q-49 0 -133.5 58.5t-114.5 58.5q-98 0 -152 -113z" />
<glyph unicode="&#xc4;" horiz-adv-x="1290" d="M-84 0l793 1591h219l231 -1591h-227l-58 430h-524l-207 -430h-227zM455 625h385l-76 663zM608 1841l41 227h160l-39 -227h-162zM954 1841l41 227h162l-41 -227h-162z" />
<glyph unicode="&#xc5;" horiz-adv-x="1290" d="M-84 0l793 1591h219l231 -1591h-227l-58 430h-524l-207 -430h-227zM455 625h385l-76 663zM674 1958q0 92 70.5 163.5t181.5 71.5q86 0 132 -50t46 -122q0 -94 -68.5 -164.5t-181.5 -70.5q-86 0 -133 50t-47 122zM776 1962q0 -49 25.5 -79t64.5 -30q55 0 97.5 45.5 t42.5 114.5q0 49 -27 80t-66 31q-53 0 -95 -46t-42 -116z" />
<glyph unicode="&#xc6;" horiz-adv-x="1789" d="M-119 0l981 1591h996l-37 -198h-627l-82 -463h483l-32 -195h-486l-94 -540h647l-35 -195h-890l71 410h-424l-254 -410h-217zM487 618h326l135 771z" />
<glyph unicode="&#xc7;" horiz-adv-x="1284" d="M104 645q0 416 258.5 697.5t616.5 281.5q225 0 387 -94l-59 -201q-8 6 -60.5 27.5t-71.5 27.5l-63 21q-43 14 -82 18t-80 4q-272 0 -439 -229t-167 -541q0 -225 98.5 -359t292.5 -134q31 0 68 4t62 10l67 17q41 14 59 18l68 23q51 18 59 24l-14 -201q-193 -92 -410 -92 q-272 0 -431 180.5t-159 497.5zM307 -436l193 299l162 14l-242 -303z" />
<glyph unicode="&#xc8;" d="M63 0l281 1591h889l-35 -194h-670l-82 -467h527l-35 -195h-526l-97 -540h691l-35 -195h-908zM623 1978l30 164l342 -217l-16 -92z" />
<glyph unicode="&#xc9;" d="M63 0l281 1591h889l-35 -194h-670l-82 -467h527l-35 -195h-526l-97 -540h691l-35 -195h-908zM598 1833l16 92l420 217l-26 -164z" />
<glyph unicode="&#xca;" d="M63 0l281 1591h889l-35 -194h-670l-82 -467h527l-35 -195h-526l-97 -540h691l-35 -195h-908zM492 1847l12 82l344 242l260 -242l-14 -82l-269 187z" />
<glyph unicode="&#xcb;" d="M63 0l281 1591h889l-35 -194h-670l-82 -467h527l-35 -195h-526l-97 -540h691l-35 -195h-908zM537 1841l41 227h159l-39 -227h-161zM883 1841l41 227h159l-41 -227h-159z" />
<glyph unicode="&#xcc;" horiz-adv-x="579" d="M63 0l281 1591h215l-278 -1591h-218zM332 1978l28 164l345 -217l-17 -92z" />
<glyph unicode="&#xcd;" horiz-adv-x="579" d="M63 0l281 1591h215l-278 -1591h-218zM305 1833l17 92l419 217l-26 -164z" />
<glyph unicode="&#xce;" horiz-adv-x="579" d="M63 0l281 1591h215l-278 -1591h-218zM199 1847l12 82l344 242l258 -242l-12 -82l-269 187z" />
<glyph unicode="&#xcf;" horiz-adv-x="579" d="M63 0l281 1591h215l-278 -1591h-218zM244 1841l41 227h157l-36 -227h-162zM588 1841l41 227h162l-41 -227h-162z" />
<glyph unicode="&#xd0;" horiz-adv-x="1531" d="M6 711l27 145h194l129 735h529q268 0 425.5 -169t157.5 -466q0 -428 -247.5 -692t-616.5 -264h-526l125 711h-197zM322 199h317q279 0 437.5 209.5t158.5 533.5q0 211 -98.5 333t-286.5 122h-318l-96 -541h266l-26 -145h-264z" />
<glyph unicode="&#xd1;" horiz-adv-x="1482" d="M63 0l281 1591h227l465 -1192l209 1192h219l-282 -1591h-183l-497 1257l-221 -1257h-218zM588 1864q37 102 112.5 153t149.5 51q51 0 135 -55t117 -55q90 0 155 115l93 -21q-39 -100 -109 -156.5t-154 -56.5q-47 0 -131 58.5t-116 58.5q-98 0 -152 -113z" />
<glyph unicode="&#xd2;" horiz-adv-x="1613" d="M104 641q0 418 254 700.5t611 282.5q270 0 426.5 -179t156.5 -495q0 -416 -255 -699.5t-609 -283.5q-270 0 -427 179.5t-157 494.5zM344 655q0 -223 94 -357t287 -134q176 0 313.5 111.5t208 286.5t70.5 374q0 223 -96.5 357t-288.5 134q-174 0 -311.5 -111.5 t-207 -286.5t-69.5 -374zM846 1978l28 164l345 -217l-17 -92z" />
<glyph unicode="&#xd3;" horiz-adv-x="1613" d="M104 641q0 418 254 700.5t611 282.5q270 0 426.5 -179t156.5 -495q0 -416 -255 -699.5t-609 -283.5q-270 0 -427 179.5t-157 494.5zM344 655q0 -223 94 -357t287 -134q176 0 313.5 111.5t208 286.5t70.5 374q0 223 -96.5 357t-288.5 134q-174 0 -311.5 -111.5 t-207 -286.5t-69.5 -374zM821 1833l15 92l421 217l-26 -164z" />
<glyph unicode="&#xd4;" horiz-adv-x="1613" d="M104 641q0 418 254 700.5t611 282.5q270 0 426.5 -179t156.5 -495q0 -416 -255 -699.5t-609 -283.5q-270 0 -427 179.5t-157 494.5zM344 655q0 -223 94 -357t287 -134q176 0 313.5 111.5t208 286.5t70.5 374q0 223 -96.5 357t-288.5 134q-174 0 -311.5 -111.5 t-207 -286.5t-69.5 -374zM715 1847l12 82l344 242l258 -242l-12 -82l-268 187z" />
<glyph unicode="&#xd5;" horiz-adv-x="1613" d="M104 641q0 418 254 700.5t611 282.5q270 0 426.5 -179t156.5 -495q0 -416 -255 -699.5t-609 -283.5q-270 0 -427 179.5t-157 494.5zM344 655q0 -223 94 -357t287 -134q176 0 313.5 111.5t208 286.5t70.5 374q0 223 -96.5 357t-288.5 134q-174 0 -311.5 -111.5 t-207 -286.5t-69.5 -374zM655 1864q35 102 111 153t149 51q51 0 135.5 -55t118.5 -55q88 0 154 115l94 -21q-39 -100 -109.5 -156.5t-154.5 -56.5q-49 0 -133 58.5t-115 58.5q-98 0 -149 -113z" />
<glyph unicode="&#xd6;" horiz-adv-x="1613" d="M104 641q0 418 254 700.5t611 282.5q270 0 426.5 -179t156.5 -495q0 -416 -255 -699.5t-609 -283.5q-270 0 -427 179.5t-157 494.5zM344 655q0 -223 94 -357t287 -134q176 0 313.5 111.5t208 286.5t70.5 374q0 223 -96.5 357t-288.5 134q-174 0 -311.5 -111.5 t-207 -286.5t-69.5 -374zM760 1841l41 227h157l-36 -227h-162zM1104 1841l41 227h162l-41 -227h-162z" />
<glyph unicode="&#xd7;" horiz-adv-x="937" d="M82 352l291 277l-193 278l105 82l190 -280l291 280l76 -82l-291 -278l192 -277l-104 -82l-193 281l-288 -281z" />
<glyph unicode="&#xd8;" horiz-adv-x="1615" d="M27 -68l198 238q-119 188 -119 465q0 428 254 708.5t615 280.5q182 0 325 -96l78 100h215l-166 -203q127 -186 127 -471q0 -426 -252.5 -703.5t-617.5 -277.5q-188 0 -334 97l-104 -138h-219zM350 653q0 -154 37 -299l764 1004q-102 63 -213 63q-268 0 -428 -227.5 t-160 -540.5zM502 240q102 -68 219 -68q182 0 319.5 111.5t206 289t68.5 392.5q0 180 -47 280z" />
<glyph unicode="&#xd9;" horiz-adv-x="1517" d="M147 463q0 100 21 213l162 915h215l-144 -811q-27 -154 -26 -260q0 -356 295 -356q117 0 202.5 50t141 143.5t88.5 192.5t55 230l143 811h216l-160 -915q-59 -338 -241.5 -523.5t-477.5 -185.5q-246 0 -368 129t-122 367zM799 1978l28 164l344 -217l-16 -92z" />
<glyph unicode="&#xda;" horiz-adv-x="1517" d="M147 463q0 100 21 213l162 915h215l-144 -811q-27 -154 -26 -260q0 -356 295 -356q117 0 202.5 50t141 143.5t88.5 192.5t55 230l143 811h216l-160 -915q-59 -338 -241.5 -523.5t-477.5 -185.5q-246 0 -368 129t-122 367zM772 1833l16 92l422 217l-28 -164z" />
<glyph unicode="&#xdb;" horiz-adv-x="1517" d="M147 463q0 100 21 213l162 915h215l-144 -811q-27 -154 -26 -260q0 -356 295 -356q117 0 202.5 50t141 143.5t88.5 192.5t55 230l143 811h216l-160 -915q-59 -338 -241.5 -523.5t-477.5 -185.5q-246 0 -368 129t-122 367zM666 1847l14 82l344 242l258 -242l-14 -82 l-269 187z" />
<glyph unicode="&#xdc;" horiz-adv-x="1517" d="M147 463q0 100 21 213l162 915h215l-144 -811q-27 -154 -26 -260q0 -356 295 -356q117 0 202.5 50t141 143.5t88.5 192.5t55 230l143 811h216l-160 -915q-59 -338 -241.5 -523.5t-477.5 -185.5q-246 0 -368 129t-122 367zM711 1841l41 227h159l-39 -227h-161zM1057 1841 l41 227h162l-41 -227h-162z" />
<glyph unicode="&#xdd;" horiz-adv-x="1241" d="M178 1591h228l258 -661l481 661h227l-635 -856l-131 -735h-221l129 735zM643 1833l16 92l420 217l-26 -164z" />
<glyph unicode="&#xde;" horiz-adv-x="1191" d="M63 0l281 1591h221l-53 -317h125q295 0 425 -60.5t130 -238.5q0 -274 -159 -390t-539 -116h-125l-82 -469h-224zM391 594h195q205 0 295 88t90 256q0 111 -68.5 158t-218.5 47h-195z" />
<glyph unicode="&#xdf;" horiz-adv-x="1159" d="M14 -309l230 1306h-148l41 140h131l27 153q33 180 178 297t297 117q127 0 229.5 -86t102.5 -242q0 -111 -46 -209t-102 -153l-104 -105q-45 -49 -45 -69.5t39 -65.5t86 -93t86 -131t39 -173q0 -197 -155 -304.5t-368 -107.5q-20 0 -38.5 1t-38 4t-29.5 3l23 136 q211 6 309 60t98 202q0 96 -60.5 184t-122 155.5t-61.5 108.5q0 33 48.5 85t106.5 104.5t107.5 145.5t49.5 202q0 104 -52.5 152t-128.5 48q-94 0 -159.5 -72.5t-85.5 -180.5l-285 -1612h-199z" />
<glyph unicode="&#xe0;" horiz-adv-x="1226" d="M47 446q0 270 170 480.5t418 210.5q186 0 258 -142l43 119h182l-133 -788q-10 -49 -10 -90q0 -53 24.5 -74t81.5 -21l-55 -164q-59 0 -92 3.5t-72 18.5t-61.5 50t-34.5 92q-66 -78 -160 -121t-188 -43q-166 0 -268.5 133t-102.5 336zM262 467q0 -137 55.5 -222t169.5 -85 q139 0 248 126t109 343q0 164 -63.5 244.5t-168.5 80.5q-150 0 -250 -145t-100 -342zM649 1501l31 164l344 -217l-16 -92z" />
<glyph unicode="&#xe1;" horiz-adv-x="1226" d="M47 446q0 270 170 480.5t418 210.5q186 0 258 -142l43 119h182l-133 -788q-10 -49 -10 -90q0 -53 24.5 -74t81.5 -21l-55 -164q-59 0 -92 3.5t-72 18.5t-61.5 50t-34.5 92q-66 -78 -160 -121t-188 -43q-166 0 -268.5 133t-102.5 336zM262 467q0 -137 55.5 -222t169.5 -85 q139 0 248 126t109 343q0 164 -63.5 244.5t-168.5 80.5q-150 0 -250 -145t-100 -342zM625 1356l16 92l420 217l-27 -164z" />
<glyph unicode="&#xe2;" horiz-adv-x="1226" d="M47 446q0 270 170 480.5t418 210.5q186 0 258 -142l43 119h182l-133 -788q-10 -49 -10 -90q0 -53 24.5 -74t81.5 -21l-55 -164q-59 0 -92 3.5t-72 18.5t-61.5 50t-34.5 92q-66 -78 -160 -121t-188 -43q-166 0 -268.5 133t-102.5 336zM262 467q0 -137 55.5 -222t169.5 -85 q139 0 248 126t109 343q0 164 -63.5 244.5t-168.5 80.5q-150 0 -250 -145t-100 -342zM518 1370l14 82l342 242l261 -242l-15 -82l-268 186z" />
<glyph unicode="&#xe3;" horiz-adv-x="1226" d="M47 446q0 270 170 480.5t418 210.5q186 0 258 -142l43 119h182l-133 -788q-10 -49 -10 -90q0 -53 24.5 -74t81.5 -21l-55 -164q-59 0 -92 3.5t-72 18.5t-61.5 50t-34.5 92q-66 -78 -160 -121t-188 -43q-166 0 -268.5 133t-102.5 336zM262 467q0 -137 55.5 -222t169.5 -85 q139 0 248 126t109 343q0 164 -63.5 244.5t-168.5 80.5q-150 0 -250 -145t-100 -342zM451 1386q37 102 111.5 153.5t148.5 51.5q51 0 135 -55t119 -55q88 0 153 114l94 -20q-39 -100 -109.5 -156.5t-154.5 -56.5q-47 0 -132 58.5t-116 58.5q-98 0 -149 -113z" />
<glyph unicode="&#xe4;" horiz-adv-x="1226" d="M47 446q0 270 170 480.5t418 210.5q186 0 258 -142l43 119h182l-133 -788q-10 -49 -10 -90q0 -53 24.5 -74t81.5 -21l-55 -164q-59 0 -92 3.5t-72 18.5t-61.5 50t-34.5 92q-66 -78 -160 -121t-188 -43q-166 0 -268.5 133t-102.5 336zM262 467q0 -137 55.5 -222t169.5 -85 q139 0 248 126t109 343q0 164 -63.5 244.5t-168.5 80.5q-150 0 -250 -145t-100 -342zM563 1364l41 227h160l-39 -227h-162zM909 1364l41 227h162l-41 -227h-162z" />
<glyph unicode="&#xe5;" horiz-adv-x="1226" d="M47 446q0 270 170 480.5t418 210.5q186 0 258 -142l43 119h182l-133 -788q-10 -49 -10 -90q0 -53 24.5 -74t81.5 -21l-55 -164q-59 0 -92 3.5t-72 18.5t-61.5 50t-34.5 92q-66 -78 -160 -121t-188 -43q-166 0 -268.5 133t-102.5 336zM262 467q0 -137 55.5 -222t169.5 -85 q139 0 248 126t109 343q0 164 -63.5 244.5t-168.5 80.5q-150 0 -250 -145t-100 -342zM627 1481q0 92 71.5 163.5t182.5 71.5q86 0 132 -50t46 -122q0 -94 -68.5 -164.5t-181.5 -70.5q-86 0 -134 50t-48 122zM729 1485q0 -51 26.5 -80t65.5 -29q53 0 95 45t42 115 q0 49 -25.5 80t-64.5 31q-55 0 -97 -46t-42 -116z" />
<glyph unicode="&#xe6;" horiz-adv-x="1654" d="M-18 211q0 139 68.5 238.5t183 148.5t217 70.5t217.5 29.5q0 143 -36 199.5t-143 56.5q-115 0 -270 -65l8 160q190 88 353 88q109 0 189.5 -59.5t80.5 -213.5q61 143 174 208t250 65q152 0 237.5 -93.5t85.5 -263.5q0 -94 -43 -223h-673q-10 -78 -11 -106q0 -150 71 -230 t189 -80q123 0 302 84v-157q-186 -90 -353 -91q-309 0 -364 256q-160 -266 -463 -266q-133 0 -201.5 65.5t-68.5 178.5zM201 254q0 -113 127 -113q104 0 196 76t119 234q14 94 16 106q-104 0 -203.5 -27.5t-177 -99.5t-77.5 -176zM918 698h481q8 45 8 93q-2 164 -174 163 q-219 0 -315 -256z" />
<glyph unicode="&#xe7;" horiz-adv-x="948" d="M53 453q0 285 166 484.5t461 199.5q184 0 283 -66l-60 -184q-119 68 -246 67q-188 0 -290.5 -136t-102.5 -345q0 -315 256 -315q127 0 268 67l-6 -164q-133 -84 -305 -84q-217 0 -320.5 131.5t-103.5 344.5zM201 -436l192 299l162 14l-242 -303z" />
<glyph unicode="&#xe8;" horiz-adv-x="1040" d="M47 459q0 272 172 475t436 203q158 0 245 -77t87 -208q0 -150 -123 -262.5t-395 -112.5q-117 0 -201 19q0 -186 76 -261t213 -75q166 0 307 65l-10 -162q-188 -86 -352 -86q-221 0 -338 134.5t-117 347.5zM291 639q16 -2 37.5 -9t49.5 -10.5t73 -3.5q184 0 266 63.5 t82 147.5q0 63 -46 95t-118 32q-233 0 -344 -315zM496 1501l28 164l344 -217l-16 -92z" />
<glyph unicode="&#xe9;" horiz-adv-x="1040" d="M47 459q0 272 172 475t436 203q158 0 245 -77t87 -208q0 -150 -123 -262.5t-395 -112.5q-117 0 -201 19q0 -186 76 -261t213 -75q166 0 307 65l-10 -162q-188 -86 -352 -86q-221 0 -338 134.5t-117 347.5zM291 639q16 -2 37.5 -9t49.5 -10.5t73 -3.5q184 0 266 63.5 t82 147.5q0 63 -46 95t-118 32q-233 0 -344 -315zM471 1356l16 92l420 217l-26 -164z" />
<glyph unicode="&#xea;" horiz-adv-x="1040" d="M47 459q0 272 172 475t436 203q158 0 245 -77t87 -208q0 -150 -123 -262.5t-395 -112.5q-117 0 -201 19q0 -186 76 -261t213 -75q166 0 307 65l-10 -162q-188 -86 -352 -86q-221 0 -338 134.5t-117 347.5zM291 639q16 -2 37.5 -9t49.5 -10.5t73 -3.5q184 0 266 63.5 t82 147.5q0 63 -46 95t-118 32q-233 0 -344 -315zM360 1370l15 82l344 242l258 -242l-12 -82l-269 186z" />
<glyph unicode="&#xeb;" horiz-adv-x="1040" d="M47 459q0 272 172 475t436 203q158 0 245 -77t87 -208q0 -150 -123 -262.5t-395 -112.5q-117 0 -201 19q0 -186 76 -261t213 -75q166 0 307 65l-10 -162q-188 -86 -352 -86q-221 0 -338 134.5t-117 347.5zM291 639q16 -2 37.5 -9t49.5 -10.5t73 -3.5q184 0 266 63.5 t82 147.5q0 63 -46 95t-118 32q-233 0 -344 -315zM408 1364l41 227h157l-37 -227h-161zM752 1364l41 227h161l-41 -227h-161z" />
<glyph unicode="&#xec;" horiz-adv-x="485" d="M23 0l196 1114h207l-197 -1114h-206zM201 1501l28 164l344 -217l-16 -92z" />
<glyph unicode="&#xed;" horiz-adv-x="485" d="M23 0l196 1114h207l-197 -1114h-206zM172 1356l16 92l420 217l-26 -164z" />
<glyph unicode="&#xee;" horiz-adv-x="485" d="M23 0l196 1114h207l-197 -1114h-206zM66 1370l14 82l342 242l260 -242l-14 -82l-269 186z" />
<glyph unicode="&#xef;" horiz-adv-x="485" d="M23 0l196 1114h207l-197 -1114h-206zM111 1364l41 227h159l-39 -227h-161zM457 1364l41 227h161l-41 -227h-161z" />
<glyph unicode="&#xf0;" horiz-adv-x="1105" d="M23 377q0 131 60 263t186 230.5t286 98.5q152 0 240 -125q0 328 -88 430q-164 -121 -310 -141l-45 124q137 20 277 119q-96 121 -223 121l88 96q150 0 282 -125q100 96 142 146l102 -27q-55 -70 -174 -190q78 -98 120 -268.5t42 -350.5q0 -184 -40 -329.5t-102.5 -233.5 t-145.5 -144.5t-161 -77t-158 -20.5q-170 0 -274 114t-104 290zM244 412q0 -109 51 -179.5t145 -70.5q121 0 211 111.5t90 267.5q0 109 -50 174t-140 65q-133 0 -220 -111.5t-87 -256.5z" />
<glyph unicode="&#xf1;" horiz-adv-x="1169" d="M23 0l196 1114h174l-6 -119q145 141 332 142q332 0 332 -357q0 -82 -125 -780h-207q123 694 123 752q0 104 -47 153t-146 49q-180 0 -276 -145l-144 -809h-206zM350 1386q37 102 112 153.5t150 51.5q49 0 133 -55t119 -55q88 0 154 114l94 -20q-39 -100 -109.5 -156.5 t-154.5 -56.5q-47 0 -131 58.5t-117 58.5q-98 0 -149 -113z" />
<glyph unicode="&#xf2;" d="M47 449q0 281 175 484.5t437 203.5q205 0 312.5 -132.5t107.5 -340.5q0 -279 -175 -483t-435 -204q-205 0 -313.5 131.5t-108.5 340.5zM260 467q0 -307 238 -307q166 0 268 139t102 348q0 307 -239 307q-166 0 -267.5 -139t-101.5 -348zM539 1501l30 164l342 -217 l-16 -92z" />
<glyph unicode="&#xf3;" d="M47 449q0 281 175 484.5t437 203.5q205 0 312.5 -132.5t107.5 -340.5q0 -279 -175 -483t-435 -204q-205 0 -313.5 131.5t-108.5 340.5zM260 467q0 -307 238 -307q166 0 268 139t102 348q0 307 -239 307q-166 0 -267.5 -139t-101.5 -348zM512 1356l16 92l420 217l-26 -164 z" />
<glyph unicode="&#xf4;" d="M47 449q0 281 175 484.5t437 203.5q205 0 312.5 -132.5t107.5 -340.5q0 -279 -175 -483t-435 -204q-205 0 -313.5 131.5t-108.5 340.5zM260 467q0 -307 238 -307q166 0 268 139t102 348q0 307 -239 307q-166 0 -267.5 -139t-101.5 -348zM408 1370l12 82l344 242l260 -242 l-14 -82l-269 186z" />
<glyph unicode="&#xf5;" d="M47 449q0 281 175 484.5t437 203.5q205 0 312.5 -132.5t107.5 -340.5q0 -279 -175 -483t-435 -204q-205 0 -313.5 131.5t-108.5 340.5zM260 467q0 -307 238 -307q166 0 268 139t102 348q0 307 -239 307q-166 0 -267.5 -139t-101.5 -348zM346 1386q35 102 110.5 153.5 t149.5 51.5q51 0 135 -55t119 -55q88 0 154 114l94 -20q-39 -100 -109.5 -156.5t-154.5 -56.5q-49 0 -133 58.5t-115 58.5q-98 0 -150 -113z" />
<glyph unicode="&#xf6;" d="M47 449q0 281 175 484.5t437 203.5q205 0 312.5 -132.5t107.5 -340.5q0 -279 -175 -483t-435 -204q-205 0 -313.5 131.5t-108.5 340.5zM260 467q0 -307 238 -307q166 0 268 139t102 348q0 307 -239 307q-166 0 -267.5 -139t-101.5 -348zM453 1364l41 227h159l-39 -227 h-161zM799 1364l41 227h159l-41 -227h-159z" />
<glyph unicode="&#xf7;" horiz-adv-x="1249" d="M131 557l31 168h940l-29 -168h-942zM399 45l39 215h205l-37 -215h-207zM569 999l37 215h205l-35 -215h-207z" />
<glyph unicode="&#xf8;" horiz-adv-x="1196" d="M53 459q0 279 179.5 485.5t451.5 206.5q76 0 156 -29l53 92h174l-98 -151q143 -150 143 -393q0 -279 -178 -483.5t-455 -204.5q-78 0 -162 24l-51 -86h-168l92 150q-137 141 -137 389zM270 469q0 -117 33 -242l436 748q-59 16 -84 16q-166 0 -275.5 -155.5t-109.5 -366.5 zM418 154q63 -12 92 -13q170 0 277.5 163t107.5 401q0 158 -35 200z" />
<glyph unicode="&#xf9;" horiz-adv-x="1122" d="M78 305q0 74 129 809h207q-121 -686 -121 -745q0 -209 178 -209q147 0 238 127l145 827h207l-195 -1114h-188l6 123q-63 -76 -132 -111t-165 -35q-309 0 -309 328zM539 1501l30 164l342 -217l-16 -92z" />
<glyph unicode="&#xfa;" horiz-adv-x="1122" d="M78 305q0 74 129 809h207q-121 -686 -121 -745q0 -209 178 -209q147 0 238 127l145 827h207l-195 -1114h-188l6 123q-63 -76 -132 -111t-165 -35q-309 0 -309 328zM514 1356l16 92l420 217l-26 -164z" />
<glyph unicode="&#xfb;" horiz-adv-x="1122" d="M78 305q0 74 129 809h207q-121 -686 -121 -745q0 -209 178 -209q147 0 238 127l145 827h207l-195 -1114h-188l6 123q-63 -76 -132 -111t-165 -35q-309 0 -309 328zM408 1370l12 82l344 242l260 -242l-14 -82l-269 186z" />
<glyph unicode="&#xfc;" horiz-adv-x="1122" d="M78 305q0 74 129 809h207q-121 -686 -121 -745q0 -209 178 -209q147 0 238 127l145 827h207l-195 -1114h-188l6 123q-63 -76 -132 -111t-165 -35q-309 0 -309 328zM455 1364l41 227h159l-39 -227h-161zM801 1364l41 227h162l-41 -227h-162z" />
<glyph unicode="&#xfd;" horiz-adv-x="1042" d="M-29 -551l336 600l-233 1065h229l152 -827l422 827h231l-918 -1665h-219zM440 1356l17 92l420 217l-27 -164z" />
<glyph unicode="&#xfe;" horiz-adv-x="1216" d="M-76 -549l400 2253h206l-124 -709q139 141 319 142q193 0 299 -133.5t106 -335.5q0 -276 -173 -483.5t-445 -207.5q-186 0 -262 150l-119 -676h-207zM301 443.5q0 -136.5 54.5 -219.5t168.5 -83q178 0 286 148.5t108 359.5q0 141 -65 223t-185 82q-127 0 -212 -76.5 t-120 -187t-35 -247z" />
<glyph unicode="&#xff;" horiz-adv-x="1042" d="M-29 -551l336 600l-233 1065h229l152 -827l422 827h231l-918 -1665h-219zM377 1364l41 227h160l-39 -227h-162zM723 1364l41 227h162l-41 -227h-162z" />
<glyph unicode="&#x152;" horiz-adv-x="2215" d="M106 629q0 432 251 713.5t612 281.5q254 0 440 -221l35 186h835l-32 -192h-627l-82 -467h481l-34 -195h-480l-96 -540h643l-33 -195h-856l33 188q-266 -221 -520 -221q-260 0 -415 180.5t-155 481.5zM338 643q0 -215 93 -347t278 -132q274 0 434 230.5t160 553.5 q0 215 -94.5 347t-276.5 132q-272 0 -433 -230t-161 -554z" />
<glyph unicode="&#x153;" horiz-adv-x="1867" d="M49 455q0 285 174 483.5t453 198.5q125 0 221 -59.5t129 -172.5q76 113 188.5 172.5t227.5 59.5q168 0 268 -100.5t100 -274.5q0 -45 -5 -83t-9 -54l-16 -39q-8 -23 -11 -29h-690q-10 -76 -10 -123q0 -166 75 -229.5t179 -63.5q168 0 332 84l-15 -176q-154 -72 -333 -72 q-332 0 -398 244q-70 -117 -189.5 -180.5t-252.5 -63.5q-199 0 -308.5 134.5t-109.5 343.5zM260 455q0 -141 62.5 -218t179.5 -77q174 0 274.5 146.5t100.5 348.5q0 135 -59.5 217t-174.5 82q-180 0 -281.5 -138t-101.5 -361zM1110 698h483q4 41 4 58q0 94 -47 146t-141 52 q-211 0 -299 -256z" />
<glyph unicode="&#x178;" horiz-adv-x="1241" d="M178 1591h228l258 -661l481 661h227l-635 -856l-131 -735h-221l129 735zM584 1841l41 227h159l-39 -227h-161zM930 1841l41 227h162l-41 -227h-162z" />
<glyph unicode="&#x2c6;" horiz-adv-x="913" d="M397 1370l15 82l344 242l258 -242l-15 -82l-268 186z" />
<glyph unicode="&#x2dc;" horiz-adv-x="1081" d="M422 1386q37 102 111.5 153.5t150.5 51.5q51 0 135 -55t117 -55q90 0 156 114l92 -20q-39 -100 -108.5 -156.5t-153.5 -56.5q-49 0 -133 58.5t-115 58.5q-98 0 -152 -113z" />
<glyph unicode="&#x2013;" horiz-adv-x="1058" d="M109 541l34 196h793l-33 -196h-794z" />
<glyph unicode="&#x2014;" horiz-adv-x="1247" d="M109 541l34 196h981l-32 -196h-983z" />
<glyph unicode="&#x2018;" horiz-adv-x="421" d="M205 1262l35 196l215 246l45 -29l-107 -196l66 -21l-33 -196h-221z" />
<glyph unicode="&#x2019;" horiz-adv-x="382" d="M205 1290l104 199l-63 20l35 195h219l-37 -195l-215 -247z" />
<glyph unicode="&#x201a;" horiz-adv-x="487" d="M-23 -219l105 199l-64 20l35 195h219l-36 -195l-216 -248z" />
<glyph unicode="&#x201c;" horiz-adv-x="851" d="M205 1262l35 196l215 246l45 -29l-107 -196l66 -21l-33 -196h-221zM635 1262l33 196l217 246l45 -29l-107 -196l66 -21l-35 -196h-219z" />
<glyph unicode="&#x201d;" horiz-adv-x="813" d="M205 1290l104 199l-63 20l35 195h219l-37 -195l-215 -247zM635 1290l104 199l-63 20l33 195h221l-37 -195l-215 -247z" />
<glyph unicode="&#x201e;" horiz-adv-x="958" d="M-23 -219l105 199l-64 20l35 195h219l-36 -195l-216 -248zM449 -219l104 199l-64 20l33 195h221l-36 -195l-215 -248z" />
<glyph unicode="&#x2022;" horiz-adv-x="651" d="M90 594q0 113 83 200t187 87q80 0 132.5 -60.5t52.5 -150.5q0 -113 -83 -199t-188 -86q-80 0 -132 59.5t-52 149.5z" />
<glyph unicode="&#x2026;" horiz-adv-x="1437" d="M16 0l33 195h207l-33 -195h-207zM498 0l37 195h204l-34 -195h-207zM983 0l33 195h207l-33 -195h-207z" />
<glyph unicode="&#x2039;" horiz-adv-x="700" d="M39 645l401 469h248l-401 -469l237 -467h-248z" />
<glyph unicode="&#x203a;" horiz-adv-x="704" d="M6 178l404 467l-238 469h248l237 -469l-403 -467h-248z" />
<glyph unicode="&#x20ac;" horiz-adv-x="1462" d="M45 489l80 156h201q4 63 18 150l8 55h-182l76 145h151q102 262 299 409.5t432 147.5q209 0 351 -77l-68 -222q-168 86 -321 86q-291 0 -443 -344h524l-77 -145h-494l-8 -55q-16 -80 -19 -150h496l-80 -156h-395q68 -238 303 -237q154 0 352 86l-12 -221 q-164 -78 -377 -78q-207 0 -346 117.5t-178 332.5h-291z" />
<glyph unicode="&#x2122;" horiz-adv-x="1523" d="M213 1479l20 112h545l-35 -112h-200l-127 -713h-123l125 713h-205zM649 766l244 825h74l133 -407l276 407h74l-47 -825h-129l47 610l-246 -368h-16l-111 370l-172 -612h-127z" />
<glyph unicode="&#xe000;" horiz-adv-x="1115" d="M0 1115h1115v-1115h-1115v1115z" />
<glyph unicode="&#xfb01;" horiz-adv-x="1173" d="M711 0l196 1114h207l-197 -1114h-206zM952 1364l39 227h207l-39 -227h-207zM78 0l168 954h-164l49 160h141l52 283q53 307 329 307q92 0 172 -29l-57 -172q-51 20 -111 21q-70 0 -95 -49.5t-58 -225.5l-25 -135h258l-30 -160h-254l-168 -954h-207z" />
<glyph unicode="&#xfb02;" horiz-adv-x="1220" d="M743 186q0 37 260 1518h207q-252 -1434 -252 -1473q0 -53 28 -71.5t99 -18.5l-53 -164h-72q-113 0 -165 58.5t-52 150.5zM78 0l168 954h-164l49 160h141l52 283q53 307 329 307q92 0 172 -29l-57 -172q-51 20 -111 21q-70 0 -95 -49.5t-58 -225.5l-25 -135h258l-30 -160 h-254l-168 -954h-207z" />
<glyph unicode="&#xfb03;" horiz-adv-x="1863" d="M1401 0l196 1114h207l-197 -1114h-206zM1642 1364l39 227h207l-39 -227h-207zM766 0l168 954h-164l49 160h141l52 283q53 307 329 307q92 0 172 -29l-57 -172q-51 20 -111 21q-70 0 -95 -49.5t-58 -225.5l-25 -135h258l-30 -160h-254l-168 -954h-207zM78 0l168 954h-164 l49 160h141l52 283q53 307 329 307q92 0 172 -29l-57 -172q-51 20 -111 21q-70 0 -95 -49.5t-58 -225.5l-25 -135h258l-30 -160h-254l-168 -954h-207z" />
<glyph unicode="&#xfb04;" horiz-adv-x="1908" d="M1433 186q0 37 260 1518h207q-252 -1434 -252 -1473q0 -53 28 -71.5t99 -18.5l-53 -164h-72q-113 0 -165 58.5t-52 150.5zM766 0l168 954h-164l49 160h141l52 283q53 307 329 307q92 0 172 -29l-57 -172q-51 20 -111 21q-70 0 -95 -49.5t-58 -225.5l-25 -135h258 l-30 -160h-254l-168 -954h-207zM78 0l168 954h-164l49 160h141l52 283q53 307 329 307q92 0 172 -29l-57 -172q-51 20 -111 21q-70 0 -95 -49.5t-58 -225.5l-25 -135h258l-30 -160h-254l-168 -954h-207z" />
</font>
</defs>
</svg>
