<?xml version="1.0" standalone="no"?>
<!DOCTYPE svg PUBLIC "-//W3C//DTD SVG 1.1//EN" "http://www.w3.org/Graphics/SVG/1.1/DTD/svg11.dtd" >
<svg xmlns="http://www.w3.org/2000/svg">
<metadata>
This is a custom SVG webfont generated by Font Squirrel.
Copyright   : Copyright c 2008 2009 2010 Accademia di Belle Arti di Urbino Licensed under the SIL Open Font License Version 11
Designer    : Paolo Mazzetti Luciano Perondi Raffaele Flato Elena Papassissa Emilio Macchia Michela Povoleri Tobias Seemiller Riccardo Lorusso Sabrina Campagna Elisa Ansuini Mariangela Di Pinto Antonio Cavedoni Marco Comastri Luna Castroni Stefano Faoro Daniele Capo Jan Henrik Arnold
</metadata>
<defs>
<font id="LektonItalic" horiz-adv-x="1167" >
<font-face units-per-em="2048" ascent="1536" descent="-512" />
<missing-glyph horiz-adv-x="500" />
<glyph unicode=" " />
<glyph unicode="!" d="M334 -14l31 200h159l-28 -200h-162zM428 438l174 1168h150l-217 -1168h-107z" />
<glyph unicode="&#x22;" d="M311 1081l70 506h117l-70 -506h-117zM666 1081l69 506h117l-70 -506h-116z" />
<glyph unicode="#" d="M-100 449l16 102h322l122 471h-323l16 100h332l109 408h120l-108 -408h340l104 408h121l-104 -408h307l-17 -100h-319l-121 -471h318l-17 -102h-330l-118 -449h-123l121 449h-336l-121 -449h-123l123 449h-311zM360 551h336l121 471h-336z" />
<glyph unicode="$" d="M68 49l43 117q207 -68 348 -68t241.5 83t117 225.5t-43 201t-253 109.5t-271.5 140t-56.5 260t133 267.5t267.5 112.5l24 195h113l-24 -193q174 -8 342 -72l-45 -116q-184 72 -342 71q-305 0 -334 -258q-14 -125 44 -188.5t249.5 -112.5t270.5 -141t57.5 -273.5 t-142.5 -295t-295 -129.5l-25 -199h-110l24 197q-147 8 -333 67z" />
<glyph unicode="%" d="M45 1208q0 129 93 225.5t222 96.5t196 -72t67 -204t-91.5 -228t-220.5 -96t-197.5 74.5t-68.5 203.5zM100 0l832 1552h131l-832 -1552h-131zM166 1214q0 -86 37 -135t118.5 -49t133 62.5t51.5 162.5q0 176 -146 177q-88 0 -141 -66t-53 -152zM541 280q0 130 93 225 t222 95t196.5 -71.5t67.5 -202.5t-92 -228.5t-221 -97.5t-197.5 75t-68.5 205zM662 285q0 -86 36.5 -135.5t118.5 -49.5t133 63.5t51 164.5q0 174 -145 174q-88 0 -141 -65.5t-53 -151.5z" />
<glyph unicode="&#x26;" d="M33 461q29 330 387 475q-90 188 -74 313q8 125 108.5 215t228.5 90t211 -90t69.5 -225t-93 -219t-272.5 -166l242 -483q104 180 194 481l105 -18q-84 -315 -234 -562l152 -245l-92 -76q-94 131 -144 227q-188 -201 -394 -201t-311.5 127.5t-82.5 356.5zM156 461 q-18 -174 55.5 -273.5t222.5 -99.5q82 0 173 50t159 130l-301 578q-284 -119 -309 -385zM469 1249q-8 -80 11.5 -144.5t72.5 -156.5q143 55 208.5 124t76 163t-37.5 151.5t-125 57.5t-137.5 -57.5t-68.5 -137.5z" />
<glyph unicode="'" d="M483 1081l70 506h117l-70 -506h-117z" />
<glyph unicode="(" d="M429 743.5q42 350.5 162 609.5t308 505l96 -62q-176 -229 -284 -473q-113 -244 -153 -580.5t15.5 -579.5t176.5 -470l-113 -66q-133 250 -188 508q-62 258 -20 608.5z" />
<glyph unicode=")" d="M170 -299q170 221 281.5 467t152.5 584q39 338 -15 581.5t-173 470.5l108 64q131 -244 188.5 -505t15.5 -611.5t-158.5 -610.5t-303.5 -506z" />
<glyph unicode="*" d="M178 1180l10 104h328l-61 328l102 35l61 -332l287 203l49 -84l-288 -205l241 -199l-71 -92l-240 207l-141 -328l-93 37l140 326h-324z" />
<glyph unicode="+" d="M78 606l20 109h432l76 463h113l-74 -463h442l-22 -109h-436l-78 -463h-115l76 463h-434z" />
<glyph unicode="," d="M356 -279q123 152 146 279h-88l35 262h213l-27 -192q-25 -205 -223 -404z" />
<glyph unicode="-" d="M221 498l23 120h667l-22 -120h-668z" />
<glyph unicode="." d="M397 0l33 262h209l-33 -262h-209z" />
<glyph unicode="/" d="M-33 -45l1118 1702l101 -51l-1125 -1702z" />
<glyph unicode="0" d="M142.5 749.5q68.5 419.5 197.5 587.5t366.5 171t314.5 -179t10.5 -600t-199 -588t-368 -170t-313 179.5t-9 599zM263 250.5q44 -150.5 216 -150.5t264.5 142.5t147.5 494.5q61 336 17 489.5t-219 153.5t-265 -147.5t-147.5 -489.5t-13.5 -492.5z" />
<glyph unicode="1" d="M115 0l18 117h377l201 1229l-400 -179l-26 113l463 203h116l-225 -1366h313l-18 -117h-819z" />
<glyph unicode="2" d="M119 0v115q59 119 157 229q102 109 201 188l191 164q219 190 254 375q27 141 -36 225t-189 84t-361 -151l-47 92q252 180 429 180t268 -113.5t60.5 -315.5t-174 -350.5t-278.5 -252.5q-242 -186 -326 -340h684l-20 -129h-813z" />
<glyph unicode="3" d="M29 70l53 110q199 -82 377 -82t286.5 76t134 233.5t-44 232.5t-237.5 75l-260 -29v109l174 24q399 59 426 303q14 133 -62.5 197.5t-209.5 64.5q-125 0 -273 -51l-47 -16l-35 104q463 170 666 -6q111 -98 92 -282q-16 -135 -81.5 -211t-201.5 -127v-7q135 -23 192.5 -122 t33.5 -256q-72 -432 -555 -433q-195 1 -428 93z" />
<glyph unicode="4" d="M113 297v109l534 1075h125l-522 -1063h465l80 489h123l-80 -489h192l-18 -121h-195l-53 -320h-121l51 320h-581z" />
<glyph unicode="5" d="M63 74l58 121q197 -96 352.5 -96.5t256.5 106t124 274.5t-44 256t-212 88t-317 -135l-84 27l125 766h747l-22 -125h-627l-82 -510q150 100 289 100q201 0 294 -123t61 -348t-170 -361.5t-359 -136.5q-171 1 -390 97z" />
<glyph unicode="6" d="M111 485q68 406 261 638.5t607 396.5l20 -117q-317 -147 -458.5 -274.5t-223.5 -317.5q162 133 336 133q229 0 331.5 -121t59.5 -344q-100 -502 -571 -502q-205 0 -303 133t-59 375zM238 485q-70 -387 278 -387q162 0 263.5 100.5t127.5 280.5q57 342 -272 342 q-141 0 -254.5 -88t-142.5 -248z" />
<glyph unicode="7" d="M186 1235l74 246h821q-8 -96 -47 -213q-45 -115 -147 -281l-197 -301q-92 -135 -175 -322.5t-103 -363.5h-140q18 168 90 344q68 174 156 318l176 268q209 309 228 428h-574l-49 -133z" />
<glyph unicode="8" d="M55 387q49 276 312 369q-195 115 -154 358q27 176 157 281.5t344 105.5t309 -110.5t67 -288.5q-43 -250 -277 -340q233 -94 184 -385q-33 -190 -171 -295t-366.5 -105t-333 111t-71.5 299zM192.5 393.5q-24.5 -141.5 49 -218.5t237.5 -77t265.5 77t126 218.5t-49 223 t-237.5 81.5t-265.5 -81.5t-126 -223zM334.5 1104q-21.5 -127 42 -208t222.5 -81t248 78t114 209q20 131 -44.5 204.5t-221 73.5t-248 -74.5t-113 -201.5z" />
<glyph unicode="9" d="M194.5 1017q34.5 218 180 351t358.5 133t312.5 -128t63.5 -349t-128 -405.5t-212 -326.5t-320 -331l-152 25q266 248 385 391t197 311q-78 -66 -144.5 -98.5t-156.5 -32.5q-217 0 -317.5 121t-66 339zM327.5 1017q-26.5 -167 37 -252t216 -85t260 95t130.5 241 q57 365 -260 364q-154 0 -255.5 -98t-128 -265z" />
<glyph unicode=":" d="M373 0l30 238h203l-28 -238h-205zM467 707l31 239h202l-30 -239h-203z" />
<glyph unicode=";" d="M328 -279q119 152 143 279h-82l33 238h207l-25 -168q-31 -209 -223 -404zM485 707l31 239h205l-33 -239h-203z" />
<glyph unicode="&#x3c;" d="M113 645l8 74l913 549l49 -97l-833 -489l696 -514l-69 -96z" />
<glyph unicode="=" d="M61 381l17 102h993l-16 -102h-994zM115 772l16 105h993l-14 -105h-995z" />
<glyph unicode="&#x3e;" d="M104 190l830 492l-694 514l73 94l760 -571l-8 -74l-913 -549z" />
<glyph unicode="?" d="M201 1407q137 104 235.5 152.5t206.5 48.5q160 0 257 -92.5t77 -258.5q-14 -135 -66 -217q-51 -84 -182 -200.5t-166 -167.5t-44 -130t-13 -153l-117 -4q-6 51 0 170q14 102 60 168q47 63 177 180t170 182.5t54 171t-48.5 168t-162.5 62.5t-183 -43t-200 -131zM317 0 l29 217h186l-26 -217h-189z" />
<glyph unicode="@" d="M123 483.5q55 362.5 219 552t420 189.5q109 0 193.5 -21.5t115.5 -46.5l31 -20l-154 -1010q-141 -63 -325 -64q-289 0 -220 441q78 403 351 403q117 0 182 -24l25 -11l-29 -116q-53 33 -193 32q-174 0 -209 -284q-33 -135 -7 -228.5t134 -93.5q86 0 156 15l27 6l129 854 q-45 47 -229.5 47t-312.5 -161t-174 -463t43 -457.5t233.5 -155.5t342.5 63l13 -118q-197 -66 -373 -66q-225 0 -334.5 187.5t-54.5 550z" />
<glyph unicode="A" d="M-70 0l684 1530h224l176 -1530h-137l-41 352h-619l-154 -352h-133zM268 469h553l-100 950h-33z" />
<glyph unicode="B" d="M74 0l250 1530h307q272 0 390 -90q91 -70 91 -215q0 -43 -8 -92q-20 -137 -89 -221.5t-202 -127.5q246 -60 246 -302q0 -22 -2 -46q-20 -246 -175 -341t-438 -95h-370zM215 117h250q205 0 320.5 69.5t141.5 238.5q5 35 5 65q0 117 -78 168q-98 65 -272 65h-267zM332 838 h266q158 0 256 77q102 74 126 224q5 31 5 57q0 105 -73 155q-91 62 -289 62h-195z" />
<glyph unicode="C" d="M121 780q66 397 217 584.5t416 187.5q176 0 342 -57l-52 -309h-122l32 209q-88 37 -217 37q-190 0 -306 -159t-175 -493q-24 -160 -24 -281q0 -152 38 -240q70 -159 258 -159q133 0 336 64l8 -119q-195 -66 -368 -65q-254 0 -351 186q-58 111 -59 309q1 133 27 305z" />
<glyph unicode="D" d="M37 0l252 1530h307q340 0 445 -178q67 -113 67 -318q0 -119 -23 -270q-66 -453 -247 -614q-94 -84 -210 -117t-282 -33h-309zM178 117h187q176 0 284 51q221 104 305 596q24 152 24 265q0 162 -48 244q-82 140 -348 140h-193z" />
<glyph unicode="E" d="M119 0l252 1530h751l-18 -117h-631l-94 -579h573l-18 -117h-574l-98 -600h639l-18 -117h-764z" />
<glyph unicode="F" d="M100 0l250 1530h754l-19 -117h-632l-109 -668h541l-19 -116h-542l-103 -629h-121z" />
<glyph unicode="G" d="M119 766q66 416 224.5 601t447.5 185q190 0 387 -73l-54 -121q-201 74 -352 74q-219 0 -337 -156t-178 -510q-28 -163 -28 -285q0 -142 38 -227q69 -154 273 -154h11q137 2 297 54l76 467h-267l23 116h383l-111 -674q-248 -84 -430 -83q-270 0 -369 185q-60 112 -60 307 q0 129 26 294z" />
<glyph unicode="H" d="M31 0l250 1530h120l-116 -713h618l117 713h121l-250 -1530h-121l115 700h-619l-114 -700h-121z" />
<glyph unicode="I" d="M113 0l18 117h248l211 1296h-254l18 117h617l-19 -117h-239l-213 -1296h250l-19 -117h-618z" />
<glyph unicode="J" d="M57 14l39 121q141 -39 244.5 -39t143.5 71t85 343l148 903h-363l19 117h592l-19 -117h-108l-148 -911q-51 -322 -115.5 -423.5t-255.5 -105.5q-39 0 -131 14.5t-131 26.5z" />
<glyph unicode="K" d="M66 0l249 1530h123l-119 -723l191 24q178 238 381 580l72 119h139q-281 -467 -486 -744q51 -104 132 -301l188 -485h-148q-188 516 -284 717l-203 -23l-113 -694h-122z" />
<glyph unicode="L" d="M133 0l248 1530h123l-232 -1413h609l-17 -117h-731z" />
<glyph unicode="M" d="M6 0l256 1530h127l184 -856h15l416 856h157l-254 -1530h-121l203 1245l-344 -688h-158l-151 688l-205 -1245h-125z" />
<glyph unicode="N" d="M0 0l252 1530h119l493 -1075l176 1075h123l-250 -1530h-118l36 240l-495 1063l-213 -1303h-123z" />
<glyph unicode="O" d="M93 366q-1 21 0 42q0 165 34 376q59 371 194.5 569.5t399.5 198.5q180 0 270 -101t94 -272q0 -18 1 -38q0 -156 -30 -339q-34 -206 -75 -341q-43 -137 -113 -250q-139 -233 -417 -234q-174 0 -263.5 105t-94.5 284zM220 394q3 -95 27.5 -156.5t80 -101.5t149.5 -40 t176 56q80 53 131 161q92 186 140 471q33 176 32 305q0 120 -28 199q-25 61 -82.5 103.5t-145.5 42.5t-158.5 -42t-115.5 -101.5t-80 -153t-54.5 -172t-37.5 -188t-28 -198.5q-7 -67 -7 -138q0 -23 1 -47z" />
<glyph unicode="P" d="M45 0l250 1530h323q266 0 376 -107q79 -77 80 -234q0 -60 -12 -133q-42 -261 -188.5 -376t-410.5 -115h-203l-96 -565h-119zM279 682h202q205 0 314 84q106 86 139 289q10 59 9 107q0 118 -56 173q-80 78 -287 78h-203z" />
<glyph unicode="Q" d="M93 366q-1 21 0 42q0 165 34 376q61 371 195.5 569.5t398.5 198.5q180 0 270 -99t94 -269q0 -18 1 -37q0 -158 -31 -363q-76 -457 -250 -649l94 -205l-88 -100l-106 219q-111 -72 -272 -72t-248 105t-92 284zM223 529q-3 -40 -3 -79q0 -69 9 -137q31 -217 240 -217 q96 0 174 51l-104 129l77 121l121 -157q117 156 187 544q33 176 32 305q0 120 -28 199q-25 61 -82.5 103.5t-145.5 42.5t-158.5 -42t-115.5 -101.5t-80 -153t-54.5 -172t-40 -202.5t-28.5 -234z" />
<glyph unicode="R" d="M55 0l248 1530h328q270 0 382 -97q83 -72 82 -227q0 -54 -10 -119q-31 -166 -109.5 -265t-227.5 -160q102 -317 167 -662h-133q-68 334 -164 633q-125 -6 -155 -6h-182l-105 -627h-121zM299 743h174q207 0 328 77t153 269q9 53 9 96q0 113 -61 162q-85 67 -292 66h-200z " />
<glyph unicode="S" d="M88 47l43 117q215 -66 353.5 -66t237.5 81t116 225q4 32 3 61q0 99 -44 151q-57 68 -250 118t-273 148q-63 77 -62 207q0 35 4 74q22 184 155 286.5t323.5 102.5t378.5 -71l-43 -117q-174 70 -328.5 70t-245.5 -70t-107 -200q-3 -27 -3 -51q0 -93 47 -147 q59 -69 251 -124.5t269 -145.5q60 -70 61 -205q0 -39 -5 -84q-23 -200 -164 -313.5t-342 -113.5q-152 -1 -375 67z" />
<glyph unicode="T" d="M215 1413l18 117h887l-16 -117h-387l-232 -1413h-120l231 1413h-381z" />
<glyph unicode="U" d="M98 444l178 1086h121l-176 -1079q-10 -59 -10 -109q0 -252 262 -252q158 0 252 99.5t123 261.5l176 1079h123l-178 -1086q-39 -227 -170 -346t-346 -118.5t-302 123.5q-62 89 -63 225q0 54 10 116z" />
<glyph unicode="V" d="M184 1530h127l160 -1415h18l621 1415h135l-676 -1530h-221z" />
<glyph unicode="W" d="M66 0l65 1530h125l-61 -1413h12l307 747h166l76 -747h14l375 1413h135l-408 -1530h-223l-69 737l-301 -737h-213z" />
<glyph unicode="X" d="M12 0l502 797l-233 733h151l186 -643h13l356 643h158l-457 -764l266 -766h-155l-217 672h-13l-401 -672h-156z" />
<glyph unicode="Y" d="M80 1530h141l248 -735h12l480 735h145l-588 -868l-104 -662h-129l104 662z" />
<glyph unicode="Z" d="M78 0v94l856 1323h-664l17 113h800v-94l-860 -1325h705l-14 -111h-840z" />
<glyph unicode="[" d="M168 -365l362 2216h451l-18 -116h-330l-326 -1983h342l-28 -117h-453z" />
<glyph unicode="\" d="M164 1606l117 51l680 -1702l-115 -51z" />
<glyph unicode="]" d="M164 -365l18 117h334l324 1983h-342l24 116h459l-363 -2216h-454z" />
<glyph unicode="_" d="M27 -299l12 100h1102l-13 -100h-1101z" />
<glyph unicode="`" d="M346 1561l64 112l376 -227l-57 -100z" />
<glyph unicode="a" d="M121 403q0 254 131 476q66 106 175.5 174.5t250.5 68.5q43 0 115.5 -21.5t117.5 -45.5l13 47h125l-142 -846l6 -260l-116 -14l-19 235q-51 -88 -136 -162.5t-161 -74.5q-180 0 -270 111t-90 312zM252 420q0 -137 54 -227.5t173 -90.5q59 0 176 123t158 195l86 514 q-127 66 -219 65q-203 0 -315.5 -178t-112.5 -401z" />
<glyph unicode="b" d="M55 0l256 1552h121l-92 -551q180 121 309 121q201 0 292 -143q68 -107 68 -283q0 -59 -8 -127q-31 -266 -172 -427.5t-350 -161.5q-61 0 -151 21.5t-133 45.5l-15 -47h-125zM205 168q43 -20 136 -44t146 -24q158 0 260.5 130t126.5 336q7 57 7 108q0 130 -45 213 q-63 115 -206 114.5t-311 -133.5z" />
<glyph unicode="c" d="M217 553q84 569 504 569q152 0 291 -49l-56 -325h-120l41 231q-109 25 -172 25q-295 0 -369 -451q-11 -67 -11 -125q0 -120 46 -205q68 -125 229 -125q96 0 285 68l18 -117q-184 -70 -317 -69q-217 0 -313 152q-68 108 -67 275q0 68 11 146z" />
<glyph unicode="d" d="M101 552q32 265 171.5 417.5t348.5 152.5q61 0 146 -19.5t132 -41.5l82 491h121l-221 -1357l-4 -205l-119 -13l-4 123q-184 -121 -303 -120q-199 0 -290 153q-68 114 -68 289q0 61 8 130zM227 556q-7 -57 -7 -109q0 -132 46 -222q63 -125 196.5 -125t301.5 133l115 701 q-39 20 -127 43.5t-140 23.5q-158 0 -259 -119.5t-126 -325.5z" />
<glyph unicode="e" d="M178 424q0 262 103 467q53 109 153 170t241.5 61t226.5 -74.5t85 -207.5t-100.5 -233.5t-286.5 -125.5l-297 -41q4 -174 61.5 -257t195.5 -83t327 68l20 -117q-188 -72 -362 -71.5t-270.5 117t-96.5 327.5zM311 551l273 39q139 23 210.5 91.5t71.5 156.5q0 174 -209 174 q-160 0 -245 -131t-101 -330z" />
<glyph unicode="f" d="M139 -449q12 25 34 92.5t84 434t126 913.5h-211l18 119h209q51 461 381 461q106 0 232 -39l-43 -119q-121 37 -199 37q-207 0 -248 -340h393l-18 -119h-387q-63 -553 -124.5 -912.5t-90.5 -443.5l-31 -84h-125z" />
<glyph unicode="g" d="M35 -373l53 117q207 -90 337 -90t226.5 70.5t116.5 220.5l23 145q-154 -88 -273 -88q-199 0 -289 143q-70 106 -70 281q0 61 9 129q33 266 169 416.5t351 150.5q123 0 260 -82l13 70h120l-190 -1163q-23 -209 -157 -311.5t-309 -102.5t-390 94zM294 556q-6 -56 -6 -105 q0 -132 46 -214q63 -114 196.5 -114t282.5 104l115 684q-129 90 -248 90q-158 0 -260 -118q-102 -121 -126 -327z" />
<glyph unicode="h" d="M104 0l256 1552h121l-86 -528q219 98 365.5 98t213.5 -100q51 -77 51 -201q0 -38 -5 -82l-129 -739h-117l129 739q4 31 4 60q0 80 -30 132q-41 71 -162 70.5t-338 -96.5l-150 -905h-123z" />
<glyph unicode="i" d="M264 991h281l-105 -618q-19 -150 -18 -228q0 -83 54 -125q56 -43 194 -43l182 27l-14 117q-98 -23 -154 -23q-119 0 -133 59q-5 19 -5 47q0 63 21 175l117 731h-401zM539 1438q10 98 114 98q41 0 67 -24q21 -19 21 -56q0 -9 -2 -18q-12 -104 -110 -105q-39 0 -67 27 q-24 23 -24 65q0 6 1 13z" />
<glyph unicode="j" d="M156 -330q209 29 292.5 93.5t108.5 216.5l170 1011h-303l20 119h422l-182 -1133q-31 -182 -113 -276q-68 -78 -237 -113q-68 -12 -178 -26v108zM715 1438q8 98 114 98q39 0 65 -24q22 -20 22 -61q0 -7 -1 -13q-14 -104 -112 -105q-37 0 -65 27q-24 23 -24 65q0 6 1 13z " />
<glyph unicode="k" d="M133 0l254 1552h123l-156 -946l146 25q182 217 372 479h134q-190 -276 -410 -520q166 -305 303 -590h-141q-158 332 -260 516l-162 -20l-82 -496h-121z" />
<glyph unicode="l" d="M322 1436l16 116h426l-193 -1173q-21 -112 -21 -175q0 -29 5 -47q14 -58 121.5 -58.5t236.5 44.5l15 -116q-139 -49 -265 -49.5t-183 42.5q-53 41 -53 123q0 76 24 230l172 1063h-301z" />
<glyph unicode="m" d="M-20 0l182 1110h117v-72q121 84 198 84q127 0 172 -100q135 100 230 100q152 0 192 -92q25 -56 25 -149q0 -61 -11 -138l-118 -743h-123l123 743q12 57 11 104q0 45 -10 83q-22 76 -112 76q-59 0 -182 -76q2 -27 2 -55q0 -64 -10 -132l-64 -389h-123l62 389q14 67 14 117 q0 141 -117 141q-82 0 -184 -73l-154 -928h-120z" />
<glyph unicode="n" d="M115 0l182 1110h113l-7 -94q229 106 372 106t210 -102q52 -79 52 -202q0 -37 -5 -79l-117 -739h-124l124 739q4 29 4 55q0 79 -32 136q-41 72 -153.5 71.5t-348.5 -102.5l-149 -899h-121z" />
<glyph unicode="o" d="M156 547q82 575 491 575h6q208 0 302 -140q72 -108 72 -298q0 -61 -7 -131q-82 -575 -490 -576h-9q-373 0 -372 440q0 61 7 130zM282 552q-12 -76 -13 -139q0 -120 44 -198q66 -117 218 -117h6q285 0 360 453q12 74 12 136q0 119 -44 198q-67 119 -221 120h-3 q-153 0 -238 -117q-85 -118 -121 -336z" />
<glyph unicode="p" d="M4 -449l223 1356l4 205l119 12l4 -125q176 123 316 123q201 0 289 -150q66 -112 67 -288q0 -60 -8 -128q-31 -265 -188.5 -420.5t-376.5 -155.5q-117 0 -248 63l-78 -492h-123zM227 168q39 -23 112 -43.5t124 -20.5q160 0 281.5 123t146.5 327q7 60 7 112q0 127 -42 214 q-59 122 -198.5 121.5t-317.5 -135.5z" />
<glyph unicode="q" d="M139 434q0 297 140.5 492.5t383 195.5t416.5 -78l-243 -1493h-121l88 547q-174 -119 -297 -118q-174 0 -270.5 120.5t-96.5 333.5zM266 455q0 -164 67.5 -259.5t190.5 -95.5t303 144l117 712q-45 20 -129 38t-145 18q-182 0 -293 -164t-111 -393z" />
<glyph unicode="r" d="M285 991l18 119h342l-24 -137q78 49 209 95t227 54l-17 -137q-90 -6 -228 -46t-210 -83l-139 -856h-123l162 991h-217z" />
<glyph unicode="s" d="M201 49l32 127q211 -78 334 -78t198 60.5t75 175.5q0 68 -48.5 107.5t-193.5 76.5t-222 102.5t-77 167.5q0 162 107.5 251t280.5 89t335 -65l-33 -119q-172 59 -294 59.5t-197.5 -53t-75.5 -128t55 -117.5q55 -37 204.5 -79t216.5 -105.5t67 -199t-108.5 -238.5 t-283.5 -103.5t-372 69.5z" />
<glyph unicode="t" d="M229 977l19 117h215l43 268l127 22l-49 -290h372l-18 -117h-373l-96 -598q-2 -29 -9 -74t-8 -63.5t-3.5 -47t2.5 -38.5l12 -25q16 -33 117.5 -33t226.5 45l14 -116q-135 -49 -262 -49.5t-183 42.5q-55 42 -56 128q0 85 24 225l100 604h-215z" />
<glyph unicode="u" d="M164 362l121 748h121l-121 -748q-3 -27 -4 -52q0 -80 35 -136q46 -74 154 -74t345 117l148 893h120l-182 -1110h-104l4 96q-221 -117 -366.5 -116.5t-218.5 103.5q-57 81 -57 206q0 34 5 73z" />
<glyph unicode="v" d="M219 1110h133l146 -997h39l426 997h133l-482 -1110h-221z" />
<glyph unicode="w" d="M143 0l9 1110h114l-2 -997h39l215 561h127l82 -561h39l256 997h115l-281 -1110h-235l-56 483h-16l-172 -483h-234z" />
<glyph unicode="x" d="M84 0l422 563l-279 547h152l217 -459l317 459h150l-397 -547l284 -563h-149l-230 473l-335 -473h-152z" />
<glyph unicode="y" horiz-adv-x="1060" d="M2 -481l14 119q131 6 199 42.5t115 141.5l65 162l-176 1126h133l137 -944h13l418 944h131l-590 -1298q-82 -178 -170 -233.5t-289 -59.5z" />
<glyph unicode="z" d="M147 96l697 895h-568l19 119h713v-96l-697 -897h623l-19 -117h-761z" />
<glyph unicode="{" d="M285 707l12 106l219 117q31 201 52.5 417t29.5 273q35 231 254 231h238l-17 -116h-227q-106 0 -125 -129q-8 -68 -33.5 -310.5t-56.5 -441.5l-213 -88l-2 -12l184 -88q-27 -178 -77 -437.5t-62 -347.5q-20 -129 80 -129h229l-16 -117h-238q-219 0 -184 232 q14 86 59 316.5t72 406.5z" />
<glyph unicode="|" d="M367 -569l350 2304h119l-351 -2304h-118z" />
<glyph unicode="}" d="M90 -365l14 117h230q104 0 123 129q16 106 44.5 363.5t51.5 421.5l213 88l2 12l-184 88q29 190 76 429t59 323q18 129 -82 129h-227l18 116h238q217 0 182 -231q-12 -82 -55 -293t-74 -397l182 -117l-12 -106l-221 -117q-25 -168 -47.5 -396.5t-38.5 -326.5 q-35 -231 -252 -232h-240z" />
<glyph unicode="~" d="M82 596q113 94 184 137q70 41 150 41t196.5 -89t188 -89t235.5 141l60 -69q-109 -96 -177.5 -138.5t-130.5 -42.5q-98 0 -218.5 90.5t-176.5 90.5q-86 0 -250 -146z" />
<glyph unicode="&#xa0;" />
<glyph unicode="&#xa1;" d="M369 -451l217 1168h108l-176 -1168h-149zM596 969l31 200h159l-30 -200h-160z" />
<glyph unicode="&#xa3;" d="M74 0l20 119q135 2 171 90t116 534h-191l21 117h168q2 160 14.5 313.5t88 249t190.5 127.5q227 66 481 -14l-41 -123q-174 61 -356 25q-88 -18 -153.5 -84t-80.5 -174q-8 -51 -12 -320h438l-18 -117h-414l-67 -387q-35 -174 -89 -237h684l-20 -119h-950z" />
<glyph unicode="&#xa5;" d="M27 393l18 117h860l-18 -117h-860zM78 727l18 117h860l-18 -117h-860zM121 1530h139l262 -658h6l469 658h152l-569 -776l-119 -754h-129l119 754z" />
<glyph unicode="&#xa8;" d="M305 1503q0 37 28.5 65.5t66.5 28.5t57.5 -21.5t19.5 -57t-28.5 -65.5t-69.5 -30q-74 0 -74 80zM756 1502q0 36 29.5 65.5t66.5 29.5t57.5 -21.5t20.5 -57t-30 -65.5t-66.5 -30t-57 21.5t-20.5 57.5z" />
<glyph unicode="&#xaa;" d="M121 403q0 254 131 476q66 106 175.5 174.5t250.5 68.5q43 0 115.5 -21.5t117.5 -45.5l13 47h125l-142 -846l6 -260l-116 -14l-19 235q-51 -88 -136 -162.5t-161 -74.5q-180 0 -270 111t-90 312zM252 420q0 -137 54 -227.5t173 -90.5q59 0 176 123t158 195l86 514 q-127 66 -219 65q-203 0 -315.5 -178t-112.5 -401z" />
<glyph unicode="&#xab;" d="M262 457l14 114l515 400l-25 -164l-387 -301l293 -299l-23 -150zM618 485l15 105l512 377l-27 -164l-383 -273l299 -270l-26 -149z" />
<glyph unicode="&#xad;" d="M221 498l23 120h667l-22 -120h-668z" />
<glyph unicode="&#xb0;" d="M252 1280q0 131 113.5 234.5t249 103.5t213 -77t77.5 -208t-111.5 -234.5t-247.5 -103.5t-215 77t-79 208zM381 1311q-12 -90 36 -149.5t134 -61.5t150.5 55t75.5 146.5t-35 150.5t-134 63.5t-151.5 -56t-75.5 -148.5z" />
<glyph unicode="&#xb1;" d="M-20 127l16 96h1098l-17 -96h-1097zM70 700l16 101h492l57 377h117l-58 -377h490l-17 -101h-489l-57 -354h-117l57 354h-491z" />
<glyph unicode="&#xb2;" d="M119 0v115q59 119 157 229q102 109 201 188l191 164q219 190 254 375q27 141 -36 225t-189 84t-361 -151l-47 92q252 180 429 180t268 -113.5t60.5 -315.5t-174 -350.5t-278.5 -252.5q-242 -186 -326 -340h684l-20 -129h-813z" />
<glyph unicode="&#xb3;" d="M29 70l53 110q199 -82 377 -82t286.5 76t134 233.5t-44 232.5t-237.5 75l-260 -29v109l174 24q399 59 426 303q14 133 -62.5 197.5t-209.5 64.5q-125 0 -273 -51l-47 -16l-35 104q463 170 666 -6q111 -98 92 -282q-16 -135 -81.5 -211t-201.5 -127v-7q135 -23 192.5 -122 t33.5 -256q-72 -432 -555 -433q-195 1 -428 93z" />
<glyph unicode="&#xb4;" d="M354 1452l383 229l43 -127l-385 -215z" />
<glyph unicode="&#xb5;" d="M33 -403q53 96 70.5 156.5t29.5 131.5l189 1225h129l-119 -750q-18 -127 19.5 -198.5t187 -71.5t338.5 156l139 864h123l-174 -1110h-119l10 106q-72 -59 -169 -94t-183 -35q-172 0 -225 101l-27 -199q-33 -201 -129 -328z" />
<glyph unicode="&#xb6;" d="M37 983q0 340 146.5 495.5t506.5 155.5h58l-316 -1634h-82l119 616q-223 16 -327.5 99.5t-104.5 267.5zM119 997q0 -158 86 -225t278 -82l168 871q-305 -6 -418.5 -127.5t-113.5 -436.5zM723 0l315 1634h82l-315 -1634h-82z" />
<glyph unicode="&#xb8;" d="M379 -549l27 100q43 -12 108 -12q143 0 143 139q0 86 -108 86q-39 0 -103 -12l3 96q74 18 141 19q188 0 188 -191q0 -104 -72.5 -172.5t-183.5 -68.5q-57 0 -143 16z" />
<glyph unicode="&#xb9;" d="M115 0l18 117h377l201 1229l-400 -179l-26 113l463 203h116l-225 -1366h313l-18 -117h-819z" />
<glyph unicode="&#xba;" d="M156 547q82 575 491 575h6q208 0 302 -140q72 -108 72 -298q0 -61 -7 -131q-82 -575 -490 -576h-9q-373 0 -372 440q0 61 7 130zM282 552q-12 -76 -13 -139q0 -120 44 -198q66 -117 218 -117h6q285 0 360 453q12 74 12 136q0 119 -44 198q-67 119 -221 120h-3 q-153 0 -238 -117q-85 -118 -121 -336z" />
<glyph unicode="&#xbb;" d="M188 98l29 168l381 269l-297 276l27 152l389 -377l-17 -113zM547 94l24 168l385 295l-290 305l24 152l387 -400l-16 -120z" />
<glyph unicode="&#xbf;" d="M205 -115q14 135 65 217q51 84 182.5 201t166 168t44 131t11.5 152l117 4q8 -51 0 -170q-12 -102 -58 -168q-47 -63 -178 -180t-170 -181.5t-53.5 -170t47 -169t163 -63.5t183.5 44t199 132l57 -96q-137 -102 -235.5 -151.5t-206.5 -49.5q-160 0 -257 92t-77 258z M649 928l25 217h190l-28 -217h-187z" />
<glyph unicode="&#xc0;" d="M-70 0l684 1530h224l176 -1530h-137l-41 352h-619l-154 -352h-133zM268 469h553l-100 950h-33zM537 2085l63 115l379 -230l-59 -100z" />
<glyph unicode="&#xc1;" d="M-70 0l684 1530h224l176 -1530h-137l-41 352h-619l-154 -352h-133zM268 469h553l-100 950h-33zM510 1978l381 228l43 -125l-385 -215z" />
<glyph unicode="&#xc2;" d="M-70 0l684 1530h224l176 -1530h-137l-41 352h-619l-154 -352h-133zM268 469h553l-100 950h-33zM385 1896l358 377h105l237 -377h-135l-172 285l-260 -285h-133z" />
<glyph unicode="&#xc3;" d="M-70 0l684 1530h224l176 -1530h-137l-41 352h-619l-154 -352h-133zM268 469h553l-100 950h-33zM373 2050q156 125 239.5 125t162.5 -61.5t121 -61.5t157 94l47 -78q-143 -129 -220 -129t-154 63.5t-128 63.5t-170 -96z" />
<glyph unicode="&#xc4;" d="M-70 0l684 1530h224l176 -1530h-137l-41 352h-619l-154 -352h-133zM268 469h553l-100 950h-33zM461 2028q0 37 27.5 65.5t66.5 28.5t57.5 -20.5t18.5 -57.5t-29 -65.5t-70 -28.5q-71 -2 -71 78zM911 2027.5q0 36.5 29 65.5t66.5 29t57 -20.5t19.5 -57.5t-29.5 -65.5 t-66.5 -28.5t-56.5 20.5t-19.5 57z" />
<glyph unicode="&#xc5;" d="M-70 0l684 1530h224l176 -1530h-137l-41 352h-619l-154 -352h-133zM268 469h553l-100 950h-33zM522 1983.5q0 101.5 79 173t190.5 71.5t169 -50t57.5 -153.5t-79 -173t-190.5 -69.5t-169 50t-57.5 151.5zM621 1980q0 -111 127 -110q76 0 121.5 42t45.5 116 q0 109 -127 108q-76 0 -121.5 -42t-45.5 -114z" />
<glyph unicode="&#xc6;" d="M-80 0l690 1530h705l-19 -113h-407l-103 -583h344l-20 -113h-344l-104 -608h411l-20 -113h-553l63 352h-346l-162 -352h-135zM270 469h314l178 950h-74z" />
<glyph unicode="&#xc7;" d="M121 780q66 397 217 584.5t416 187.5q176 0 342 -57l-52 -309h-122l32 209q-88 37 -217 37q-190 0 -306 -159t-175 -493q-55 -362 14.5 -521t257.5 -159q133 0 336 64l8 -119q-195 -66 -368 -65q-254 0 -351.5 186t-31.5 614zM244 -549l26 100q43 -12 109 -12 q143 0 143 139q0 86 -108 86q-41 0 -103 -12l2 96q74 18 142 19q188 0 188 -191q0 -104 -72.5 -172.5t-183.5 -68.5q-57 0 -143 16z" />
<glyph unicode="&#xc8;" d="M119 0l252 1530h751l-18 -117h-631l-94 -579h573l-18 -117h-574l-98 -600h639l-18 -117h-764zM549 2085l63 115l377 -230l-57 -100z" />
<glyph unicode="&#xc9;" d="M119 0l252 1530h751l-18 -117h-631l-94 -579h573l-18 -117h-574l-98 -600h639l-18 -117h-764zM532 1978l383 228l41 -125l-385 -215z" />
<glyph unicode="&#xca;" d="M119 0l252 1530h751l-18 -117h-631l-94 -579h573l-18 -117h-574l-98 -600h639l-18 -117h-764zM410 1896l356 377h104l240 -377h-137l-172 285l-260 -285h-131z" />
<glyph unicode="&#xcb;" d="M119 0l252 1530h751l-18 -117h-631l-94 -579h573l-18 -117h-574l-98 -600h639l-18 -117h-764zM461 2028q0 37 27.5 65.5t66.5 28.5t57.5 -20.5t18.5 -57.5t-29 -65.5t-70 -28.5q-71 -2 -71 78zM911 2027.5q0 36.5 29 65.5t66.5 29t57 -20.5t19.5 -57.5t-29.5 -65.5 t-66.5 -28.5t-56.5 20.5t-19.5 57z" />
<glyph unicode="&#xcc;" d="M113 0l18 117h248l211 1296h-254l18 117h617l-19 -117h-239l-213 -1296h250l-19 -117h-618zM479 2085l62 115l379 -230l-58 -100z" />
<glyph unicode="&#xcd;" d="M113 0l18 117h248l211 1296h-254l18 117h617l-19 -117h-239l-213 -1296h250l-19 -117h-618zM485 1978l383 228l43 -125l-387 -215z" />
<glyph unicode="&#xce;" d="M113 0l18 117h248l211 1296h-254l18 117h617l-19 -117h-239l-213 -1296h250l-19 -117h-618zM362 1896l357 377h104l240 -377h-135l-174 285l-258 -285h-134z" />
<glyph unicode="&#xcf;" d="M113 0l18 117h248l211 1296h-254l18 117h617l-19 -117h-239l-213 -1296h250l-19 -117h-618zM414 2028q0 37 27.5 65.5t66.5 28.5t57.5 -20.5t18.5 -57.5t-28 -65.5t-71 -28.5q-71 -2 -71 78zM864 2027.5q0 36.5 29 65.5t66.5 29t57 -20.5t19.5 -57.5t-28.5 -65.5 t-66.5 -28.5t-57.5 20.5t-19.5 57z" />
<glyph unicode="&#xd1;" d="M0 0l252 1530h119l493 -1075l176 1075h123l-250 -1530h-118l36 240l-495 1063l-213 -1303h-123zM362 2050q152 125 236 125t163 -61.5t121 -61.5t158 94l47 -78q-141 -129 -218.5 -129t-154.5 63.5t-128 63.5t-170 -96z" />
<glyph unicode="&#xd2;" d="M93 365.5q-5 179.5 34 418.5q59 371 194.5 569.5t399.5 198.5q180 0 270 -101t94.5 -272t-29.5 -377t-75 -341q-43 -137 -113 -250q-139 -233 -417 -234q-174 0 -263.5 104.5t-94.5 284zM220 394q3 -95 27.5 -156.5t80 -101.5t149.5 -40t176 56q80 53 131 161 q92 186 140 471q63 340 4 504q-25 61 -82.5 103.5t-145.5 42.5t-158.5 -42t-115.5 -101.5t-80 -153t-54.5 -172t-37.5 -188t-27.5 -199t-6.5 -184.5zM549 2085l63 115l377 -230l-57 -100z" />
<glyph unicode="&#xd3;" d="M93 365.5q-5 179.5 34 418.5q59 371 194.5 569.5t399.5 198.5q180 0 270 -101t94.5 -272t-29.5 -377t-75 -341q-43 -137 -113 -250q-139 -233 -417 -234q-174 0 -263.5 104.5t-94.5 284zM220 394q3 -95 27.5 -156.5t80 -101.5t149.5 -40t176 56q80 53 131 161 q92 186 140 471q63 340 4 504q-25 61 -82.5 103.5t-145.5 42.5t-158.5 -42t-115.5 -101.5t-80 -153t-54.5 -172t-37.5 -188t-27.5 -199t-6.5 -184.5zM555 1978l383 228l43 -125l-385 -215z" />
<glyph unicode="&#xd4;" d="M93 365.5q-5 179.5 34 418.5q59 371 194.5 569.5t399.5 198.5q180 0 270 -101t94.5 -272t-29.5 -377t-75 -341q-43 -137 -113 -250q-139 -233 -417 -234q-174 0 -263.5 104.5t-94.5 284zM220 394q3 -95 27.5 -156.5t80 -101.5t149.5 -40t176 56q80 53 131 161 q92 186 140 471q63 340 4 504q-25 61 -82.5 103.5t-145.5 42.5t-158.5 -42t-115.5 -101.5t-80 -153t-54.5 -172t-37.5 -188t-27.5 -199t-6.5 -184.5zM420 1896l358 377h105l237 -377h-135l-172 285l-260 -285h-133z" />
<glyph unicode="&#xd5;" d="M93 365.5q-5 179.5 34 418.5q59 371 194.5 569.5t399.5 198.5q180 0 270 -101t94.5 -272t-29.5 -377t-75 -341q-43 -137 -113 -250q-139 -233 -417 -234q-174 0 -263.5 104.5t-94.5 284zM220 394q3 -95 27.5 -156.5t80 -101.5t149.5 -40t176 56q80 53 131 161 q92 186 140 471q63 340 4 504q-25 61 -82.5 103.5t-145.5 42.5t-158.5 -42t-115.5 -101.5t-80 -153t-54.5 -172t-37.5 -188t-27.5 -199t-6.5 -184.5zM397 2050q152 125 237 125t165 -61.5t121 -61.5t157 94l45 -78q-141 -129 -218 -129t-154.5 63.5t-129 63.5t-169.5 -96z " />
<glyph unicode="&#xd6;" d="M93 365.5q-5 179.5 34 418.5q59 371 194.5 569.5t399.5 198.5q180 0 270 -101t94.5 -272t-29.5 -377t-75 -341q-43 -137 -113 -250q-139 -233 -417 -234q-174 0 -263.5 104.5t-94.5 284zM220 394q3 -95 27.5 -156.5t80 -101.5t149.5 -40t176 56q80 53 131 161 q92 186 140 471q63 340 4 504q-25 61 -82.5 103.5t-145.5 42.5t-158.5 -42t-115.5 -101.5t-80 -153t-54.5 -172t-37.5 -188t-27.5 -199t-6.5 -184.5zM469 2028q0 37 27.5 65.5t66.5 28.5t57.5 -20.5t18.5 -57.5t-27.5 -65.5t-70.5 -28.5q-72 -2 -72 78zM920 2027.5 q0 36.5 29.5 65.5t66.5 29t57.5 -20.5t20.5 -57.5t-30 -65.5t-66.5 -28.5t-57 20.5t-20.5 57z" />
<glyph unicode="&#xd9;" d="M98 444l178 1086h121l-176 -1079q-61 -360 252 -361q158 0 252 99.5t123 261.5l176 1079h123l-178 -1086q-39 -227 -170 -346t-346 -118.5t-302.5 124t-52.5 340.5zM524 2085l64 115l379 -230l-60 -100z" />
<glyph unicode="&#xda;" d="M98 444l178 1086h121l-176 -1079q-61 -360 252 -361q158 0 252 99.5t123 261.5l176 1079h123l-178 -1086q-39 -227 -170 -346t-346 -118.5t-302.5 124t-52.5 340.5zM555 1978l383 228l43 -125l-385 -215z" />
<glyph unicode="&#xdb;" d="M98 444l178 1086h121l-176 -1079q-61 -360 252 -361q158 0 252 99.5t123 261.5l176 1079h123l-178 -1086q-39 -227 -170 -346t-346 -118.5t-302.5 124t-52.5 340.5zM389 1896l359 377h104l238 -377h-136l-172 285l-260 -285h-133z" />
<glyph unicode="&#xdc;" d="M98 444l178 1086h121l-176 -1079q-61 -360 252 -361q158 0 252 99.5t123 261.5l176 1079h123l-178 -1086q-39 -227 -171 -345.5t-346 -118.5t-301.5 123.5t-52.5 340.5zM436 2028q0 37 29 65.5t66.5 28.5t56 -20.5t18.5 -57.5t-27.5 -65.5t-68.5 -28.5q-74 -2 -74 78z M887 2027.5q0 36.5 29.5 65.5t66.5 29t57.5 -20.5t20.5 -57.5t-30 -65.5t-66.5 -28.5t-57 20.5t-20.5 57z" />
<glyph unicode="&#xdd;" d="M581 1804l383 229l43 -127l-385 -215zM80 1530h141l248 -735h12l480 735h145l-588 -868l-104 -662h-129l104 662z" />
<glyph unicode="&#xe0;" d="M121 403q0 254 131 476q66 106 175.5 174.5t250.5 68.5q43 0 115.5 -21.5t117.5 -45.5l13 47h125l-142 -846l6 -260l-116 -14l-19 235q-51 -88 -136 -162.5t-161 -74.5q-180 0 -270 111t-90 312zM252 420q0 -137 54 -227.5t173 -90.5q59 0 176 123t158 195l86 514 q-127 66 -219 65q-203 0 -315.5 -178t-112.5 -401zM502 1561l63 112l379 -227l-59 -100z" />
<glyph unicode="&#xe1;" d="M121 403q0 254 131 476q66 106 175.5 174.5t250.5 68.5q43 0 115.5 -21.5t117.5 -45.5l13 47h125l-142 -846l6 -260l-116 -14l-19 235q-51 -88 -136 -162.5t-161 -74.5q-180 0 -270 111t-90 312zM252 420q0 -137 54 -227.5t173 -90.5q59 0 176 123t158 195l86 514 q-127 66 -219 65q-203 0 -315.5 -178t-112.5 -401zM498 1452l383 229l41 -127l-385 -215z" />
<glyph unicode="&#xe2;" d="M121 403q0 254 131 476q66 106 175.5 174.5t250.5 68.5q43 0 115.5 -21.5t117.5 -45.5l13 47h125l-142 -846l6 -260l-116 -14l-19 235q-51 -88 -136 -162.5t-161 -74.5q-180 0 -270 111t-90 312zM252 420q0 -137 54 -227.5t173 -90.5q59 0 176 123t158 195l86 514 q-127 66 -219 65q-203 0 -315.5 -178t-112.5 -401zM362 1370l357 379h104l240 -379h-135l-174 285l-258 -285h-134z" />
<glyph unicode="&#xe3;" d="M121 403q0 254 131 476q66 106 175.5 174.5t250.5 68.5q43 0 115.5 -21.5t117.5 -45.5l13 47h125l-142 -846l6 -260l-116 -14l-19 235q-51 -88 -136 -162.5t-161 -74.5q-180 0 -270 111t-90 312zM252 420q0 -137 54 -227.5t173 -90.5q59 0 176 123t158 195l86 514 q-127 66 -219 65q-203 0 -315.5 -178t-112.5 -401zM373 1524q152 127 237.5 127t164.5 -61.5t120 -61.5t158 92l47 -76q-143 -129 -220 -129t-154 62.5t-128 62.5t-170 -94z" />
<glyph unicode="&#xe4;" d="M121 403q0 254 131 476q66 106 175.5 174.5t250.5 68.5q43 0 115.5 -21.5t117.5 -45.5l13 47h125l-142 -846l6 -260l-116 -14l-19 235q-51 -88 -136 -162.5t-161 -74.5q-180 0 -270 111t-90 312zM252 420q0 -137 54 -227.5t173 -90.5q59 0 176 123t158 195l86 514 q-127 66 -219 65q-203 0 -315.5 -178t-112.5 -401zM436 1503q0 37 29 65.5t66.5 28.5t56 -21.5t18.5 -57t-27.5 -65.5t-68.5 -30q-74 0 -74 80zM887 1502q0 36 29.5 65.5t66.5 29.5t57.5 -21.5t20.5 -57t-30 -65.5t-66.5 -30t-57 21.5t-20.5 57.5z" />
<glyph unicode="&#xe5;" d="M121 403q0 254 131 476q66 106 175.5 174.5t250.5 68.5q43 0 115.5 -21.5t117.5 -45.5l13 47h125l-142 -846l6 -260l-116 -14l-19 235q-51 -88 -136 -162.5t-161 -74.5q-180 0 -270 111t-90 312zM252 420q0 -137 54 -227.5t173 -90.5q59 0 176 123t158 195l86 514 q-127 66 -219 65q-203 0 -315.5 -178t-112.5 -401zM512 1493q0 102 78 173t189.5 71t169 -50.5t57.5 -152.5t-79 -173t-189.5 -71t-168 50.5t-57.5 152.5zM610 1489q0 -109 125 -109q78 0 123 42t45 114q0 111 -125 111q-78 0 -123 -42t-45 -116z" />
<glyph unicode="&#xe6;" d="M86 244q0 174 104.5 279.5t274.5 105.5h151q37 195 26 276.5t-111.5 81.5t-264.5 -72l-22 113q178 82 291.5 82t158.5 -30.5t60 -108.5q37 66 103.5 107.5t148.5 41.5q164 0 215 -117.5t12 -373.5l-29 -123h-473q-12 -94 -13 -205t38 -158t125 -47q57 2 188 39l43 12 l16 -112q-162 -57 -267 -57.5t-158.5 28.5t-84.5 111q-98 -139 -307 -140q-106 0 -165.5 71t-59.5 196zM219 256q0 -160 121 -160q59 0 115 31q55 27 82 57l28 31l29 295h-148q-109 0 -168 -65.5t-59 -188.5zM756 623h342q33 180 10 278t-122 98t-145 -83.5t-85 -292.5z" />
<glyph unicode="&#xe7;" d="M217 553q84 569 504 569q152 0 291 -49l-56 -325h-120l41 231q-109 25 -172 25q-295 0 -369 -451q-33 -205 34.5 -330t229.5 -125q96 0 285 68l18 -117q-184 -70 -317 -69q-217 0 -312.5 152.5t-56.5 420.5zM313 -549l27 100q43 -12 109 -12q145 0 145 139q0 86 -111 86 q-39 0 -102 -12l2 96q74 18 141 19q188 0 189 -191q0 -104 -73 -172.5t-183 -68.5q-58 0 -144 16z" />
<glyph unicode="&#xe8;" d="M178 424q0 262 103 467q53 109 153 170t241.5 61t226.5 -74.5t85 -207.5t-100.5 -233.5t-286.5 -125.5l-297 -41q4 -174 61.5 -257t195.5 -83t327 68l20 -117q-188 -72 -362 -71.5t-270.5 117t-96.5 327.5zM311 551l273 39q139 23 210.5 91.5t71.5 156.5q0 174 -209 174 q-160 0 -245 -131t-101 -330zM479 1561l62 112l379 -227l-58 -100z" />
<glyph unicode="&#xe9;" d="M178 424q0 262 103 467q53 109 153 170t241.5 61t226.5 -74.5t85 -207.5t-100.5 -233.5t-286.5 -125.5l-297 -41q4 -174 61.5 -257t195.5 -83t327 68l20 -117q-188 -72 -362 -71.5t-270.5 117t-96.5 327.5zM311 551l273 39q139 23 210.5 91.5t71.5 156.5q0 174 -209 174 q-160 0 -245 -131t-101 -330zM451 1452l383 229l43 -127l-388 -215z" />
<glyph unicode="&#xea;" d="M178 424q0 262 103 467q53 109 153 170t241.5 61t226.5 -74.5t85 -207.5t-100.5 -233.5t-286.5 -125.5l-297 -41q4 -174 61.5 -257t195.5 -83t327 68l20 -117q-188 -72 -362 -71.5t-270.5 117t-96.5 327.5zM311 551l273 39q139 23 210.5 91.5t71.5 156.5q0 174 -209 174 q-160 0 -245 -131t-101 -330zM350 1370l357 379h106l238 -379h-136l-172 285l-260 -285h-133z" />
<glyph unicode="&#xeb;" d="M178 424q0 262 103 467q53 109 153 170t241.5 61t226.5 -74.5t85 -207.5t-100.5 -233.5t-286.5 -125.5l-297 -41q4 -174 61.5 -257t195.5 -83t327 68l20 -117q-188 -72 -362 -71.5t-270.5 117t-96.5 327.5zM311 551l273 39q139 23 210.5 91.5t71.5 156.5q0 174 -209 174 q-160 0 -245 -131t-101 -330zM389 1503q0 37 28.5 65.5t66.5 28.5t57.5 -21.5t19.5 -57t-28.5 -65.5t-69.5 -30q-74 0 -74 80zM840 1502q0 36 29.5 65.5t66.5 29.5t57.5 -21.5t20.5 -57t-30 -65.5t-66.5 -30t-57 21.5t-20.5 57.5z" />
<glyph unicode="&#xec;" d="M264 991h281l-105 -618q-16 -133 -18 -221.5t54 -131.5t194 -43l182 27l-14 117q-98 -23 -154 -23q-119 0 -133 58.5t16 222.5l117 731h-401zM338 1561l63 112l379 -227l-59 -100z" />
<glyph unicode="&#xed;" d="M264 991h281l-105 -618q-16 -133 -18 -221.5t54 -131.5t194 -43l182 27l-14 117q-98 -23 -154 -23q-119 0 -133 58.5t16 222.5l117 731h-401zM356 1452l383 229l43 -127l-385 -215z" />
<glyph unicode="&#xee;" d="M199 1370l356 379h107l237 -379h-135l-174 285l-258 -285h-133zM264 991h281l-105 -618q-16 -133 -18 -221.5t54 -131.5t194 -43l182 27l-14 117q-98 -23 -154 -23q-119 0 -133 58.5t16 222.5l117 731h-401z" />
<glyph unicode="&#xef;" d="M250 1503q0 37 27.5 65.5t66.5 28.5t57.5 -21.5t18.5 -57t-27.5 -65.5t-70.5 -30q-72 0 -72 80zM264 991h281l-105 -618q-16 -133 -18 -221.5t54 -131.5t194 -43l182 27l-14 117q-98 -23 -154 -23q-119 0 -133 58.5t16 222.5l117 731h-401zM700 1502q0 36 29 65.5 t67 29.5t57 -21.5t19 -57t-28.5 -65.5t-66.5 -30t-57.5 21.5t-19.5 57.5z" />
<glyph unicode="&#xf1;" d="M115 0l182 1110h113l-7 -94q229 106 372 106t210.5 -102t46.5 -281l-117 -739h-124l124 739q14 115 -28 191q-41 72 -153.5 71.5t-348.5 -102.5l-149 -899h-121zM350 1524q154 127 238 127t163.5 -61.5t121.5 -61.5t157 92l47 -76q-143 -129 -220 -129t-153.5 62.5 t-129 62.5t-171.5 -94z" />
<glyph unicode="&#xf2;" d="M156 547q82 575 491 575q213 2 308.5 -140t64.5 -429q-82 -575 -490 -576q-433 -5 -374 570zM281.5 552q-35.5 -218 32 -337t223.5 -117q285 0 360 453q35 215 -31.5 334t-221.5 120t-241 -117t-121.5 -336zM479 1561l62 112l379 -227l-58 -100z" />
<glyph unicode="&#xf3;" d="M156 547q82 575 491 575q213 2 308.5 -140t64.5 -429q-82 -575 -490 -576q-433 -5 -374 570zM281.5 552q-35.5 -218 32 -337t223.5 -117q285 0 360 453q35 215 -31.5 334t-221.5 120t-241 -117t-121.5 -336zM473 1452l383 229l43 -127l-385 -215z" />
<glyph unicode="&#xf4;" d="M156 547q82 575 491 575q213 2 308.5 -140t64.5 -429q-82 -575 -490 -576q-433 -5 -374 570zM281.5 552q-35.5 -218 32 -337t223.5 -117q285 0 360 453q35 215 -31.5 334t-221.5 120t-241 -117t-121.5 -336zM338 1370l358 379h105l237 -379h-135l-172 285l-260 -285h-133 z" />
<glyph unicode="&#xf5;" d="M156 547q82 575 491 575q213 2 308.5 -140t64.5 -429q-82 -575 -490 -576q-433 -5 -374 570zM281.5 552q-35.5 -218 32 -337t223.5 -117q285 0 360 453q35 215 -31.5 334t-221.5 120t-241 -117t-121.5 -336zM348 1524q152 127 236 127t163.5 -61.5t121.5 -61.5t159 92 l45 -76q-141 -129 -218 -129t-154.5 62.5t-129 62.5t-170.5 -94z" />
<glyph unicode="&#xf6;" d="M156 547q82 575 491 575q213 2 308.5 -140t64.5 -429q-82 -575 -490 -576q-433 -5 -374 570zM281.5 552q-35.5 -218 32 -337t223.5 -117q285 0 360 453q35 215 -31.5 334t-221.5 120t-241 -117t-121.5 -336zM414 1503q0 37 27.5 65.5t66.5 28.5t57.5 -21.5t18.5 -57 t-28 -65.5t-71 -30q-71 0 -71 80zM864 1502q0 36 29 65.5t66.5 29.5t57 -21.5t19.5 -57t-28.5 -65.5t-66.5 -30t-57.5 21.5t-19.5 57.5z" />
<glyph unicode="&#xf7;" d="M72 610h1005l19 107h-1006zM422 289q0 135 117 135q80 0 79 -84q0 -63 -25.5 -94t-86.5 -31q-84 0 -84 74zM528 952q0 133 117 133q78 0 78 -84q0 -125 -113 -124q-82 -1 -82 75z" />
<glyph unicode="&#xf9;" d="M164 362l121 748h121l-121 -748q-14 -115 31.5 -188.5t153.5 -73.5t345 117l148 893h120l-182 -1110h-104l4 96q-221 -117 -366.5 -116.5t-218 103.5t-52.5 279zM496 1561l61 112l379 -227l-57 -100z" />
<glyph unicode="&#xfa;" d="M164 362l121 748h121l-121 -748q-14 -115 31.5 -188.5t153.5 -73.5t345 117l148 893h120l-182 -1110h-104l4 96q-221 -117 -366.5 -116.5t-218 103.5t-52.5 279zM498 1452l383 229l41 -127l-385 -215z" />
<glyph unicode="&#xfb;" d="M164 362l121 748h121l-121 -748q-14 -115 31.5 -188.5t153.5 -73.5t345 117l148 893h120l-182 -1110h-104l4 96q-221 -117 -366.5 -116.5t-218 103.5t-52.5 279zM352 1370l359 379h104l238 -379h-135l-173 285l-260 -285h-133z" />
<glyph unicode="&#xfc;" d="M164 362l121 748h121l-121 -748q-14 -115 31.5 -188.5t153.5 -73.5t345 117l148 893h120l-182 -1110h-104l4 96q-223 -117 -367.5 -116.5t-217 103.5t-52.5 279zM414 1503q0 37 27.5 65.5t66.5 28.5t57.5 -21.5t18.5 -57t-28 -65.5t-71 -30q-71 0 -71 80zM864 1502 q0 36 29 65.5t66.5 29.5t57 -21.5t19.5 -57t-28.5 -65.5t-66.5 -30t-57.5 21.5t-19.5 57.5z" />
<glyph unicode="&#xfd;" horiz-adv-x="1060" d="M620 1374l383 229l43 -127l-385 -215zM2 -481l14 119q131 6 199 42.5t115 141.5l65 162l-176 1126h133l137 -944h13l418 944h131l-590 -1298q-82 -178 -170 -233.5t-289 -59.5z" />
<glyph unicode="&#xff;" horiz-adv-x="1060" d="M2 -481l14 119q131 6 199 42.5t115 141.5l65 162l-176 1126h133l137 -944h13l418 944h131l-590 -1298q-82 -178 -170 -233.5t-289 -59.5zM360 1503q0 37 28 65.5t67 28.5t57 -21.5t18 -57t-28.5 -65.5t-69.5 -30q-72 0 -72 80zM811 1502q0 36 28.5 65.5t66.5 29.5 t57.5 -21.5t19.5 -57t-29.5 -65.5t-66.5 -30t-56.5 21.5t-19.5 57.5z" />
<glyph unicode="&#x152;" d="M27 774q125 764 678 756h514l-19 -113h-360l-90 -583h297l-19 -113h-297l-96 -608h366l-18 -113h-520q-227 0 -359 168q-134 172 -77 606zM162 774q-55 -346 40 -504.5t279 -154.5h25l207 1298q-434 14 -551 -639z" />
<glyph unicode="&#x153;" d="M18 347q0 185 44 359.5t140.5 295t219.5 120.5q59 0 102 -22.5t62.5 -52t34.5 -66.5q14 -45 14 -84l4 23q6 14 25.5 54t46 69.5t80 54t114.5 24.5q162 0 215.5 -125t18.5 -374l-25 -117h-481q-31 -406 178 -406q76 2 180 39l37 13l19 -117q-147 -55 -232.5 -55 t-134.5 23.5t-74 51.5q-27 33 -41 76q-18 53 -18 105q-2 -16 -8 -31l-11 -35q-18 -70 -79 -125q-72 -68 -196 -68t-179.5 92.5t-55.5 277.5zM139 333.5q0 -239.5 140 -239.5q109 0 181 215t72 453q0 119 -29.5 177t-101.5 58q-111 0 -186.5 -212t-75.5 -451.5zM651 623h355 q31 180 5 279t-120 99t-140 -59t-61 -125q-18 -61 -22 -94z" />
<glyph unicode="&#x178;" d="M80 1530h141l248 -735h12l480 735h145l-588 -868l-104 -662h-129l104 662zM307 2028q0 37 29 65.5t66.5 28.5t57 -20.5t19.5 -57.5t-28.5 -65.5t-69.5 -28.5q-74 -2 -74 78zM758 2027.5q0 36.5 29.5 65.5t66.5 29t57.5 -20.5t20.5 -57.5t-30 -65.5t-66.5 -28.5t-57 20.5 t-20.5 57z" />
<glyph unicode="&#x2c6;" d="M236 1370l358 379h104l238 -379h-135l-172 285l-260 -285h-133z" />
<glyph unicode="&#x2dc;" d="M231 1524q152 127 236 127t164 -61.5t122 -61.5t158 92l45 -76q-141 -129 -217.5 -129t-154.5 62.5t-129.5 62.5t-169.5 -94z" />
<glyph unicode="&#x2013;" d="M221 498v120h690v-120h-690z" />
<glyph unicode="&#x2014;" horiz-adv-x="2334" d="M221 498v120h1858v-120h-1858z" />
<glyph unicode="&#x2018;" d="M438 1100l260 469l97 -25l-213 -483z" />
<glyph unicode="&#x2019;" d="M440 1102l213 483l144 -39l-262 -469z" />
<glyph unicode="&#x201c;" d="M248 1130l258 469l96 -26l-213 -483zM573 1087l263 469l94 -24l-213 -483z" />
<glyph unicode="&#x201d;" d="M272 1110l213 481l144 -39l-262 -469zM600 1067l213 483l141 -39l-258 -471z" />
<glyph unicode="&#x2026;" d="M133 0l31 188h160l-29 -188h-162zM489 0l31 188h162l-31 -188h-162zM850 0l31 188h159l-28 -188h-162z" />
<glyph unicode="&#x2039;" d="M324 481l14 109l514 391l-23 -160l-389 -284l295 -297l-22 -150z" />
<glyph unicode="&#x203a;" d="M311 84l23 156l385 288l-291 293l23 152l387 -389l-15 -111z" />
<glyph unicode="&#x20ac;" d="M14 563l17 103h815l-17 -103h-815zM57 840l17 104h815l-17 -104h-815zM147 754q66 393 216.5 571t416.5 178q217 0 373 -59l-53 -121q-45 20 -162 39.5t-174 19.5q-195 0 -309.5 -148.5t-171.5 -479.5q-55 -358 13.5 -507t252.5 -149t387 64l10 -119q-78 -27 -205 -46.5 t-211 -19.5q-258 0 -353.5 176.5t-29.5 600.5z" />
<glyph unicode="&#x2122;" d="M14 1286l19 92h401l-18 -92h-99l-116 -602h-113l117 602h-191zM381 684l135 694h113l129 -438l282 438h113l-135 -694h-94l100 512l-266 -414h-58l-122 416l-101 -514h-96z" />
<glyph unicode="&#xe000;" horiz-adv-x="1110" d="M0 1110h1110v-1110h-1110v1110z" />
<glyph unicode="&#xfb01;" d="M-29 -449q12 25 34 92.5t84.5 434t125.5 913.5h-209l17 119h208q23 227 134.5 344t298.5 117q147 0 280 -35l43 -12l-35 -113q-168 45 -302 45t-205.5 -85t-90.5 -261h637l-92 -731q-31 -164 -16.5 -222.5t133.5 -58.5q55 0 153 23l15 -117q-137 -27 -183 -27 q-137 0 -193 43t-54 131.5t18 221.5l80 618h-512q-61 -553 -122.5 -912.5t-90.5 -443.5l-31 -84h-125z" />
<glyph unicode="&#xfb02;" d="M-51 -449q12 25 32.5 92.5t84 434t124.5 913.5h-206l16 119h207q25 227 135.5 344t296.5 117h434l-151 -1194q-31 -164 -15.5 -222.5t118.5 -58.5t237 47l12 -120q-135 -49 -261 -49.5t-183.5 43.5t-54.5 132.5t22 221.5l137 1085h-301q-139 0 -211 -85t-90 -261h397 l-18 -119h-394q-63 -553 -123.5 -912.5t-91.5 -443.5l-30 -84h-123z" />
<glyph unicode="&#xfb03;" horiz-adv-x="3500" d="M2599 991h281l-105 -618q-19 -150 -18 -228q0 -83 54 -125q56 -43 194 -43l182 27l-14 117q-98 -23 -154 -23q-119 0 -133 59q-5 19 -5 47q0 63 21 175l117 731h-401zM2874 1438q10 98 114 98q41 0 67 -24q21 -19 21 -56q0 -9 -2 -18q-12 -104 -110 -105q-39 0 -67 27 q-24 23 -24 65q0 6 1 13zM1306 -449q12 25 34 92.5t84 434t126 913.5h-211l18 119h209q51 461 381 461q106 0 232 -39l-43 -119q-121 37 -199 37q-207 0 -248 -340h393l-18 -119h-387q-63 -553 -124.5 -912.5t-90.5 -443.5l-31 -84h-125zM139 -449q12 25 34 92.5t84 434 t126 913.5h-211l18 119h209q51 461 381 461q106 0 232 -39l-43 -119q-121 37 -199 37q-207 0 -248 -340h393l-18 -119h-387q-63 -553 -124.5 -912.5t-90.5 -443.5l-31 -84h-125z" />
<glyph unicode="&#xfb04;" horiz-adv-x="3500" d="M2657 1436l16 116h426l-193 -1173q-21 -112 -21 -175q0 -29 5 -47q14 -58 121.5 -58.5t236.5 44.5l15 -116q-139 -49 -265 -49.5t-183 42.5q-53 41 -53 123q0 76 24 230l172 1063h-301zM1306 -449q12 25 34 92.5t84 434t126 913.5h-211l18 119h209q51 461 381 461 q106 0 232 -39l-43 -119q-121 37 -199 37q-207 0 -248 -340h393l-18 -119h-387q-63 -553 -124.5 -912.5t-90.5 -443.5l-31 -84h-125zM139 -449q12 25 34 92.5t84 434t126 913.5h-211l18 119h209q51 461 381 461q106 0 232 -39l-43 -119q-121 37 -199 37q-207 0 -248 -340 h393l-18 -119h-387q-63 -553 -124.5 -912.5t-90.5 -443.5l-31 -84h-125z" />
<glyph d="M123 436q0 213 58.5 391.5t190.5 301t314 122.5t271.5 -137t89.5 -357t-57.5 -390t-187.5 -280t-315.5 -110t-274.5 123t-89 336zM256 455q0 -160 60.5 -259.5t197.5 -99.5q135 -2 231 105q166 184 166 538q0 168 -58 278.5t-189 110.5t-230 -112q-178 -203 -178 -561z " />
</font>
</defs>
</svg>
