<?xml version="1.0" standalone="no"?>
<!DOCTYPE svg PUBLIC "-//W3C//DTD SVG 1.1//EN" "http://www.w3.org/Graphics/SVG/1.1/DTD/svg11.dtd" >
<svg xmlns="http://www.w3.org/2000/svg">
<metadata>
This is a custom SVG webfont generated by Font Squirrel.
Copyright   : Copyright c 2008 2009 2010 Accademia di Belle Arti di Urbino Licensed under the SIL Open Font License Version 11
Designer    : Paolo Mazzetti Luciano Perondi Raffaele Flato Elena Papassissa Emilio Macchia Michela Povoleri Tobias Seemiller Riccardo Lorusso Sabrina Campagna Elisa Ansuini Mariangela Di Pinto Antonio Cavedoni Marco Comastri Luna Castroni Stefano Faoro Daniele Capo Jan Henrik Arnold
</metadata>
<defs>
<font id="LektonBold" horiz-adv-x="1167" >
<font-face units-per-em="2048" ascent="1536" descent="-512" />
<missing-glyph horiz-adv-x="500" />
<glyph unicode=" " />
<glyph unicode="!" d="M455 -14v319h313v-319h-313zM471 1530h279l-29 -1092h-223z" />
<glyph unicode="&#x22;" d="M287 1081v506h207v-506h-207zM672 1081v506h207v-506h-207z" />
<glyph unicode="#" d="M0 414v172h238l45 401h-230v170h246l41 373h192l-43 -373h269l41 373h190l-39 -373h217v-170h-235l-45 -401h227v-172h-244l-47 -414h-192l49 414h-266l-49 -414h-193l49 414h-221zM430 586h266l43 401h-266z" />
<glyph unicode="$" d="M86 1111q0 177 114.5 275.5t245.5 108.5v197h236v-191q139 -4 338 -78l-53 -204q-231 78 -379 77h-8q-250 2 -250 -194q0 -164 274 -236q119 -33 195 -63q72 -29 135 -80q119 -92 119 -313q0 -381 -391 -426v-199h-234v199q-152 14 -340 69l49 207q418 -139 582 -37 q88 57 91 173t-54.5 160t-275.5 107.5t-306 167t-88 280.5z" />
<glyph unicode="%" d="M0 1225.5q0 140.5 82 222.5t206 82t204.5 -82t80.5 -222.5t-80.5 -222t-204.5 -81.5t-206 81.5t-82 222zM160 0l622 1552h219l-622 -1552h-219zM172 1225q0 -129 114.5 -129t114.5 129t-114.5 129t-114.5 -129zM590 304q0 140 82 221t205.5 81t205.5 -81t82 -221 t-82 -222t-205.5 -82t-205.5 82t-82 222zM762 299q0 -66 30.5 -99.5t84 -33.5t84 33.5t30.5 99.5q0 131 -112 131q-55 0 -86 -32.5t-31 -98.5z" />
<glyph unicode="&#x26;" d="M10 461q0 342 318 485q-84 141 -97 191q-10 49 -10 88q0 147 98.5 237t266.5 90t264 -88q98 -92 98 -231t-72.5 -225t-257.5 -168l242 -344q45 115 88 409l199 -26q-43 -344 -152 -557l168 -220l-162 -125q-68 84 -131 175q-160 -174 -389 -174.5t-350 120.5t-121 363z M221 461q0 -156 61.5 -225.5t196.5 -69.5q174 0 279 141l-340 484q-197 -97 -197 -330zM438 1225q0 -70 16.5 -117t67.5 -119q123 49 169 102.5t46 127.5q0 145 -149.5 145t-149.5 -139z" />
<glyph unicode="'" d="M465 1081v506h205v-506h-205z" />
<glyph unicode="(" d="M406 741.5q0 358.5 94 616.5t274 524l176 -113q-156 -231 -235.5 -460.5t-79.5 -566t78 -566t233 -457.5l-172 -116q-184 268 -276 524t-92 614.5z" />
<glyph unicode=")" d="M172 1769l176 113q182 -266 275 -524q94 -256 94 -615.5t-92.5 -615.5t-276.5 -524l-170 116q154 227 231.5 457t77.5 566.5t-78.5 566t-236.5 460.5z" />
<glyph unicode="*" d="M164 1130v205l285 -6l-103 260l215 74l72 -277l223 177l133 -179l-250 -155l248 -152l-133 -182l-225 176l-78 -272l-211 78l104 256z" />
<glyph unicode="+" d="M94 549v223h373v381h233v-381h377v-223h-377v-383h-233v383h-373z" />
<glyph unicode="," d="M401 -262q100 139 111 262h-109v338h332v-268q0 -213 -190 -404z" />
<glyph unicode="-" d="M256 510v225h657v-225h-657z" />
<glyph unicode="." d="M410 0v338h338v-338h-338z" />
<glyph unicode="/" d="M4 -27l967 1700l192 -110l-966 -1702z" />
<glyph unicode="0" d="M94 744.5q0 400.5 122 579.5t366.5 179t366.5 -179t122 -579.5t-124 -584t-366.5 -183.5t-364.5 183.5t-122 584zM346 794.5q0 -272.5 26.5 -394t76 -167t133.5 -45.5q129 0 185 117t56 438.5t-56 433t-185 111.5t-182.5 -110.5t-53.5 -383z" />
<glyph unicode="1" d="M98 1268l480 215h186v-1268h342v-215h-944v215h385l-2 1020l-363 -164z" />
<glyph unicode="2" d="M98 1305q106 80 235.5 138t227.5 58q205 0 340 -108.5t135 -321.5q0 -131 -57 -240.5t-143 -185.5q-84 -78 -172 -143q-227 -170 -269 -275h699v-227h-971v207q47 117 137 217q86 104 174 174l172 135q188 154 185 338q0 102 -60.5 159.5t-153 57.5t-168 -38t-192.5 -120 z" />
<glyph unicode="3" d="M90 78l76 207q229 -88 387 -88q276 0 276 202q0 264 -258 265l-247 -31l-29 205l174 26q303 47 303 256q0 96 -61.5 129t-169 33t-340.5 -102l-80 200q94 43 225 82t211 39q207 0 336 -86t129 -282q0 -152 -66 -220q-37 -41 -65.5 -59l-93.5 -57v-11q287 -70 286 -376 q0 -432 -530 -433q-213 1 -463 101z" />
<glyph unicode="4" d="M86 248v207l346 1026h236l-332 -1016h366v442h232v-442h172v-217h-172v-271h-232v271h-616z" />
<glyph unicode="5" d="M80 82l74 207q264 -92 396 -92t211 76.5t79 209.5t-62.5 208t-194.5 75t-259 -98l-158 47l22 766h867v-215h-654l-12 -332q104 57 225 57q242 0 361 -138t119 -367.5t-149.5 -371t-377 -141.5t-487.5 109z" />
<glyph unicode="6" d="M78 518q0 338 183 573.5t577 428.5l96 -220q-233 -115 -345 -198.5t-204 -218.5q84 68 260 67.5t317.5 -125.5t141.5 -356t-140.5 -363.5t-368.5 -132.5t-372.5 144.5t-144.5 400.5zM317 487q0 -168 82 -234.5t194 -66.5t193.5 71t81.5 216t-80.5 203.5t-187 58.5 t-195 -67.5t-88.5 -180.5z" />
<glyph unicode="7" d="M72 1139l61 342h922v-215q-14 -61 -99 -211l-168 -303q-86 -154 -160.5 -367t-78.5 -385h-238q0 180 66 385q68 205 145 354l160 301q80 154 90 226h-461l-39 -136z" />
<glyph unicode="8" d="M90 412q0 117 70.5 212t185.5 132q-229 98 -229 329q0 184 122.5 300t352 116t347.5 -114.5t118 -301.5q0 -121 -58.5 -205.5t-162.5 -117.5q252 -82 251 -350q0 -201 -133 -318t-373.5 -117t-365.5 121t-125 314zM336 414.5q0 -107.5 66.5 -169t188.5 -61.5t187.5 60.5 t65.5 170t-65.5 173t-188.5 63.5t-188.5 -64.5t-65.5 -172zM356 1085.5q0 -98.5 57.5 -162t174.5 -63.5t174 61.5t57 163.5q0 213 -231 213q-117 0 -174.5 -57t-57.5 -155.5z" />
<glyph unicode="9" d="M106 1005.5q0 231.5 133.5 362.5t371 131t370.5 -139t133 -404q0 -336 -237 -669q-72 -96 -121 -152l-105 -112q-55 -55 -57 -62l-270 43q10 12 100 107.5t131 148.5q143 168 236 340q-102 -51 -236 -51q-186 0 -317.5 112.5t-131.5 344zM348 1014.5q0 -142.5 79 -196.5 t186.5 -54t187.5 63.5t80 188.5q0 270 -269 270q-111 0 -187.5 -64.5t-76.5 -207z" />
<glyph unicode=":" d="M410 0v338h338v-338h-338zM410 678v338h338v-338h-338z" />
<glyph unicode=";" d="M401 -262q100 139 111 262h-109v338h332v-268q0 -213 -190 -404zM403 674v340h332v-340h-332z" />
<glyph unicode="&#x3c;" d="M102 520v297l879 467l106 -197l-774 -413l760 -393l-112 -203z" />
<glyph unicode="=" d="M82 287v219h1001v-219h-1001zM82 680v219h1001v-219h-1001z" />
<glyph unicode="&#x3e;" d="M102 1087l109 197l876 -467v-297l-856 -442l-114 203l762 393z" />
<glyph unicode="?" d="M236 1468q86 68 192.5 99.5t185.5 31.5q182 0 306 -94t124 -299q0 -55 -7 -99t-52 -123t-125 -157l-53 -49q-33 -31 -43 -43l-31 -33q-49 -51 -54 -79.5t-5 -58t16 -128.5l-217 -14q-29 61 -29 159.5t38 167t141.5 166t134 142.5t36 69.5t5.5 96t-57.5 114.5t-122 43 t-148.5 -26.5t-139 -73.5zM455 -14v286h268v-286h-268z" />
<glyph unicode="@" d="M70 500q0 338 168 529.5t473 191.5q102 0 195 -18.5t134 -37.5l43 -18v-1057q-135 -59 -330.5 -59t-274.5 109.5t-79 348t89.5 341t265.5 102.5q66 0 125 -12v124q-68 12 -168 13q-201 0 -323 -143.5t-122 -436.5q0 -584 453 -583q158 0 317 53l43 -158 q-172 -57 -362 -57q-317 0 -482 184.5t-165 583.5zM635 490.5q0 -142.5 30.5 -203t97 -60.5t116.5 17v485q-49 6 -117 6t-97.5 -51t-29.5 -193.5z" />
<glyph unicode="A" d="M0 0l371 1530h436l360 -1530h-256l-73 291h-519l-67 -291h-252zM369 510h417l-172 803h-51z" />
<glyph unicode="B" d="M104 0v1530h469q510 0 510 -397q0 -129 -65.5 -222.5t-177.5 -115.5q131 -20 204.5 -114.5t75.5 -246.5q0 -434 -567 -434h-449zM348 211h240q156 0 220 67.5t64 180t-70.5 164t-223.5 51.5h-230v-463zM348 885h223q274 0 275 229q0 205 -256 205h-242v-434z" />
<glyph unicode="C" d="M94 780q0 772 563 772q197 0 396 -67l-52 -199q-182 49 -339.5 49t-239.5 -120.5t-82 -440t66.5 -452t248 -132.5t385.5 60l43 -203q-238 -70 -400.5 -70t-261.5 37t-173 125q-154 180 -154 641z" />
<glyph unicode="D" d="M88 0v1530h365q184 0 297.5 -31t192.5 -115t111.5 -232t32.5 -419.5t-66.5 -437.5t-199.5 -230.5t-372 -64.5h-361zM332 211h69q135 0 214 19.5t132.5 80t73 167t19.5 289.5t-16.5 288.5t-69 167t-129 79t-219.5 17.5h-74v-1108z" />
<glyph unicode="E" d="M139 0v1530h895v-219h-651v-426h588v-211h-588v-455h657v-219h-901z" />
<glyph unicode="F" d="M150 0v1530h897v-219h-654v-520h557v-209h-557v-582h-243z" />
<glyph unicode="G" d="M51 761q0 413 141.5 602t442.5 189q238 0 430 -65l-43 -207q-162 55 -387 55q-184 0 -260 -133t-76 -429t81 -433t241 -137q115 0 241 30v363h-217v215h451v-754q-223 -78 -475 -77q-297 0 -433.5 184t-136.5 597z" />
<glyph unicode="H" d="M74 0v1530h245v-660h531v660h246v-1530h-246v651h-531v-651h-245z" />
<glyph unicode="I" d="M168 0v217h301v1096h-301v217h823v-217h-278v-1096h278v-217h-823z" />
<glyph unicode="J" d="M102 37l43 199q109 -33 219 -47q21 -3 38 -2q76 0 100 45q29 56 28 274v805h-352v219h740v-219h-146v-809q0 -317 -55 -423t-260 -106q-130 1 -355 64z" />
<glyph unicode="K" d="M115 0v1530h235v-666l127 19q154 238 309 540l54 107h264q-236 -467 -420 -744q68 -104 176 -301l260 -485h-264q-236 455 -360 655l-146 -12v-643h-235z" />
<glyph unicode="L" d="M160 0v1530h241v-1311h623v-219h-864z" />
<glyph unicode="M" d="M49 0v1530h232l292 -799h21l293 799h231v-1530h-219l6 1034h-8l-199 -516h-229l-199 516h-8l6 -1034h-219z" />
<glyph unicode="N" d="M72 0v1530h219l575 -959h11v959h219v-1530h-219v203l-578 948h-8v-1151h-219z" />
<glyph unicode="O" d="M57 774.5q0 405.5 125 591.5t406.5 186t401.5 -184t120 -599t-120 -603.5t-404.5 -188.5t-406.5 196t-122 601.5zM305 778.5q0 -311.5 56.5 -446.5t220 -135t222 119.5t58.5 456.5t-57 448.5t-215 111.5t-221.5 -121.5t-63.5 -433z" />
<glyph unicode="P" d="M104 0v1530h482q266 0 389 -123t123 -385q0 -532 -518 -533h-232v-489h-244zM348 713h201q156 0 228.5 73.5t72.5 236.5t-74 227.5t-227 64.5h-201v-602z" />
<glyph unicode="Q" d="M57 775q0 413 119 595t406.5 182t407.5 -182t120 -598t-123 -606l129 -176l-125 -160l-162 197q-102 -49 -245 -50q-281 0 -404 192.5t-123 605.5zM300 740q1 -245 60.5 -398.5t223.5 -153.5q49 0 80 11l-86 86l112 194l123 -123q53 133 53 428v18q0 308 -71 427 q-29 45 -84.5 77.5t-127 32.5t-126 -30.5t-83 -78.5t-46.5 -126q-28 -115 -28 -347v-17z" />
<glyph unicode="R" d="M86 0v1530h481q254 0 385 -113.5t131 -378.5q0 -303 -262 -426q162 -307 273 -612h-263q-104 283 -251 557q-127 -6 -142 -6h-108v-551h-244zM330 774h192q313 0 314 264q0 147 -75 212t-241 65h-190v-541z" />
<glyph unicode="S" d="M98 1120q0 432 518 432q182 0 416 -82l-53 -213q-240 76 -376 77h-6q-132 0 -190 -46q-60 -47 -61 -164q0 -78 67.5 -133t229.5 -96q244 -66 335 -169t91 -306q0 -440 -528 -440q-174 0 -441 73l50 223q0 -4 71 -22q227 -57 352 -57t186.5 62.5t61.5 158.5t-52 147 t-191 90q-254 72 -367 174.5t-113 290.5z" />
<glyph unicode="T" d="M66 1311v219h1032v-219h-396v-1311h-241v1311h-395z" />
<glyph unicode="U" d="M61 514v1016h244v-989q0 -178 60 -260q55 -82 213.5 -82t220 78.5t61.5 263.5v989h244v-1016q0 -274 -118 -404t-411.5 -130t-403.5 133t-110 401z" />
<glyph unicode="V" d="M31 1530h272l287 -1284l280 1284h271l-373 -1530h-358z" />
<glyph unicode="W" d="M0 1530h233l103 -1315h14l146 680h206l138 -680h16l82 1315h227l-104 -1530h-356l-107 602h-8l-111 -602h-346z" />
<glyph unicode="X" d="M20 0l377 784l-358 746h293l235 -561h11l233 561h285l-361 -746l398 -784h-297l-273 584h-8l-248 -584h-287z" />
<glyph unicode="Y" d="M0 1530h270l303 -643h21l303 643h270l-462 -868v-662h-242v662z" />
<glyph unicode="Z" d="M143 0v166l586 1145h-579v219h870v-193l-571 -1118h606v-219h-912z" />
<glyph unicode="[" d="M387 -365v2216h500v-219h-254v-1777h254v-220h-500z" />
<glyph unicode="\" d="M4 1563l193 110l966 -1700l-192 -112z" />
<glyph unicode="]" d="M281 -145h254v1777h-254v219h499v-2216h-499v220z" />
<glyph unicode="_" d="M0 -199h1167v-213h-1167v213z" />
<glyph unicode="a" d="M94 330q0 188 120 264t333 76q100 0 227 -13q0 141 -39 192.5t-137 51.5t-229 -23.5t-201 -46.5l-45 222q246 76 479.5 75.5t323.5 -103.5t90 -347v-475l24 -205l-239 -25l-23 109q-197 -109 -311 -109q-373 1 -373 357zM352 330q0 -129 152 -129q66 0 145.5 30.5 t124.5 67.5v164q-139 10 -227 10q-195 0 -195 -143z" />
<glyph unicode="b" d="M133 0v1556h240v-528q145 100 272 100q242 0 349.5 -141t107.5 -440t-132 -436.5t-349 -137.5q-100 0 -250 74l-4 -47h-234zM373 270q141 -70 252.5 -69.5t165 85.5t53.5 263q0 352 -230 352q-115 0 -241 -104v-527z" />
<glyph unicode="c" d="M137 551q0 582 518 582q195 0 351 -48l-35 -223q-154 41 -298.5 41t-210 -80t-65.5 -258t56.5 -272t212 -94t305.5 41l35 -224q-162 -47 -349 -47q-520 0 -520 582z" />
<glyph unicode="d" d="M98 532.5q0 303.5 133.5 449.5t346.5 146q123 0 249 -55v483h238v-1361l22 -195l-235 -23l-21 107q-152 -111 -296 -111q-217 0 -327 128t-110 431.5zM356 532q0 -334 195 -333q123 0 276 125v522q-123 57 -239 57q-232 0 -232 -371z" />
<glyph unicode="e" d="M115 553q0 283 126 429t350 146t347 -132t127 -386l-10 -174h-682q23 -252 254 -252q160 0 340 60l49 -205q-76 -25 -195 -45.5t-194 -20.5q-512 0 -512 580zM373 633h432q0 279 -205 278q-111 0 -165 -64t-62 -214z" />
<glyph unicode="f" d="M143 0v211h238v688h-229v211h229q0 256 84 366.5t287 110.5q137 0 303 -39l-37 -213q-145 33 -242.5 33t-129.5 -58.5t-32 -199.5h400v-211h-400v-688h404v-211h-875z" />
<glyph unicode="g" d="M96 555q0 291 127 429t348 138q49 0 125 -22.5t127 -50.5l6 67h236v-848l6 -321q0 -201 -135 -308.5t-366.5 -107.5t-448.5 76l59 215q209 -70 347.5 -70t221 48t82.5 145q0 18 -4 72.5t-4 84.5q-150 -104 -288 -104q-215 0 -327 133t-112 424zM354 560q0 -341 197 -341 q119 0 272 117v481q-133 84 -243 84q-226 0 -226 -341z" />
<glyph unicode="h" d="M131 0v1556h240v-512q190 84 297 84q201 0 283.5 -116.5t82.5 -341.5v-670h-239v674q0 98 -39 162.5t-103 64.5q-115 0 -282 -84v-817h-240z" />
<glyph unicode="i" d="M221 0v215h279v674h-260v215h499v-889h260v-215h-778zM463 1414.5q0 60.5 41 103.5q43 43 103.5 43t102.5 -41t42 -104.5t-42 -107.5t-100.5 -44t-102.5 45t-44 105.5z" />
<glyph unicode="j" d="M203 -268q238 35 308.5 73.5t70.5 171.5v922h-275v211h514v-1133q0 -211 -102 -317q-80 -84 -279 -123q-162 -31 -204 -31h-5zM545 1437.5q0 59.5 42 102.5t104.5 43t102.5 -42t40 -104.5t-40 -106.5t-102.5 -44t-104.5 46t-42 105.5z" />
<glyph unicode="k" d="M180 0v1556h240v-892l160 16q59 78 164.5 252t107.5 178h260q-262 -426 -342 -520q45 -61 111 -168l252 -422h-279l-109 197q-111 197 -161 276l-164 -18v-455h-240z" />
<glyph unicode="l" d="M221 0v211h264v1135l-254 -3l-2 211l498 2v-1345h260v-211h-766z" />
<glyph unicode="m" d="M53 0v1110h230l6 -63q90 82 174 81q119 0 180 -90q121 90 213 90q141 0 200.5 -81.5t59.5 -303.5v-743h-237v639q0 215 -39 248q-18 18 -53 18t-89 -45q12 -55 13 -221v-258h-238v258q0 213 -24 248q-14 18 -48 18t-102 -51v-854h-246z" />
<glyph unicode="n" d="M131 0v1110h234l4 -70q188 88 297 88q188 0 278 -111.5t90 -346.5v-670h-239v664q0 111 -40 174t-124 63t-260 -82v-819h-240z" />
<glyph unicode="o" d="M98 551q0 295 119 436t366.5 141t366.5 -141t119 -436t-119 -438.5t-366.5 -143.5t-366.5 143.5t-119 438.5zM356 551q0 -186 49.5 -270t178.5 -84t178 84t49 270t-48 268t-179 82t-179.5 -82t-48.5 -268z" />
<glyph unicode="p" d="M119 1110l233 14l15 -102q156 106 278 106q236 0 346.5 -139t110.5 -433t-135.5 -438.5t-384.5 -144.5q-84 0 -209 50v-472h-240v1356zM373 246q113 -49 205 -49q266 0 266 354q0 352 -207 352h-2q-106 0 -262 -102v-555z" />
<glyph unicode="q" d="M98 538.5q0 288.5 125 439t344 150.5q152 0 267 -67l10 61h223v-1566h-240v512q-57 -39 -141 -65t-139 -26q-231 0 -340 136.5t-109 425zM356 532q0 -172 50.5 -253.5t170 -81.5t250.5 108v535q-109 63 -256 63q-215 0 -215 -371z" />
<glyph unicode="r" d="M188 0v215h181v680h-181v215h422l4 -113q74 41 195 80t223 51v-233q-92 -10 -218 -50t-200 -81v-553h340v-211h-766z" />
<glyph unicode="s" d="M147 51l52 213q221 -70 352 -69.5t178 24.5q45 25 45 85.5t-42 86t-159 53.5q-229 55 -320 124t-91 227q0 334 428 333q184 0 428 -61l-45 -221q-229 66 -356.5 65.5t-170.5 -23t-43 -76.5t43 -77.5t223.5 -73t264.5 -114t84 -217.5q0 -352 -434 -353q-204 0 -437 74z " />
<glyph unicode="t" d="M150 895v215h178v264l239 25v-289h416v-215h-416v-471q0 -127 27 -178t120 -51t249 36l38 -211q-178 -47 -303 -47q-225 0 -297.5 101.5t-72.5 349.5v471h-178z" />
<glyph unicode="u" d="M123 432v678h242v-664q0 -242 155 -241q125 0 266 96v809h242v-1110h-233l-7 82q-186 -104 -303 -105q-188 0 -275 108.5t-87 346.5z" />
<glyph unicode="v" d="M78 1110h256l235 -897h43l226 897h256l-297 -1110h-416z" />
<glyph unicode="w" d="M-4 1110h242l92 -895h24l56 530h348l63 -530h29l86 895h233l-120 -1110h-396l-59 506h-23l-43 -506h-405z" />
<glyph unicode="x" d="M57 -2l367 565l-354 549h301l213 -375l211 375h292l-337 -549l362 -565h-299l-229 385l-228 -385h-299z" />
<glyph unicode="y" d="M68 1110h262l268 -903h18l228 903h254l-310 -1081q-49 -174 -91 -266.5t-116.5 -150.5t-165.5 -74.5t-255 -18.5v217q141 0 208.5 30.5t94.5 96.5l14 35z" />
<glyph unicode="z" d="M162 168l508 727h-482v215h793l14 -195l-497 -700h499v-215h-817z" />
<glyph unicode="{" d="M244 666v194l209 90q0 197 -11.5 398.5t-11.5 271.5q0 231 227 231h254v-186h-157q-68 0 -92.5 -22.5t-24.5 -92t12.5 -288t12.5 -412.5l-201 -80v-18l201 -78q0 -172 -12.5 -409.5t-12.5 -317.5t25.5 -102.5t91.5 -22.5h157v-187h-254q-227 0 -227 232q0 94 11.5 310 t11.5 388z" />
<glyph unicode="|" d="M465 -569v2304h240v-2304h-240z" />
<glyph unicode="}" d="M244 -178h155q66 0 91.5 22.5t25.5 102.5t-11 317.5t-11 409.5l200 78v18l-200 80q0 195 10 414q12 217 12 286.5t-24.5 92t-92.5 22.5h-155v186h252q227 0 227 -231q0 -70 -11.5 -271.5t-11.5 -398.5l211 -90v-194l-211 -101q0 -172 11.5 -388t11.5 -310 q0 -231 -227 -232h-252v187z" />
<glyph unicode="~" d="M82 604q164 211 321 211q94 0 213 -76q121 -74 163 -73.5t77 26t84 82.5l156 -117q-158 -207 -310 -206q-90 2 -220 78.5t-160 76.5q-86 0 -187 -123z" />
<glyph unicode="&#xa0;" />
<glyph unicode="&#xa1;" d="M430 852v319h313v-319h-313zM449 -371l28 1090h223l27 -1090h-278z" />
<glyph unicode="&#xa2;" d="M137 553q0 258 96.5 394t294.5 167v168h238v-166q121 -10 205 -31l28 -6l-53 -217q-150 43 -296 43t-206.5 -77.5t-60.5 -267t65.5 -277.5t210 -88t312.5 41l35 -207q-106 -33 -240 -45v-152h-238v154q-391 61 -391 567z" />
<glyph unicode="&#xa3;" d="M90 182l70 47q41 27 108.5 111t67.5 156q0 125 -37 188h-193v211h127q-53 119 -53 207q0 209 121 330.5t361 121.5q141 0 311 -43l-37 -206q-137 39 -279 38q-246 0 -245 -241q0 -135 41 -207h454v-211h-372q43 -82 43 -165t-52.5 -152.5t-103.5 -106.5l-51 -39l8 -8 q104 35 146 35t133.5 -33t146.5 -33q106 0 180 49l23 17l77 -191q-109 -84 -280 -84q-61 0 -162.5 31t-177.5 31q-133 2 -260 -45l-41 -17z" />
<glyph unicode="&#xa4;" d="M23 354l167 197q-94 119 -94 287t99 282l-162 191l162 127l165 -183q205 113 439 0l164 183l159 -127l-161 -191q96 -117 98 -284.5t-94 -284.5l168 -197l-164 -131l-166 189q-135 -63 -226.5 -62.5t-216.5 62.5l-170 -191zM303 831.5q0 -120.5 79 -193.5t187.5 -75 t202.5 80q76 76 75 194.5t-80 193.5t-190.5 78t-192.5 -77t-81 -200.5z" />
<glyph unicode="&#xa5;" d="M-2 1530h278l310 -561l315 561h264l-383 -641h267v-209h-347v-125h347v-209h-347v-346h-237v346h-348v209h348v125h-348v209h266z" />
<glyph unicode="&#xa6;" d="M463 457h239v-1026h-239v1026zM463 707v1028h239v-1028h-239z" />
<glyph unicode="&#xa7;" d="M147 1231q0 336 457 336q150 0 352 -68l-51 -201q-172 59 -299 61.5t-173 -26t-46 -91t41 -100.5t172 -75q233 -66 314 -135.5t81 -195.5t-67 -199q80 -66 80 -220.5t-117 -247t-318.5 -92.5t-404.5 60l49 219q236 -61 335 -61t142 22.5t53.5 48t10.5 64.5q0 47 -129 80 q-39 8 -60 14q-246 72 -326.5 145.5t-80.5 214.5q0 94 88 187q-103 84 -103 260zM389 796.5q0 -51.5 45 -82t193 -71.5l108 -31q31 39 31 115q0 70 -211 123q-86 20 -125 37q-41 -39 -41 -90.5z" />
<glyph unicode="&#xa9;" d="M23 634q0 310 145 479t418 169q559 0 559 -651q0 -319 -149.5 -482t-421 -163t-411.5 169t-140 479zM166 631q0 -266 107.5 -385t312.5 -119t308 113.5t103 390t-98 393.5t-311 117q-422 0 -422 -510zM305 633.5q0 189.5 64.5 271.5t220.5 82q98 0 211 -37l-37 -147 q-84 29 -158 28.5t-100.5 -41t-26.5 -151.5t28 -148.5t105 -37.5q45 0 125 20l27 8l37 -147q-96 -37 -191 -37q-162 0 -233.5 73.5t-71.5 263z" />
<glyph unicode="&#xaa;" d="M281 1065q0 119 70.5 169t211.5 50q66 0 115 -6q-4 59 -23 84q-16 23 -67 22.5t-135 -16.5t-129 -33l-33 164q172 51 312 51t198.5 -63.5t58.5 -220.5v-277l17 -137l-181 -18l-12 51q-84 -49 -168 -49q-235 0 -235 229zM467 1064.5q0 -63.5 69.5 -63.5t141.5 56v65 q-66 6 -115 6q-96 0 -96 -63.5z" />
<glyph unicode="&#xab;" d="M70 436v187l536 383v-267l-340 -209l340 -215v-266zM565 436v187l537 383v-267l-340 -209l340 -215v-266z" />
<glyph unicode="&#xac;" d="M84 870v244h1010v-575h-244v331h-766z" />
<glyph unicode="&#xad;" d="M256 510v225h657v-225h-657z" />
<glyph unicode="&#xae;" d="M0 1031q0 267 157.5 422t428 155t426 -148.5t155.5 -426t-156.5 -431t-426 -153.5t-427 157.5t-157.5 424.5zM139 1030.5q0 -448.5 442.5 -448.5t442.5 448.5t-442.5 448.5t-442.5 -448.5zM365 727v635h180q141 0 215 -48t74 -177t-107 -174q43 -68 94 -199l15 -37h-154 q-45 117 -100 209h-76v-209h-141zM506 1057h24q90 0 122 16.5t32 73.5t-30.5 69.5t-116.5 12.5h-31v-172z" />
<glyph unicode="&#xb0;" d="M252 1300.5q0 137.5 96 227.5t238.5 90t234.5 -90t92 -228.5t-93 -228.5t-237.5 -90t-237.5 91t-93 228.5zM430 1301.5q0 -70.5 41 -113.5t108.5 -43t111.5 43t44 113.5t-41 112.5t-111.5 42t-111.5 -42t-41 -112.5z" />
<glyph unicode="&#xb1;" d="M94 45v215h979v-215h-979zM94 637v217h373v317h233v-317h373v-217h-373v-297h-233v297h-373z" />
<glyph unicode="&#xb2;" d="M98 1305q106 80 235.5 138t227.5 58q205 0 340 -108.5t135 -321.5q0 -131 -57 -240.5t-143 -185.5q-84 -78 -172 -143q-227 -170 -269 -275h699v-227h-971v207q47 117 137 217q86 104 174 174l172 135q188 154 185 338q0 102 -60.5 159.5t-153 57.5t-168 -38t-192.5 -120 z" />
<glyph unicode="&#xb3;" d="M90 78l76 207q229 -88 387 -88q276 0 276 202q0 264 -258 265l-247 -31l-29 205l174 26q303 47 303 256q0 96 -61.5 129t-169 33t-340.5 -102l-80 200q94 43 225 82t211 39q207 0 336 -86t129 -282q0 -152 -66 -220q-37 -41 -65.5 -59l-93.5 -57v-11q287 -70 286 -376 q0 -432 -530 -433q-213 1 -463 101z" />
<glyph unicode="&#xb5;" d="M84 -385q31 74 39 119t8 151v1225h240v-680q0 -223 139 -223q162 0 287 92v811h239v-1110h-233l-4 68q-186 -90 -273.5 -90.5t-138.5 22.5t-68 49l21 -127v-49q0 -203 -80 -338z" />
<glyph unicode="&#x3bc;" d="M84 -385q31 74 39 119t8 151v1225h240v-680q0 -223 139 -223q162 0 287 92v811h239v-1110h-233l-4 68q-186 -90 -273.5 -90.5t-138.5 22.5t-68 49l21 -127v-49q0 -203 -80 -338z" />
<glyph unicode="&#xb6;" d="M96 965q0 252 102.5 384t366.5 132h123v-1481h-123v463q-264 18 -366.5 134t-102.5 368zM217 967q0 -211 72.5 -291t275.5 -98v786q-209 -2 -278 -94q-70 -92 -70 -303zM938 0v1481h125v-1481h-125z" />
<glyph unicode="&#xb7;" d="M424 700q0 84 41 134.5t113.5 50.5t112.5 -49.5t40 -135.5q0 -176 -153 -176q-72 0 -113 46t-41 130z" />
<glyph unicode="&#xb9;" d="M98 1268l480 215h186v-1268h342v-215h-944v215h385l-2 1020l-363 -164z" />
<glyph unicode="&#xba;" d="M250 1192q0 176 83 268t234.5 92t233.5 -92t82 -268t-82 -270.5t-233.5 -94.5t-234.5 94.5t-83 270.5zM432 1189q0 -200 134 -200t134 200t-134 200t-134 -200z" />
<glyph unicode="&#xbb;" d="M70 49v266l342 215l-342 209v267l536 -383v-187zM565 49v266l340 215l-340 209v267l537 -383v-187z" />
<glyph unicode="&#xbc;" horiz-adv-x="3500" d="M2421 248v207l346 1026h236l-332 -1016h366v442h232v-442h172v-217h-172v-271h-232v271h-616zM1327 0l622 1552h219l-622 -1552h-219zM98 1268l480 215h186v-1268h342v-215h-944v215h385l-2 1020l-363 -164z" />
<glyph unicode="&#xbd;" horiz-adv-x="3500" d="M2433 1305q106 80 235.5 138t227.5 58q205 0 340 -108.5t135 -321.5q0 -131 -57 -240.5t-143 -185.5q-84 -78 -172 -143q-227 -170 -269 -275h699v-227h-971v207q47 117 137 217q86 104 174 174l172 135q188 154 185 338q0 102 -60.5 159.5t-153 57.5t-168 -38 t-192.5 -120zM1327 0l622 1552h219l-622 -1552h-219zM98 1268l480 215h186v-1268h342v-215h-944v215h385l-2 1020l-363 -164z" />
<glyph unicode="&#xbe;" horiz-adv-x="3500" d="M2421 248v207l346 1026h236l-332 -1016h366v442h232v-442h172v-217h-172v-271h-232v271h-616zM1327 0l622 1552h219l-622 -1552h-219zM90 78l76 207q229 -88 387 -88q276 0 276 202q0 264 -258 265l-247 -31l-29 205l174 26q303 47 303 256q0 96 -61.5 129t-169 33 t-340.5 -102l-80 200q94 43 225 82t211 39q207 0 336 -86t129 -282q0 -152 -66 -220q-37 -41 -65.5 -59l-93.5 -57v-11q287 -70 286 -376q0 -432 -530 -433q-213 1 -463 101z" />
<glyph unicode="&#xbf;" d="M180 -80q0 57 7.5 101.5t51.5 122t126 157.5l51 49l45 43l28 31q49 53 54.5 82t5.5 58.5t-17 125.5l218 15q31 -59 30.5 -157.5t-39.5 -167.5t-141 -166t-134 -142t-37 -70t-5 -96.5t57.5 -114.5t122 -43t148.5 26.5t139 73.5l96 -188q-86 -70 -192.5 -100.5 t-184.5 -30.5q-182 0 -306 94t-124 297zM500 854v287h268v-287h-268z" />
<glyph unicode="&#xc0;" d="M0 0l371 1530h436l360 -1530h-256l-73 291h-519l-67 -291h-252zM281 1913l84 190l473 -205l-74 -182zM369 510h417l-172 803h-51z" />
<glyph unicode="&#xc1;" d="M0 0l371 1530h436l360 -1530h-256l-73 291h-519l-67 -291h-252zM365 1896l479 205l78 -190l-482 -197zM369 510h417l-172 803h-51z" />
<glyph unicode="&#xc2;" d="M0 0l371 1530h436l360 -1530h-256l-73 291h-519l-67 -291h-252zM203 1733l295 325h186l295 -325h-229l-160 186l-158 -186h-229zM369 510h417l-172 803h-51z" />
<glyph unicode="&#xc3;" d="M0 0l371 1530h436l360 -1530h-256l-73 291h-519l-67 -291h-252zM201 1933q137 133 248 133q76 0 167 -49q94 -49 140.5 -49t113.5 64l97 -131q-115 -123 -224 -123q-82 0 -172 47q-86 53 -137 53t-129 -74zM369 510h417l-172 803h-51z" />
<glyph unicode="&#xc4;" d="M0 0l371 1530h436l360 -1530h-256l-73 291h-519l-67 -291h-252zM227 1895.5q0 54.5 38 94.5t92.5 40t92 -40t37.5 -94.5t-36.5 -93.5t-93 -39t-93.5 39t-37 93.5zM369 510h417l-172 803h-51zM678 1895.5q0 54.5 37 94.5t93 40t93 -40t37 -94.5t-37 -93.5t-93 -39t-93 39 t-37 93.5z" />
<glyph unicode="&#xc5;" d="M0 0l371 1530h436l360 -1530h-256l-73 291h-519l-67 -291h-252zM303 1912q0 118 77 187.5t202 69.5t202.5 -69.5t77.5 -187.5t-77.5 -188.5t-202.5 -70.5t-202 70.5t-77 188.5zM369 510h417l-172 803h-51zM465 1909.5q0 -105.5 116.5 -105.5t116.5 105.5t-116.5 105.5 t-116.5 -105.5z" />
<glyph unicode="&#xc6;" d="M0 0l360 1530h756v-219h-282v-426h219v-211h-219v-455h288v-219h-532v291h-271l-67 -291h-252zM369 510h221v803h-39z" />
<glyph unicode="&#xc7;" d="M94 780q0 772 563 772q197 0 396 -67l-52 -199q-182 49 -339.5 49t-239.5 -120.5t-82 -440t66.5 -452t248 -132.5t385.5 60l43 -203q-238 -70 -400.5 -70t-261.5 37t-173 125q-154 180 -154 641zM467 -584l18 148q82 -8 109 -8q104 0 104 98q0 51 -24.5 72.5t-79.5 21.5 l-98 -8l-23 143q76 18 137 19q113 0 186.5 -64.5t73.5 -184.5t-69.5 -186.5t-190.5 -66.5q-49 0 -143 16z" />
<glyph unicode="&#xc8;" d="M139 0v1530h895v-219h-651v-426h588v-211h-588v-455h657v-219h-901zM301 1913l84 190l475 -205l-76 -182z" />
<glyph unicode="&#xc9;" d="M139 0v1530h895v-219h-651v-426h588v-211h-588v-455h657v-219h-901zM328 1896l477 205l80 -190l-482 -197z" />
<glyph unicode="&#xca;" d="M139 0v1530h895v-219h-651v-426h588v-211h-588v-455h657v-219h-901zM203 1755l295 303h186l295 -303h-229l-160 164l-158 -164h-229z" />
<glyph unicode="&#xcb;" d="M139 0v1530h895v-219h-651v-426h588v-211h-588v-455h657v-219h-901zM227 1895.5q0 54.5 38 94.5t92.5 40t92 -40t37.5 -94.5t-36.5 -93.5t-93 -39t-93.5 39t-37 93.5zM678 1895.5q0 54.5 37 94.5t93 40t93 -40t37 -94.5t-37 -93.5t-93 -39t-93 39t-37 93.5z" />
<glyph unicode="&#xcc;" d="M168 0v217h301v1096h-301v217h823v-217h-278v-1096h278v-217h-823zM287 1913l84 190l475 -205l-76 -182z" />
<glyph unicode="&#xcd;" d="M168 0v217h301v1096h-301v217h823v-217h-278v-1096h278v-217h-823zM311 1896l477 205l80 -190l-481 -197z" />
<glyph unicode="&#xce;" d="M168 0v217h301v1096h-301v217h823v-217h-278v-1096h278v-217h-823zM203 1733l295 325h186l295 -325h-229l-160 186l-158 -186h-229z" />
<glyph unicode="&#xcf;" d="M168 0v217h301v1096h-301v217h823v-217h-278v-1096h278v-217h-823zM227 1895.5q0 54.5 38 94.5t92.5 40t92 -40t37.5 -94.5t-36.5 -93.5t-93 -39t-93.5 39t-37 93.5zM678 1895.5q0 54.5 37 94.5t93 40t93 -40t37 -94.5t-37 -93.5t-93 -39t-93 39t-37 93.5z" />
<glyph unicode="&#xd0;" d="M18 631v225h99v674h336q184 0 297.5 -31t192.5 -115t111.5 -232t32.5 -419.5t-66.5 -437.5t-199.5 -230.5t-372 -64.5h-332v631h-99zM360 211h41q135 0 214 19.5t132.5 80t73 167t19.5 289.5t-16.5 288.5t-69 167t-129 79t-219.5 17.5h-46v-463h211v-225h-211v-420z" />
<glyph unicode="&#xd1;" d="M72 0v1530h219l575 -959h11v959h219v-1530h-219v203l-578 948h-8v-1151h-219zM201 1933q137 133 248 133q76 0 167 -49q94 -49 140.5 -49t113.5 64l97 -131q-115 -123 -224 -123q-82 0 -172 47q-86 53 -137 53t-129 -74z" />
<glyph unicode="&#xd2;" d="M57 774.5q0 405.5 125 591.5t406.5 186t401.5 -184t120 -599t-120 -603.5t-404.5 -188.5t-406.5 196t-122 601.5zM305 778.5q0 -311.5 56.5 -446.5t220 -135t222 119.5t58.5 456.5t-57 448.5t-215 111.5t-221.5 -121.5t-63.5 -433zM307 1913l86 190l473 -205l-75 -182z " />
<glyph unicode="&#xd3;" d="M57 774.5q0 405.5 125 591.5t406.5 186t401.5 -184t120 -599t-120 -603.5t-404.5 -188.5t-406.5 196t-122 601.5zM305 778.5q0 -311.5 56.5 -446.5t220 -135t222 119.5t58.5 456.5t-57 448.5t-215 111.5t-221.5 -121.5t-63.5 -433zM344 1896l477 205l80 -190l-481 -197z " />
<glyph unicode="&#xd4;" d="M57 774.5q0 405.5 125 591.5t406.5 186t401.5 -184t120 -599t-120 -603.5t-404.5 -188.5t-406.5 196t-122 601.5zM203 1755l295 303h186l295 -303h-229l-160 164l-158 -164h-229zM305 778.5q0 -311.5 56.5 -446.5t220 -135t222 119.5t58.5 456.5t-57 448.5t-215 111.5 t-221.5 -121.5t-63.5 -433z" />
<glyph unicode="&#xd5;" d="M57 774.5q0 405.5 125 591.5t406.5 186t401.5 -184t120 -599t-120 -603.5t-404.5 -188.5t-406.5 196t-122 601.5zM201 1933q137 133 248 133q76 0 167 -49t139 -49t115 64l97 -131q-115 -123 -224 -123q-82 0 -171 50t-139 50t-128 -74zM305 778.5q0 -311.5 56.5 -446.5 t220 -135t222 119.5t58.5 456.5t-57 448.5t-215 111.5t-221.5 -121.5t-63.5 -433z" />
<glyph unicode="&#xd6;" d="M57 774.5q0 405.5 125 591.5t406.5 186t401.5 -184t120 -599t-120 -603.5t-404.5 -188.5t-406.5 196t-122 601.5zM227 1895.5q0 54.5 38 94.5t92.5 40t92 -40t37.5 -94.5t-36.5 -93.5t-93 -39t-93.5 39t-37 93.5zM305 778.5q0 -311.5 56.5 -446.5t220 -135t222 119.5 t58.5 456.5t-57 448.5t-215 111.5t-221.5 -121.5t-63.5 -433zM678 1895.5q0 54.5 37 94.5t93 40t93 -40t37 -94.5t-37 -93.5t-93 -39t-93 39t-37 93.5z" />
<glyph unicode="&#xd7;" d="M90 1014l172 160l316 -318l319 315l166 -157l-320 -320l318 -321l-164 -162l-319 319l-318 -319l-166 160l320 323z" />
<glyph unicode="&#xd8;" d="M57 781.5q0 398.5 125 584.5t402 186q197 0 313 -86l49 86l141 -79l-79 -138q102 -184 102 -582.5t-120 -587t-406 -188.5q-188 0 -303 86l-50 -86l-143 76l80 142q-111 188 -111 586.5zM305 835q0 -255 19 -368l454 795q-57 72 -201.5 71.5t-208 -122t-63.5 -376.5z M399 270q61 -74 185 -73q162 0 220 119.5t58 463.5q0 164 -14 275z" />
<glyph unicode="&#xd9;" d="M61 514v1016h244v-989q0 -178 60 -260q55 -82 213.5 -82t220 78.5t61.5 263.5v989h244v-1016q0 -274 -118 -404t-411.5 -130t-403.5 133t-110 401zM283 1913l84 190l473 -205l-74 -182z" />
<glyph unicode="&#xda;" d="M61 514v1016h244v-989q0 -178 60 -260q55 -82 213.5 -82t220 78.5t61.5 263.5v989h244v-1016q0 -274 -118 -404t-411.5 -130t-403.5 133t-110 401zM352 1896l479 205l80 -190l-481 -197z" />
<glyph unicode="&#xdb;" d="M61 514v1016h244v-989q0 -178 60 -260q55 -82 213.5 -82t220 78.5t61.5 263.5v989h244v-1016q0 -274 -118 -404t-411.5 -130t-403.5 133t-110 401zM203 1755l295 303h186l295 -303h-229l-160 164l-158 -164h-229z" />
<glyph unicode="&#xdc;" d="M61 514v1016h244v-989q0 -178 60 -260q55 -82 213.5 -82t220 78.5t61.5 263.5v989h244v-1016q0 -274 -118 -404t-411.5 -130t-403.5 133t-110 401zM227 1895.5q0 54.5 38 94.5t92.5 40t92 -40t37.5 -94.5t-36.5 -93.5t-93 -39t-93.5 39t-37 93.5zM678 1895.5 q0 54.5 37 94.5t93 40t93 -40t37 -94.5t-37 -93.5t-93 -39t-93 39t-37 93.5z" />
<glyph unicode="&#xdd;" d="M0 1530h270l303 -643h21l303 643h270l-462 -868v-662h-242v662zM346 1819l422 235l100 -203l-430 -202z" />
<glyph unicode="&#xde;" d="M102 0v1530h232v-246h188q133 0 237.5 -56.5t157 -146.5t76 -196.5t-3 -215t-81 -198.5t-158 -146.5t-232.5 -56.5h-184v-268h-232zM334 479h137q102 0 173 61.5t87.5 147.5t1 174t-84 149.5t-171.5 61.5h-143v-594z" />
<glyph unicode="&#xdf;" d="M61 0v1096q0 215 128 335.5t368 120.5q467 0 467 -346v-276q-201 -12 -307 -35q-72 -16 -72 -77.5t25.5 -88.5t115.5 -63q221 -88 282.5 -152.5t61.5 -219.5t-91 -236t-294.5 -81t-349.5 46l54 213q121 -45 242.5 -45.5t156.5 27.5t35 93q0 33 -35 54.5t-131 58.5 q-193 76 -254.5 153.5t-61.5 227.5q0 276 316 307l71 6v62q0 156 -231 155q-133 0 -194.5 -56t-61.5 -192v-1087h-240z" />
<glyph unicode="&#xe0;" d="M94 330q0 188 120 264t333 76q100 0 227 -13q0 141 -39 192.5t-137 51.5t-229 -23.5t-201 -46.5l-45 222q246 76 479.5 75.5t323.5 -103.5t90 -347v-475l24 -205l-239 -25l-23 109q-197 -109 -311 -109q-373 1 -373 357zM322 1513l100 203l424 -235l-94 -170zM352 330 q0 -129 152 -129q66 0 145.5 30.5t124.5 67.5v164q-139 10 -227 10q-195 0 -195 -143z" />
<glyph unicode="&#xe1;" d="M94 330q0 188 120 264t333 76q100 0 227 -13q0 141 -39 192.5t-137 51.5t-229 -23.5t-201 -46.5l-45 222q246 76 479.5 75.5t323.5 -103.5t90 -347v-475l24 -205l-239 -25l-23 109q-197 -109 -311 -109q-373 1 -373 357zM291 1481l424 235l100 -203l-430 -202zM352 330 q0 -129 152 -129q66 0 145.5 30.5t124.5 67.5v164q-139 10 -227 10q-195 0 -195 -143z" />
<glyph unicode="&#xe2;" d="M94 330q0 188 120 264t333 76q100 0 227 -13q0 141 -39 192.5t-137 51.5t-229 -23.5t-201 -46.5l-45 222q246 76 479.5 75.5t323.5 -103.5t90 -347v-475l24 -205l-239 -25l-23 109q-197 -109 -311 -109q-373 1 -373 357zM221 1372l252 367h221l252 -367h-239l-123 201 l-123 -201h-240zM352 330q0 -129 152 -129q66 0 145.5 30.5t124.5 67.5v164q-139 10 -227 10q-195 0 -195 -143z" />
<glyph unicode="&#xe3;" d="M94 330q0 188 120 264t333 76q100 0 227 -13q0 141 -39 192.5t-137 51.5t-229 -23.5t-201 -46.5l-45 222q246 76 479.5 75.5t323.5 -103.5t90 -347v-475l24 -205l-239 -25l-23 109q-197 -109 -311 -109q-373 1 -373 357zM170 1548q137 133 248 133q78 0 169 -49t137 -49 t116 64l96 -131q-115 -125 -223 -125q-82 0 -171 50t-140.5 50t-125.5 -72zM352 330q0 -129 152 -129q66 0 145.5 30.5t124.5 67.5v164q-139 10 -227 10q-195 0 -195 -143z" />
<glyph unicode="&#xe4;" d="M94 330q0 188 120 264t333 76q100 0 227 -13q0 141 -39 192.5t-137 51.5t-229 -23.5t-201 -46.5l-45 222q246 76 479.5 75.5t323.5 -103.5t90 -347v-475l24 -205l-239 -25l-23 109q-197 -109 -311 -109q-373 1 -373 357zM227 1510.5q0 54.5 38 94.5t92.5 40t92 -40 t37.5 -94.5t-36.5 -93.5t-93 -39t-93.5 39t-37 93.5zM352 330q0 -129 152 -129q66 0 145.5 30.5t124.5 67.5v164q-139 10 -227 10q-195 0 -195 -143zM678 1510.5q0 54.5 37 94.5t93 40t93 -40t37 -94.5t-37 -93.5t-93 -39t-93 39t-37 93.5z" />
<glyph unicode="&#xe5;" d="M94 330q0 188 120 264t333 76q100 0 227 -13q0 141 -39 192.5t-137 51.5t-229 -23.5t-201 -46.5l-45 222q246 76 478.5 75.5t323.5 -103.5t91 -347v-475l24 -205l-239 -25l-23 109q-197 -109 -311 -109q-373 1 -373 357zM303 1467.5q0 117.5 77 187t202 69.5t202.5 -69.5 t77.5 -187t-77.5 -187.5t-202.5 -70t-202 70t-77 187.5zM352 330q0 -129 152 -129q66 0 145.5 30.5t124.5 67.5v164q-139 10 -227 10q-195 0 -195 -143zM465 1466.5q0 -104.5 116.5 -104.5t116.5 104.5t-116.5 104.5t-116.5 -104.5z" />
<glyph unicode="&#xe6;" d="M45 309.5q0 153.5 87 253t233 99.5h112q0 176 -19.5 229t-84.5 53q-96 0 -236 -63l-57 147q168 82 277.5 82t161.5 -22.5t85 -96.5q74 129 230.5 129t227.5 -117.5t71 -373.5l-9 -160h-426q2 -158 38 -240t130 -84q57 0 170 35l37 10l49 -155q-152 -57 -250 -57.5 t-153 24.5t-123 102q-68 -72 -123 -99.5t-169 -27.5t-186.5 89.5t-72.5 243zM221 313q0 -170 107 -170q53 0 91 23.5t50 48.5l12 23v231h-116q-66 0 -105 -41t-39 -115zM694 657h250q0 164 -23.5 226.5t-90 62.5t-100.5 -61.5t-36 -227.5z" />
<glyph unicode="&#xe7;" d="M137 553q0 301 118 440.5t394 139.5q178 0 340 -46v-382h-227v192q-55 8 -107 8q-143 0 -200.5 -84t-57.5 -264t59.5 -269t209 -89t305.5 41l35 -224q-162 -47 -351 -47q-518 0 -518 584zM479 -584l19 148q82 -8 106 -8q106 0 107 98q0 51 -24.5 72.5t-82.5 21.5l-98 -8 l-21 143q76 18 136 19q115 0 188.5 -64.5t73.5 -184.5t-70 -186.5t-192 -66.5q-50 0 -142 16z" />
<glyph unicode="&#xe8;" d="M115 553q0 283 126 429t350 146t347 -132t127 -386l-10 -174h-682q23 -252 254 -252q160 0 340 60l49 -205q-76 -25 -195 -45.5t-194 -20.5q-512 0 -512 580zM322 1513l100 203l424 -235l-94 -170zM373 633h432q0 279 -205 278q-111 0 -165 -64t-62 -214z" />
<glyph unicode="&#xe9;" d="M115 553q0 283 126 429t350 146t347 -132t127 -386l-10 -174h-682q23 -252 254 -252q160 0 340 60l49 -205q-76 -25 -195 -45.5t-194 -20.5q-512 0 -512 580zM311 1481l422 235l101 -203l-431 -202zM373 633h432q0 279 -205 278q-111 0 -165 -64t-62 -214z" />
<glyph unicode="&#xea;" d="M115 553q0 283 126 429t350 146t347 -132t127 -386l-10 -174h-682q23 -252 254 -252q160 0 340 60l49 -205q-76 -25 -195 -45.5t-194 -20.5q-512 0 -512 580zM221 1372l252 367h221l252 -367h-239l-123 201l-123 -201h-240zM373 633h432q0 279 -205 278q-111 0 -165 -64 t-62 -214z" />
<glyph unicode="&#xeb;" d="M115 553q0 283 126 429t350 146t347 -132t127 -386l-10 -174h-682q23 -252 254 -252q160 0 340 60l49 -205q-76 -25 -195 -45.5t-194 -20.5q-512 0 -512 580zM227 1510.5q0 54.5 38 94.5t92.5 40t92 -40t37.5 -94.5t-36.5 -93.5t-93 -39t-93.5 39t-37 93.5zM373 633h432 q0 279 -205 278q-111 0 -165 -64t-62 -214zM678 1510.5q0 54.5 37 94.5t93 40t93 -40t37 -94.5t-37 -93.5t-93 -39t-93 39t-37 93.5z" />
<glyph unicode="&#xec;" d="M221 0v215h279v674h-260v215h499v-889h260v-215h-778zM336 1481l422 235l102 -203l-430 -202z" />
<glyph unicode="&#xed;" d="M221 0v215h279v674h-260v215h499v-889h260v-215h-778zM322 1481l423 235l101 -203l-430 -202z" />
<glyph unicode="&#xee;" d="M221 0v215h279v674h-260v215h499v-889h260v-215h-778zM221 1372l252 367h221l252 -367h-239l-123 201l-123 -201h-240z" />
<glyph unicode="&#xef;" d="M221 0v215h279v674h-260v215h499v-889h260v-215h-778zM250 1510.5q0 54.5 39 94.5t92 40t92 -40t39 -94.5t-38 -93.5t-94 -39t-93 39t-37 93.5zM678 1510.5q0 54.5 37 94.5t93 40t93 -40t37 -94.5t-37 -93.5t-93 -39t-93 39t-37 93.5z" />
<glyph unicode="&#xf0;" d="M98 551q0 295 118 428t368 133q102 0 184 -22q-53 111 -154 208l-151 -135l-123 117l137 127q-78 51 -155 90l102 174q106 -55 205 -123l143 138l129 -130l-133 -120q156 -147 227.5 -338t71.5 -453q0 -360 -115.5 -518t-367.5 -158t-369 143.5t-117 438.5zM356 551 q0 -186 49.5 -270t178.5 -84t178 84t49 270t-48 268t-179 82t-179.5 -82t-48.5 -268z" />
<glyph unicode="&#xf1;" d="M135 0v1110h234l4 -70q190 88 297 88q190 0 279 -111.5t89 -346.5v-670h-239v664q0 111 -40 174t-124 63t-258 -82v-819h-242zM201 1548q137 133 248 133q76 0 167 -49q94 -49 140.5 -49t113.5 64l97 -131q-115 -125 -224 -125q-82 0 -172 53q-86 47 -137 47t-129 -72z " />
<glyph unicode="&#xf2;" d="M98 551q0 295 119 436t366.5 141t366.5 -141t119 -436t-119 -438.5t-366.5 -143.5t-366.5 143.5t-119 438.5zM322 1513l100 203l424 -235l-94 -170zM356 551q0 -186 49.5 -270t178.5 -84t178 84t49 270t-48 268t-179 82t-179.5 -82t-48.5 -268z" />
<glyph unicode="&#xf3;" d="M98 551q0 295 119 436t366.5 141t366.5 -141t119 -436t-119 -438.5t-366.5 -143.5t-366.5 143.5t-119 438.5zM330 1481l422 235l100 -203l-430 -202zM356 551q0 -186 49.5 -270t178.5 -84t178 84t49 270t-48 268t-179 82t-179.5 -82t-48.5 -268z" />
<glyph unicode="&#xf4;" d="M98 551q0 295 119 436t366.5 141t366.5 -141t119 -436t-119 -438.5t-366.5 -143.5t-366.5 143.5t-119 438.5zM221 1372l252 367h221l252 -367h-239l-123 201l-123 -201h-240zM356 551q0 -186 49.5 -270t178.5 -84t178 84t49 270t-48 268t-179 82t-179.5 -82t-48.5 -268z " />
<glyph unicode="&#xf5;" d="M98 551q0 295 119 436t366.5 141t366.5 -141t119 -436t-119 -438.5t-366.5 -143.5t-366.5 143.5t-119 438.5zM203 1548q137 133 248 133q78 0 169 -49t137 -49t115 64l97 -131q-115 -125 -224 -125q-82 0 -171 50t-140 50t-127 -72zM356 551q0 -186 49.5 -270t178.5 -84 t178 84t49 270t-48 268t-179 82t-179.5 -82t-48.5 -268z" />
<glyph unicode="&#xf6;" d="M98 551q0 295 119 436t366.5 141t366.5 -141t119 -436t-119 -438.5t-366.5 -143.5t-366.5 143.5t-119 438.5zM227 1510.5q0 54.5 38 94.5t92.5 40t92 -40t37.5 -94.5t-36.5 -93.5t-93 -39t-93.5 39t-37 93.5zM356 551q0 -186 49.5 -270t178.5 -84t178 84t49 270t-48 268 t-179 82t-179.5 -82t-48.5 -268zM678 1510.5q0 54.5 37 94.5t93 40t93 -40t37 -94.5t-37 -93.5t-93 -39t-93 39t-37 93.5z" />
<glyph unicode="&#xf7;" d="M129 551v223h909v-223h-909zM434 303q0 70 39 114t104.5 44t103.5 -44t38 -114t-37 -108.5t-104.5 -38.5t-105.5 38.5t-38 108.5zM434 1010.5q0 70.5 39 113.5t104.5 43t103.5 -43t38 -113.5t-37 -108.5t-104.5 -38t-105.5 38t-38 108.5z" />
<glyph unicode="&#xf8;" d="M98 542q0 304 119 445t367 141q117 0 207 -32l71 121l154 -93l-76 -129q129 -139 129 -439t-119 -443.5t-366 -143.5q-111 0 -205 31l-68 -117l-151 90l69 125q-131 140 -131 444zM317 551q0 -139 37 -229l332 585q-47 23 -102 23q-267 0 -267 -379zM483 186 q45 -18 101 -18q133 0 199.5 100.5t66.5 257t-35 244.5z" />
<glyph unicode="&#xf9;" d="M131 432v678h240v-664q0 -119 32.5 -179t114.5 -60t167 34.5t112 57.5v811h239v-1110h-233l-4 68q-8 -2 -44 -19.5t-45 -21.5l-38 -17l-45 -14l-39 -10q-43 -8 -94 -13q-190 0 -276.5 110.5t-86.5 348.5zM322 1513l100 203l424 -235l-94 -170z" />
<glyph unicode="&#xfa;" d="M131 432v678h240v-664q0 -119 32.5 -179t114.5 -60t167 34.5t112 57.5v811h239v-1110h-233l-4 68q-8 -2 -44 -19.5t-45 -21.5l-38 -17l-45 -14l-39 -10q-43 -8 -94 -13q-190 0 -276.5 110.5t-86.5 348.5zM344 1481l422 235l100 -203l-430 -202z" />
<glyph unicode="&#xfb;" d="M131 432v678h240v-664q0 -119 32.5 -179t114.5 -60t167 34.5t112 57.5v811h239v-1110h-233l-4 68q-8 -2 -44 -19.5t-45 -21.5l-38 -17l-45 -14l-39 -10q-43 -8 -94 -13q-190 0 -276.5 110.5t-86.5 348.5zM221 1372l252 367h221l252 -367h-239l-123 201l-123 -201h-240z " />
<glyph unicode="&#xfc;" d="M131 432v678h240v-664q0 -119 32.5 -179t114.5 -60t167 34.5t112 57.5v811h239v-1110h-233l-4 68q-8 -2 -44 -19.5t-45 -21.5l-38 -17l-45 -14l-39 -10q-43 -8 -94 -13q-190 0 -276.5 110.5t-86.5 348.5zM227 1510.5q0 54.5 38 94.5t92.5 40t92 -40t37.5 -94.5 t-36.5 -93.5t-93 -39t-93.5 39t-37 93.5zM678 1510.5q0 54.5 37 94.5t93 40t93 -40t37 -94.5t-37 -93.5t-93 -39t-93 39t-37 93.5z" />
<glyph unicode="&#xfd;" d="M68 1110h262l268 -903h18l228 903h254l-310 -1081q-49 -174 -91 -266.5t-116.5 -150.5t-165.5 -74.5t-255 -18.5v217q141 0 208.5 30.5t94.5 96.5l14 35zM322 1481l423 235l101 -203l-430 -202z" />
<glyph unicode="&#xfe;" d="M133 -449v1979h234v-508q156 106 278 106q238 0 348.5 -139t110.5 -431t-136.5 -438.5t-385.5 -146.5q-84 0 -209 50v-472h-240zM373 246q113 -49 205 -49q268 0 268 354t-211 352q-106 0 -262 -102v-555z" />
<glyph unicode="&#xff;" d="M68 1110h262l268 -903h18l228 903h254l-310 -1081q-49 -174 -91 -266.5t-116.5 -150.5t-165.5 -74.5t-255 -18.5v217q141 0 208.5 30.5t94.5 96.5l14 35zM227 1510.5q0 54.5 38 94.5t92.5 40t92 -40t37.5 -94.5t-36.5 -93.5t-93 -39t-93.5 39t-37 93.5zM678 1510.5 q0 54.5 37 94.5t93 40t93 -40t37 -94.5t-37 -93.5t-93 -39t-93 39t-37 93.5z" />
<glyph unicode="&#x152;" d="M61 789.5q0 396.5 114 579.5t427 183h514v-231h-293v-436h230v-211h-230v-467h299v-207h-520q-305 0 -423 196.5t-118 593zM299 797q0 -600 246 -600h37v1134q-31 2 -37 2q-246 1 -246 -536z" />
<glyph unicode="&#x153;" d="M39 551q0 295 64.5 433t242.5 138q86 0 146.5 -37.5t78.5 -78.5l19 -39q53 156 226 155.5t245 -125.5t72 -374l-9 -154h-422q0 -152 47.5 -226.5t98.5 -74.5q96 0 188 35l31 12l55 -180q-139 -55 -225 -55t-140.5 19t-82.5 44q-27 27 -47 59q-29 43 -33 70 q-49 -195 -237.5 -195t-253 139.5t-64.5 434.5zM215 551q0 -201 27.5 -295t101.5 -94t101.5 94t27.5 295t-26.5 294t-101.5 93t-102.5 -93t-27.5 -294zM694 657h250q0 174 -26.5 231.5t-95 57.5t-96.5 -65.5t-32 -223.5z" />
<glyph unicode="&#x178;" d="M-2 1530h278l310 -643l315 643h264l-463 -868v-662h-237v662zM227 1895.5q0 54.5 38 94.5t92.5 40t92 -40t37.5 -94.5t-36.5 -93.5t-93 -39t-93.5 39t-37 93.5zM678 1895.5q0 54.5 37 94.5t93 40t93 -40t37 -94.5t-37 -93.5t-93 -39t-93 39t-37 93.5z" />
<glyph unicode="&#x2dc;" d="M-506 293q164 211 321 211q94 0 213 -76q121 -74 163 -73.5t77 26t84 82.5l156 -117q-158 -207 -310 -206q-90 2 -220 78.5t-160 76.5q-86 0 -187 -123z" />
<glyph unicode="&#x2013;" d="M164 510v225h837v-225h-837z" />
<glyph unicode="&#x2014;" d="M2 510v225h1165v-225h-1165z" />
<glyph unicode="&#x2018;" d="M393 1114l187 469l190 -51l-135 -483z" />
<glyph unicode="&#x2019;" d="M395 1114l135 483l242 -65l-186 -469z" />
<glyph unicode="&#x201c;" d="M197 1145l186 469l190 -51l-135 -484zM530 1102l187 469l190 -53l-135 -484z" />
<glyph unicode="&#x201d;" d="M227 1124l135 484l242 -68l-186 -469zM561 1081l135 484l242 -66l-186 -469z" />
<glyph unicode="&#x2022;" d="M446 557v281h271v-281h-271z" />
<glyph unicode="&#x2026;" d="M121 0v338h209v-338h-209zM479 0v338h207v-338h-207zM838 0v338h209v-338h-209z" />
<glyph unicode="&#x2039;" d="M307 436v187l539 383v-267l-342 -209l342 -215v-266z" />
<glyph unicode="&#x203a;" d="M307 49v266l342 215l-342 209v267l539 -383v-187z" />
<glyph unicode="&#x2044;" d="M160 0l622 1552h219l-622 -1552h-219z" />
<glyph unicode="&#x20ac;" d="M0 504v184h96v129h-96v184h113q37 276 170 413.5t385 137.5q195 0 385 -65l-54 -199q-176 55 -321.5 55t-221 -79.5t-104.5 -262.5h498v-184h-514v-74l2 -55h512v-184h-485q33 -156 106.5 -227.5t224 -71.5t332.5 57l57 -217q-78 -27 -204.5 -46t-214.5 -19 q-231 -8 -372.5 114.5t-180.5 409.5h-113z" />
<glyph unicode="&#x2122;" d="M33 1237v141h420v-141h-125v-553h-160v553h-135zM522 684v694h160l117 -331h30l123 331h160v-694h-143l10 379h-16l-84 -219h-131l-74 219h-17l11 -379h-146z" />
<glyph unicode="&#xe000;" horiz-adv-x="1110" d="M0 1110h1110v-1110h-1110v1110z" />
<glyph unicode="&#xfb01;" d="M14 899v211h117q0 238 96.5 358.5t309.5 118.5q147 0 364 -41l72 -14l-35 -211q-240 47 -356.5 47t-168 -50t-51.5 -208h695v-1110h-230v899h-467v-899h-231v899h-115z" />
<glyph unicode="&#xfb02;" d="M2 899v211h221q0 256 91.5 365.5t314.5 111.5q137 4 403 -37l86 -12v-1538h-231v1348l-47 6q-125 14 -212 13t-129 -51t-42 -206h313v-211h-313v-899h-234v899h-221z" />
<glyph unicode="&#xfb03;" horiz-adv-x="2334" d="M236 899v211h274q0 227 111.5 352t306.5 125q129 0 325 -55q82 55 181 55q162 0 413 -47l78 -16l-39 -201q-250 45 -356.5 45t-149.5 -49t-43 -209h697v-1110h-232v899h-465v-899h-233v899h-361v-899h-233v899h-274zM743 1110h361q0 137 29 240q-104 31 -190.5 30.5 t-145 -56.5t-54.5 -214z" />
<glyph unicode="&#xfb04;" horiz-adv-x="2334" d="M236 899v211h249q0 225 114 351t304 126q117 0 350 -63q92 61 265 63q178 0 428 -37l88 -12v-1538h-232v1348q-168 20 -270 20t-148.5 -48t-46.5 -210h314v-211h-314v-899h-233v899h-385v-899h-234v899h-249zM719 1110h385q0 143 26 238q-131 33 -190 32 q-104 0 -162.5 -56t-58.5 -214z" />
</font>
</defs>
</svg>
