<?xml version="1.0" standalone="no"?>
<!DOCTYPE svg PUBLIC "-//W3C//DTD SVG 1.1//EN" "http://www.w3.org/Graphics/SVG/1.1/DTD/svg11.dtd" >
<svg xmlns="http://www.w3.org/2000/svg">
<metadata>
This is a custom SVG webfont generated by Font Squirrel.
Copyright   : Copyright c 2008 2009 2010 Accademia di Belle Arti di Urbino Licensed under the SIL Open Font License Version 11
Designer    : Paolo Mazzetti Luciano Perondi Raffaele Flato Elena Papassissa Emilio Macchia Michela Povoleri Tobias Seemiller Riccardo Lorusso Sabrina Campagna Elisa Ansuini Mariangela Di Pinto Antonio Cavedoni Marco Comastri Luna Castroni Stefano Faoro Daniele Capo Jan Henrik Arnold
</metadata>
<defs>
<font id="LektonRegular" horiz-adv-x="1167" >
<font-face units-per-em="2048" ascent="1536" descent="-512" />
<missing-glyph horiz-adv-x="500" />
<glyph unicode=" " />
<glyph unicode="!" d="M455 -14v200h178v-200h-178zM467 1606h154l-21 -1168h-113z" />
<glyph unicode="&#x22;" d="M334 1081v506h123v-506h-123zM707 1081v506h124v-506h-124z" />
<glyph unicode="#" d="M0 449v102h270l52 471h-269v100h279l45 408h121l-45 -408h338l43 408h120l-41 -408h254v-100h-266l-51 -471h264v-102h-276l-50 -449h-122l51 449h-336l-51 -449h-123l53 449h-260zM393 551h336l51 471h-336z" />
<glyph unicode="$" d="M129 49l31 117q225 -68 373.5 -68t243.5 83t95 225.5t-68.5 201t-279.5 109.5t-303 140t-92 260t107.5 267.5t267.5 112.5v195h119v-193q184 -8 366 -72l-33 -116q-201 72 -368 71q-319 0 -320 -258q0 -125 71 -188.5t276.5 -112.5t301 -141t95.5 -275.5t-114 -295 t-296 -127.5v-199h-117v197q-157 8 -356 67z" />
<glyph unicode="%" d="M0 1225.5q0 140.5 82 222.5t206 82t204.5 -82t80.5 -222.5t-80.5 -222t-204.5 -81.5t-206 81.5t-82 222zM113 1226q0 -93 50 -144.5t124.5 -51.5t125 51.5t50.5 144.5t-50.5 144t-125 51t-124.5 -51t-50 -144zM190 0l648 1552h131l-647 -1552h-132zM590 304q0 140 82 221 t205.5 81t205.5 -81t82 -221t-82 -222t-205.5 -82t-205.5 82t-82 222zM702 304q0 -93 50.5 -145.5t125 -52.5t125 52.5t50.5 145.5t-50.5 144.5t-125 51.5t-125 -51.5t-50.5 -144.5z" />
<glyph unicode="&#x26;" d="M12 461q0 334 365 475q-115 184 -115 314t91 216t236.5 86t234.5 -85t89 -219t-74.5 -219t-271.5 -175l312 -483q84 176 149 481l113 -18q-55 -309 -187 -562q31 -49 78 -108l109 -137l-90 -76q-113 131 -174 227q-178 -201 -394.5 -201t-343.5 127.5t-127 356.5z M145 461q0 -174 88.5 -272.5t245.5 -98.5q86 0 177.5 49t150.5 129l-377 578q-285 -119 -285 -385zM393 1251q0 -82 26.5 -146.5t92.5 -156.5q145 55 207.5 124t62.5 167t-51 148.5t-140 50.5t-143.5 -52.5t-54.5 -134.5z" />
<glyph unicode="'" d="M516 1081v506h123v-506h-123z" />
<glyph unicode="(" d="M420 744.5q0 349.5 92 609.5t262 504l98 -62q-154 -227 -238.5 -470t-84.5 -583t86 -584.5t237 -465.5l-98 -66q-170 246 -262 507t-92 610.5z" />
<glyph unicode=")" d="M295 -307q152 221 237.5 465.5t85.5 584.5t-84.5 583t-238.5 470l98 62q170 -244 262.5 -504t92.5 -609.5t-92.5 -610.5t-262.5 -507z" />
<glyph unicode="*" d="M164 1180v104h346l-107 328l107 35l102 -332l277 203l63 -84l-280 -205l280 -199l-65 -92l-277 207l-108 -328l-105 37l109 326h-342z" />
<glyph unicode="+" d="M55 606v109h467v463h117v-463h471v-109h-471v-463h-117v463h-467z" />
<glyph unicode="," d="M383 -279q104 156 115 279h-95v262h224v-192q0 -209 -181 -404z" />
<glyph unicode="-" d="M256 498v125h672v-125h-672z" />
<glyph unicode="." d="M410 0v283h256v-283h-256z" />
<glyph unicode="/" d="M57 -57l965 1702l88 -54l-967 -1702z" />
<glyph unicode="0" d="M135 743.5q0 409.5 105.5 584.5t342 175t342 -175t105.5 -584.5t-105.5 -586.5t-342 -177t-342 177t-105.5 586.5zM285 744.5q0 -345.5 64.5 -495t232.5 -149.5t233.5 149.5t65.5 497t-63.5 491.5t-233.5 144t-234.5 -146t-64.5 -491.5z" />
<glyph unicode="1" d="M145 1280l453 203h123v-1364h340v-119h-877v119h400v1214l-385 -178z" />
<glyph unicode="2" d="M152 1321q246 180 424 180t295.5 -113.5t117.5 -331.5t-194 -409l-179 -162q-229 -197 -292 -352h723v-133h-877v115q43 119 130 228.5t179 188.5l176 158q197 182 197 381q0 139 -82 224t-204 85t-349 -157z" />
<glyph unicode="3" d="M106 70l44 118q236 -90 399.5 -90t256.5 77t93 233.5t-80 230.5t-248 74l-254 -29l-16 104l168 27q188 29 281.5 101.5t93.5 205.5t-83 195.5t-214 62.5t-365 -102l-45 108q92 45 216 80t204 35q193 0 306.5 -91t113.5 -277q0 -131 -53.5 -205t-173.5 -133v-7 q287 -59 286 -378q0 -432 -483 -433q-193 1 -447 93z" />
<glyph unicode="4" d="M100 297v109l383 1075h133l-370 -1063h487v489h129v-489h209v-121h-209v-320h-129v320h-633z" />
<glyph unicode="5" d="M133 74l45 121q215 -96 380 -96.5t256 106t91 274.5t-83 256t-235.5 88t-310.5 -135l-88 27l25 766h778v-129h-661l-17 -506q139 100 287 100q211 0 325.5 -122t114.5 -348t-127 -362.5t-358 -136.5q-184 1 -422 97z" />
<glyph unicode="6" d="M127 500q0 256 72.5 440t222 316.5t416.5 263.5l51 -115q-303 -152 -428 -284t-176 -326q150 150 311 149q225 0 345 -119.5t120 -349t-122 -364t-342 -134.5t-345 133.5t-125 389.5zM262 485q0 -387 334 -387q160 0 244 100.5t84 280.5q0 342 -328 342 q-139 0 -236.5 -96.5t-97.5 -239.5z" />
<glyph unicode="7" d="M131 1235l45 246h828v-131q-14 -139 -265 -586q-90 -164 -165.5 -378t-75.5 -386h-138q0 180 74 401q76 219 168 387l178 332q84 164 90 238h-591l-33 -133z" />
<glyph unicode="8" d="M117 387q0 276 248 369q-217 109 -218 346q0 178 116 288.5t327 110.5t325.5 -110.5t114.5 -288.5q0 -250 -219 -340q252 -94 252 -375q0 -188 -123 -299t-351.5 -111t-350 111t-121.5 299zM252 392.5q0 -142.5 86 -219.5t250 -77t252 78t88 219.5t-87 223t-250 81.5 t-251 -81.5t-88 -224zM281 1105q0 -128 75.5 -209t233.5 -81t232.5 77t74.5 209t-76 206.5t-232.5 74.5t-232 -74.5t-75.5 -202.5z" />
<glyph unicode="9" d="M147 1017q0 218 126 351t337 133t331 -128t120 -357q0 -315 -110.5 -549t-356.5 -506l-158 25q219 238 316.5 392t148.5 329q-150 -150 -299 -150q-217 0 -336 121t-119 339zM283 1022q0 -342 319 -342q137 0 229.5 95t92.5 241q0 365 -320 364q-152 0 -236.5 -98 t-84.5 -260z" />
<glyph unicode=":" d="M406 0v283h258v-283h-258zM406 678v283h258v-283h-258z" />
<glyph unicode=";" d="M383 -279q104 156 115 279h-95v262h224v-192q0 -209 -181 -404zM403 707v239h215v-239h-215z" />
<glyph unicode="&#x3c;" d="M102 645v74l885 549l64 -97l-807 -489l805 -514l-62 -96z" />
<glyph unicode="=" d="M57 381v102h1049v-102h-1049zM57 772v105h1049v-105h-1049z" />
<glyph unicode="&#x3e;" d="M102 1171l64 97l885 -549v-74l-885 -573l-62 96l807 514z" />
<glyph unicode="?" d="M160 1395q129 102 227 151t211 49q170 0 283.5 -92t113.5 -242.5t-42 -233.5t-165.5 -198.5t-155.5 -167t-32 -126t4 -158.5l-121 -6q-18 76 -18 175t40 162.5t163 180.5t157.5 182.5t34.5 171t-71.5 168t-177 62.5t-186.5 -43.5t-196 -131.5zM455 -14v217h198v-217h-198 z" />
<glyph unicode="@" d="M129 482.5q0 363.5 143.5 553t409.5 189.5q109 0 202 -21.5t130 -46.5l39 -20v-1010q-133 -63 -326 -64q-309 0 -305 441q2 150 59 266q68 141 246 137q94 0 201 -26v188q-90 45 -246 45q-199 0 -314.5 -159.5t-115.5 -471t115.5 -467t276.5 -155.5t364 61l30 -110 q-190 -66 -383 -66q-244 0 -385 186.5t-141 550zM549 504q0 -158 39 -242t151 -84q68 0 162 19l27 6v555q-59 33 -197 33q-182 0 -182 -287z" />
<glyph unicode="A" d="M39 0l440 1530h223l422 -1530h-137l-96 352h-619l-96 -352h-137zM305 469h557l-252 944h-41z" />
<glyph unicode="B" d="M156 0v1530h360q256 0 381 -92t125 -305q0 -266 -258 -347q154 -35 227.5 -116.5t73.5 -237.5q0 -248 -140.5 -340t-428.5 -92h-340zM285 115h211q217 0 325.5 68.5t108.5 248.5q0 285 -389 285h-256v-602zM285 831h250q147 0 249 67q104 68 105 249q0 172 -123 225 q-100 43 -250 43h-231v-584z" />
<glyph unicode="C" d="M129 764q0 414 126 601t402 187q182 0 367 -57v-309h-127v209q-102 37 -240 37q-209 0 -300 -157t-91 -507t98.5 -509t292.5 -159q147 0 351 64l30 -121q-190 -66 -383 -66q-266 0 -396 186.5t-130 600.5z" />
<glyph unicode="D" d="M139 0v1530h314q174 0 284.5 -34t187 -121t110.5 -235.5t34 -375.5t-37 -377.5t-119 -234.5t-191.5 -118t-272.5 -34h-310zM268 117h181q180 0 279 51t151.5 192.5t52.5 404.5t-51.5 404.5t-149.5 192.5t-278 51h-185v-1296z" />
<glyph unicode="E" d="M190 0v1530h797v-115h-668v-579h605v-115h-605v-606h676v-115h-805z" />
<glyph unicode="F" d="M201 0v1530h798v-119h-669v-668h573v-116h-573v-627h-129z" />
<glyph unicode="G" d="M88 765q0 415 129 601t418 186q188 0 397 -73l-33 -121q-213 74 -364 74q-219 0 -313.5 -156t-94.5 -507t97.5 -511t296.5 -160q119 0 286 56v467h-262v114h391v-672q-240 -86 -415 -86q-270 0 -401.5 186.5t-131.5 601.5z" />
<glyph unicode="H" d="M127 0v1530h127v-711h659v711h127v-1530h-127v700h-659v-700h-127z" />
<glyph unicode="I" d="M260 0v117h262v1296h-262v117h651v-117h-260v-1296h260v-117h-651z" />
<glyph unicode="J" d="M135 14l27 121q158 -39 265.5 -39t140 71t32.5 343v903h-377v117h625v-117h-119v-911q0 -317 -55.5 -421t-257.5 -108q-39 0 -137.5 14.5t-143.5 26.5z" />
<glyph unicode="K" d="M166 0v1530h129v-723l225 24q166 252 330 580l61 119h146q-233 -467 -418 -744q72 -104 178 -301l256 -485h-155q-262 512 -388 713l-235 -25v-688h-129z" />
<glyph unicode="L" d="M213 0v1530h127v-1411h639v-119h-766z" />
<glyph unicode="M" d="M113 0v1530h123l329 -858h35l330 858h123v-1530h-125v1186h-10l-246 -633h-178l-246 635h-10v-1188h-125z" />
<glyph unicode="N" d="M119 0v1530h127l667 -1059h7v1059h129v-1530h-129v240l-666 1046h-6v-1286h-129z" />
<glyph unicode="O" d="M94 780q0 182 23 316q23 133 73 239q106 217 394 217q328 -2 430 -305q59 -176 59 -412.5t-22.5 -377t-73.5 -252.5q-109 -227 -393 -228q-281 0 -389 228q-101 208 -101 575zM231 813q0 -176 12.5 -284.5t47.5 -213.5q74 -217 293 -217q223 0 295 219q57 180 57 428v17 q0 125 -6 201.5t-26.5 171t-56.5 155t-102.5 101.5t-161 41t-161 -41t-102 -101.5t-56.5 -154.5q-33 -146 -33 -322z" />
<glyph unicode="P" d="M162 0v1530h342q281 0 415 -106.5t134 -367.5t-135.5 -378t-413.5 -117h-215v-561h-127zM289 678h215q215 0 314.5 86t99.5 288.5t-98.5 281.5t-315.5 79h-215v-735z" />
<glyph unicode="Q" d="M94 784q0 573 246 715q97 54 224 54h4q130 -1 216 -37.5t140 -102.5q57 -68 90 -166q59 -176 59 -463q0 -457 -143 -649l137 -205l-76 -100l-151 217q-102 -70 -249 -70t-245 58.5t-151 169.5q-101 210 -101 579zM231 752.5q0 -115.5 12.5 -224t47.5 -215.5 q74 -217 293 -217q102 0 172 51l-129 129l57 121l156 -159q96 162 96 546v22q0 286 -53 413q-61 145 -162 186q-59 29 -137 29t-138.5 -27t-97.5 -78t-61.5 -109.5t-36.5 -139.5t-15.5 -146.5t-3.5 -181z" />
<glyph unicode="R" d="M143 0v1530h342q285 0 418 -98.5t133 -346.5q0 -166 -66.5 -266t-213.5 -164q160 -301 291 -655h-142q-127 340 -278 629q-127 -8 -164 -8h-193v-621h-127zM270 737h187q215 0 329.5 79t114.5 270.5t-101.5 259t-318.5 67.5h-211v-676z" />
<glyph unicode="S" d="M127 1163.5q0 184.5 127 286.5t327.5 102t407.5 -71l-33 -119q-193 70 -355.5 70t-248.5 -69t-86 -200t70 -198.5t278.5 -123t303 -145.5t94.5 -289.5t-134.5 -314.5t-347.5 -115q-160 0 -401 68l31 119q238 -66 382 -66t237 81t93 225.5t-67.5 212t-276.5 117.5 t-305 147.5t-96 282z" />
<glyph unicode="T" d="M113 1411v119h938v-119h-406v-1411h-129v1411h-403z" />
<glyph unicode="U" d="M127 440v1090h127v-1073q0 -358 330 -359q166 0 247.5 99.5t81.5 259.5v1073h127v-1090q0 -225 -117.5 -344t-344 -119t-339 123t-112.5 340z" />
<glyph unicode="V" d="M100 1530h138l340 -1415h22l336 1415h135l-375 -1530h-219z" />
<glyph unicode="W" d="M4 1530h133l158 -1413h24l205 737h125l197 -737h26l158 1413h133l-172 -1530h-235l-168 657h-6l-176 -657h-230z" />
<glyph unicode="X" d="M102 0l377 784l-358 746h164l284 -631h4l283 631h158l-361 -746l398 -784h-168l-320 670h-6l-295 -670h-160z" />
<glyph unicode="Y" d="M68 1530h153l359 -735h4l356 735h156l-451 -868v-662h-127v662z" />
<glyph unicode="Z" d="M164 0v94l686 1319h-686v117h840v-94l-689 -1319h725v-117h-876z" />
<glyph unicode="[" d="M406 -365v2216h481v-116h-348v-1983h348v-117h-481z" />
<glyph unicode="\" d="M37 1606l86 51l964 -1702l-83 -51z" />
<glyph unicode="]" d="M281 -248h348v1983h-348v116h481v-2216h-481v117z" />
<glyph unicode="_" d="M0 -199h1167v-100h-1167v100z" />
<glyph unicode="a" d="M139 315.5q0 161.5 109 249.5q106 90 284.5 90t313.5 -12q0 207 -51.5 282.5t-208 75.5t-369.5 -73l-35 116q217 78 391 78q231 0 313.5 -102t82.5 -358v-492l18 -176l-119 -12l-22 139q-55 -47 -152.5 -94t-187.5 -47q-170 0 -268.5 87t-98.5 248.5zM270 328 q0 -227 240 -228q86 0 187.5 55.5t148.5 100.5v279q-156 12 -295 12t-210 -59.5t-71 -159.5z" />
<glyph unicode="b" d="M180 0v1550h123v-549q176 121 318 121q211 0 325.5 -143t114.5 -409.5t-129 -428t-350 -161.5q-135 0 -281 67l-4 -47h-117zM303 168q49 -23 134 -45.5t141 -22.5q162 0 256 131t94 336t-81 319.5t-232.5 114.5t-311.5 -133v-700z" />
<glyph unicode="c" d="M188 558q0 273 120 418.5t349 145.5q156 0 308 -49v-325h-127v231q-115 25 -183 25q-168 0 -250.5 -119t-82.5 -329t83.5 -333t249.5 -123q106 0 293 66l35 -117q-184 -70 -326 -69q-227 0 -348 152.5t-121 425.5z" />
<glyph unicode="d" d="M119 552q0 265 129 417.5t350 152.5q131 0 279 -61v489h122v-1355l23 -205l-119 -13l-22 123q-176 -121 -324 -120q-207 0 -322.5 153.5t-115.5 418.5zM252 556q0 -206 81 -331t232.5 -125t311.5 133v701q-49 23 -135.5 45t-139.5 22q-166 0 -258 -119.5t-92 -325.5z" />
<glyph unicode="e" d="M156 553q0 268 111.5 418.5t323.5 150.5t316.5 -139t104.5 -373l-8 -116h-715q12 -176 94 -285t225.5 -109t337.5 68l35 -117q-190 -72 -354 -71q-229 0 -350 152.5t-121 420.5zM289 610h590q0 393 -279 394q-295 -1 -311 -394z" />
<glyph unicode="f" d="M188 0v117h232v874h-221v119h221q0 461 344 461q113 0 248 -39l-29 -119q-131 37 -215 37q-121 0 -172 -82t-51 -258h422v-119h-422v-874h426v-117h-783z" />
<glyph unicode="g" d="M121 554q0 265 126 416.5t351 151.5q123 0 279 -82l4 70h118v-842l7 -321q0 -209 -125 -311.5t-309.5 -102.5t-419.5 94l43 117q229 -90 366 -90t229.5 71.5t92.5 219.5q0 18 -3 81.5t-3 94.5q-172 -119 -320 -119q-209 0 -322.5 143.5t-113.5 408.5zM254 557 q0 -205 80 -319.5t231.5 -114.5t311.5 133v655q-145 90 -275 90q-166 0 -257 -119.5t-91 -324.5z" />
<glyph unicode="h" d="M182 0v1550h123v-526q219 98 363 98q334 0 333 -383v-739h-122v739q0 121 -52.5 191.5t-178.5 70.5t-343 -96v-905h-123z" />
<glyph unicode="i" d="M268 0v117h289v874h-270v119h395v-993h270v-117h-684zM510 1437q0 46 28.5 72.5t70.5 26.5t69 -25.5t27 -72.5t-27 -76t-69 -29t-70.5 29t-28.5 75z" />
<glyph unicode="j" d="M260 -317q229 33 310 87t81 207v1018h-297v115h420v-1133q0 -221 -110.5 -299.5t-391.5 -115.5zM588 1438q0 100 102 100q98 -2 98 -104.5t-98 -102.5q-47 0 -74.5 29t-27.5 78z" />
<glyph unicode="k" d="M227 0v1550h123v-944l152 25q166 215 336 479h141q-164 -264 -377 -520q145 -205 389 -590h-139q-186 303 -338 516l-164 -20v-496h-123z" />
<glyph unicode="l" d="M246 0v117h286v1319l-278 -2l-2 114l403 2v-1433h285v-117h-694z" />
<glyph unicode="m" d="M82 0v1110h117l6 -72q117 84 180 84q154 0 213 -100q131 100 229 100q152 0 207.5 -93t55.5 -286v-743h-123v743q0 133 -28 197t-107.5 64t-196.5 -74q14 -80 14 -187v-389h-125v389q0 133 -26 195q-31 66 -111 66t-182 -74v-930h-123z" />
<glyph unicode="n" d="M178 0v1110h119l4 -94q227 106 376.5 106t234.5 -102t85 -281v-739h-125v739q0 115 -55 191q-55 72 -167.5 71.5t-348.5 -102.5v-899h-123z" />
<glyph unicode="o" d="M137 551q0 571 446.5 571t446.5 -571t-446.5 -571t-446.5 571zM270 550.5q0 -450.5 313.5 -450.5t313.5 450.5t-313.5 450.5t-313.5 -450.5z" />
<glyph unicode="p" d="M160 1112l116 12l21 -125q170 123 324 123q209 0 322.5 -151.5t113.5 -417.5t-126 -419.5t-349 -153.5q-131 0 -279 63v-492h-123v1356zM303 168q49 -23 134 -45.5t141 -22.5q166 0 256 122t90 328t-79 328.5t-227.5 122.5t-314.5 -133v-700z" />
<glyph unicode="q" d="M121 553q0 266 126 417.5t351 151.5q123 0 279 -82l4 70h118v-1554h-122v542q-172 -119 -320 -118q-207 0 -321.5 153.5t-114.5 419.5zM254 555q0 -207 81 -331t231.5 -124t310.5 133v678q-145 90 -275 90q-166 0 -257 -119.5t-91 -326.5z" />
<glyph unicode="r" d="M213 0v117h219v874h-219v119h342l6 -137q74 47 209 94t238 55v-137q-94 -6 -235.5 -46t-211.5 -83v-739h373v-117h-721z" />
<glyph unicode="s" d="M182 53l31 123q231 -78 357 -78t195 54.5t69 145.5t-55.5 135t-227.5 83t-260 115q-86 70 -86 210t106.5 213.5t274.5 73.5t364 -75l-32 -109q-199 63 -320 63.5t-192 -40.5q-70 -47 -70 -126t62.5 -124t239.5 -89t252 -113t75 -216t-101 -233q-98 -86 -280.5 -86.5 t-401.5 73.5z" />
<glyph unicode="t" d="M178 977v117h195v268l125 22v-290h442v-117h-442v-547q0 -182 35.5 -257t148.5 -75t248 45l26 -116q-135 -49 -251.5 -49.5t-183 29.5t-97.5 96.5t-41 137t-10 183.5v553h-195z" />
<glyph unicode="u" d="M172 362v748h125v-748q0 -115 54.5 -188.5t167 -73.5t349.5 117v893h123v-1110h-119l-4 96q-223 -117 -372.5 -116.5t-236.5 102.5t-87 280z" />
<glyph unicode="v" d="M123 1110h141l305 -997h43l293 997h142l-340 -1110h-234z" />
<glyph unicode="w" d="M82 1110h121l121 -997h43l155 561h123l156 -561h43l121 997h120l-133 -1110h-247l-119 483h-8l-123 -483h-244z" />
<glyph unicode="x" d="M129 0l375 563l-365 547h162l283 -459l280 459h156l-350 -547l370 -563h-157l-299 473l-297 -473h-158z" />
<glyph unicode="y" d="M123 1110h141l330 -944h18l293 944h142l-431 -1298q-61 -184 -127.5 -236.5t-269.5 -56.5v119q131 2 175 37.5t83 146.5l53 162z" />
<glyph unicode="z" d="M182 96l625 895h-604v119h762l12 -96l-629 -897h635v-117h-782z" />
<glyph unicode="{" d="M244 700v121l209 109q0 195 -11.5 407.5t-11.5 282.5q0 231 227 231h254v-116h-241q-106 0 -107 -129q0 -76 11.5 -316.5t11.5 -435.5l-209 -84v-18l209 -86q0 -172 -11.5 -428t-11.5 -357q0 -129 107 -129h241v-117h-254q-227 0 -227 232q0 94 11.5 322.5t11.5 400.5z " />
<glyph unicode="|" d="M522 -569v2304h125v-2304h-125z" />
<glyph unicode="}" d="M219 -248h242q106 0 106 129q0 100 -11 356.5t-11 428.5l209 86v16l-209 86q0 195 11 435.5t11 316.5q0 129 -106 129h-242v116h252q229 0 229 -231q0 -70 -11 -283t-11 -407l209 -111v-119l-209 -110q0 -172 11 -400.5t11 -322.5q0 -231 -229 -232h-252v117z" />
<glyph unicode="~" d="M61 596q170 182 293 182q94 0 248 -92q154 -90 219.5 -90t202.5 141l82 -69q-86 -94 -150.5 -138.5t-138.5 -44.5t-163 46.5t-165.5 91.5t-134.5 45q-74 2 -209 -146z" />
<glyph unicode="&#xa0;" />
<glyph unicode="&#xa1;" d="M430 971v200h176v-200h-176zM440 -449l23 1168h110l23 -1168h-156z" />
<glyph unicode="&#xa2;" d="M188 553q0 524 402 565v164h125v-162q125 -10 229 -41l-31 -116q-127 41 -258 41q-168 0 -250.5 -119t-82.5 -329t83.5 -334t249.5 -124q106 0 293 66l35 -117q-135 -51 -264 -65v-150h-123v150q-201 20 -304.5 169.5t-103.5 401.5z" />
<glyph unicode="&#xa3;" d="M129 111l31 24q145 131 205 244q29 55 28.5 122.5t-57.5 215.5h-205v119h160q-51 125 -51 249q0 205 107.5 311.5t314.5 106.5q141 0 311 -45l-21 -115q-154 41 -300 41t-213.5 -72.5t-67.5 -220t49 -255.5h465v-119h-420q2 -4 16 -49l23 -62q18 -59 18 -125 q0 -152 -203 -325q0 -2 1.5 -2t1.5 -2q47 25 102 24.5t104.5 -8.5t138.5 -41t144 -33t109 19q57 14 84 32l28 19l53 -107q-109 -84 -280 -84q-61 -2 -156 31q-133 47 -215 47q-137 0 -207 -55l-24 -19z" />
<glyph unicode="&#xa4;" d="M51 319l162 199q-115 135 -114 318.5t116 316.5l-162 193l94 73l156 -188q266 186 549 -2l156 190l94 -73l-162 -195q115 -133 116 -315.5t-112 -317.5l160 -199l-96 -79l-162 196q-135 -88 -260 -89t-275 89l-164 -192zM220 833.5q-1 -151.5 105.5 -256t247 -105.5 t263.5 110q100 100 99 251.5t-103.5 257t-250 107.5t-254 -105.5t-107.5 -259z" />
<glyph unicode="&#xa5;" d="M68 1530h161l355 -653h4l360 653h148l-396 -686h314v-117h-365v-217h365v-117h-365v-393h-129v393h-368v117h368v217h-368v117h317z" />
<glyph unicode="&#xa6;" d="M520 455h125v-1024h-125v1024zM520 707v1026h125v-1026h-125z" />
<glyph unicode="&#xa7;" d="M182 53l31 123q238 -80 359.5 -80t186 50.5t64.5 128t-45 116.5t-227 82t-275.5 113.5t-93.5 206t146 227.5q-123 74 -123 232.5t105.5 236.5t280.5 78t359 -70l-32 -115q-207 68 -328 68q-254 0 -254 -188q0 -84 60.5 -130.5t247.5 -90.5t265 -107.5t78 -199.5 t-117 -249q84 -63 84 -200.5t-100 -221t-276.5 -84t-395.5 73.5zM313 807q0 -49 12.5 -79t55.5 -50q39 -25 82 -39l135 -41q92 -29 170 -59q94 100 94 200q0 66 -64.5 112t-181 70.5t-186.5 49.5q-117 -80 -117 -164z" />
<glyph unicode="&#xa9;" d="M23 634q0 310 145 479t418 169q559 0 559 -651q0 -319 -149.5 -482t-421 -163t-411.5 169t-140 479zM129 631q0 -293 116.5 -422t340.5 -129q453 0 452 551q0 297 -116.5 427t-335.5 130q-457 0 -457 -557zM307 630.5q0 192.5 62.5 275.5t212.5 83q96 0 192 -33l-26 -94 q-74 25 -163 24t-123 -52.5t-34 -198t37 -192.5t117 -46t166 25l26 -94q-78 -33 -174 -33q-156 0 -224.5 71.5t-68.5 264z" />
<glyph unicode="&#xaa;" d="M324 1053.5q0 103.5 66.5 159t181 55.5t176.5 -6q0 109 -32 150.5t-109 41.5t-230 -53l-31 96q152 55 274.5 55t178 -66.5t55.5 -228.5v-288l14 -117q-94 -12 -102 -12l-14 78q-104 -82 -202.5 -82t-162 57t-63.5 160.5zM432 1059q0 -55 34 -90t110.5 -35t171.5 82v155 q-98 6 -167 6.5t-109 -31.5t-40 -87z" />
<glyph unicode="&#xab;" d="M164 485v95l459 393v-152l-338 -293l338 -288v-150zM565 485v95l459 393v-152l-338 -293l338 -288v-150z" />
<glyph unicode="&#xac;" d="M84 930v125h1010v-516h-127v391h-883z" />
<glyph unicode="&#xad;" d="M256 498v125h672v-125h-672z" />
<glyph unicode="&#xae;" d="M0 1031q0 263 159.5 420t424 157t424 -159t159.5 -421t-159.5 -420.5t-422.5 -158.5t-424 159.5t-161 422.5zM94 1029q0 -222 134 -356t353.5 -134t354.5 133t135 356t-133 357.5t-354.5 134.5t-355.5 -134.5t-134 -356.5zM365 700v682h186q150 0 219.5 -47t69.5 -166 q0 -170 -138 -204q63 -92 115 -222l17 -43h-107q-49 137 -117 246h-153v-246h-92zM457 1034h78q127 0 167.5 23.5t40.5 107.5t-43 106.5t-155 22.5h-88v-260z" />
<glyph unicode="&#xb0;" d="M260 1307.5q0 138.5 90 224.5t233.5 86t232.5 -86t89 -225.5t-89 -225.5t-233.5 -86t-233.5 87t-89 225.5zM383 1309.5q0 -95.5 53 -152.5t142.5 -57t146.5 57t57 149.5t-55 151t-148.5 58.5t-144.5 -55.5t-51 -151z" />
<glyph unicode="&#xb1;" d="M35 127v96h1098v-96h-1098zM35 696v101h489v374h119v-374h490v-101h-490v-356h-119v356h-489z" />
<glyph unicode="&#xb2;" d="M152 1321q246 180 424 180t295.5 -113.5t117.5 -331.5t-194 -409l-179 -162q-229 -197 -292 -352h723v-133h-877v115q43 119 130 228.5t179 188.5l176 158q197 182 197 381q0 139 -82 224t-204 85t-349 -157z" />
<glyph unicode="&#xb3;" d="M106 70l44 118q236 -90 399.5 -90t256.5 77t93 233.5t-80 230.5t-248 74l-254 -29l-16 104l168 27q188 29 281.5 101.5t93.5 205.5t-83 195.5t-214 62.5t-365 -102l-45 108q92 45 216 80t204 35q193 0 306.5 -91t113.5 -277q0 -131 -53.5 -205t-173.5 -133v-7 q287 -59 286 -378q0 -432 -483 -433q-193 1 -447 93z" />
<glyph unicode="&#xb5;" d="M127 -403q29 74 39 127t10 161v1225h123v-750q0 -115 53.5 -188.5t170 -73.5t341.5 113v899h123v-1110h-119l-4 88q-229 -111 -354 -111q-74 0 -135.5 28t-91.5 73l12 -150v-49q0 -211 -72 -328z" />
<glyph unicode="&#x3bc;" d="M127 -403q29 74 39 127t10 161v1225h123v-750q0 -115 53.5 -188.5t170 -73.5t341.5 113v899h123v-1110h-119l-4 88q-229 -111 -354 -111q-74 0 -135.5 28t-91.5 73l12 -150v-49q0 -211 -72 -328z" />
<glyph unicode="&#xb6;" d="M94 1118.5q0 270.5 122 393t390 122.5h82v-1634h-82v616q-266 20 -389 126t-123 376.5zM176 1110q0 -229 101.5 -314t328.5 -106v871q-109 -4 -177.5 -18.5t-131.5 -61.5q-121 -90 -121 -371zM981 0v1634h82v-1634h-82z" />
<glyph unicode="&#xb7;" d="M471 704.5q0 133.5 106.5 133.5t106.5 -138q0 -68 -24.5 -98.5t-81.5 -30.5q-107 0 -107 133.5z" />
<glyph unicode="&#xb9;" d="M145 1280l453 203h123v-1364h340v-119h-877v119h400v1214l-385 -178z" />
<glyph unicode="&#xba;" d="M289 1197q0 169 72.5 262t216.5 93q291 0 290 -354q0 -170 -75.5 -266t-215 -96t-214 96t-74.5 265zM401 1198q0 -264 177 -264q90 0 134 58.5t44 202.5t-44 201.5t-133.5 57.5t-133.5 -59.5t-44 -196.5z" />
<glyph unicode="&#xbb;" d="M164 90v150l338 288l-338 293v152l459 -393v-95zM565 90v150l338 288l-338 293v152l459 -393v-95z" />
<glyph unicode="&#xbc;" horiz-adv-x="3500" d="M2435 297v109l383 1075h133l-370 -1063h487v489h129v-489h209v-121h-209v-320h-129v320h-633zM1357 0l648 1552h131l-647 -1552h-132zM145 1280l453 203h123v-1364h340v-119h-877v119h400v1214l-385 -178z" />
<glyph unicode="&#xbd;" horiz-adv-x="3500" d="M2487 1321q246 180 424 180t295.5 -113.5t117.5 -331.5t-194 -409l-179 -162q-229 -197 -292 -352h723v-133h-877v115q43 119 130 228.5t179 188.5l176 158q197 182 197 381q0 139 -82 224t-204 85t-349 -157zM1357 0l648 1552h131l-647 -1552h-132zM145 1280l453 203 h123v-1364h340v-119h-877v119h400v1214l-385 -178z" />
<glyph unicode="&#xbe;" horiz-adv-x="3500" d="M2435 297v109l383 1075h133l-370 -1063h487v489h129v-489h209v-121h-209v-320h-129v320h-633zM1357 0l648 1552h131l-647 -1552h-132zM106 70l44 118q236 -90 399.5 -90t256.5 77t93 233.5t-80 230.5t-248 74l-254 -29l-16 104l168 27q188 29 281.5 101.5t93.5 205.5 t-83 195.5t-214 62.5t-365 -102l-45 108q92 45 216 80t204 35q193 0 306.5 -91t113.5 -277q0 -131 -53.5 -205t-173.5 -133v-7q287 -59 286 -378q0 -432 -483 -433q-193 1 -447 93z" />
<glyph unicode="&#xbf;" d="M160 -132.5q0 150.5 42 233.5t164.5 199t154.5 167t32 126t-4 159l121 4q18 -74 18 -173.5t-39 -164t-163 -181t-157.5 -182t-33.5 -170t70.5 -168t176 -63.5t187.5 43t195 133l71 -96q-131 -102 -229 -151.5t-211 -49.5q-170 0 -282.5 92t-112.5 242.5zM500 924v217h198 v-217h-198z" />
<glyph unicode="&#xc0;" d="M39 0l440 1530h223l422 -1530h-137l-96 352h-619l-96 -352h-137zM301 1954l45 108l475 -207l-39 -98zM305 469h557l-252 944h-41z" />
<glyph unicode="&#xc1;" d="M39 0l440 1530h223l422 -1530h-137l-96 352h-619l-96 -352h-137zM305 469h557l-252 944h-41zM383 1853l477 205l43 -106l-481 -197z" />
<glyph unicode="&#xc2;" d="M39 0l440 1530h223l422 -1530h-137l-96 352h-619l-96 -352h-137zM250 1755l295 303h92l295 -303h-135l-207 211l-205 -211h-135zM305 469h557l-252 944h-41z" />
<glyph unicode="&#xc3;" d="M39 0l440 1530h223l422 -1530h-137l-96 352h-619l-96 -352h-137zM221 1911q133 125 217 125t173 -61.5t131 -61.5t143 92l59 -76q-117 -129 -196.5 -129t-167.5 64q-90 61 -141.5 61t-151.5 -94zM305 469h557l-252 944h-41z" />
<glyph unicode="&#xc4;" d="M39 0l440 1530h223l422 -1530h-137l-96 352h-619l-96 -352h-137zM272 1896.5q0 34.5 23.5 60t61.5 25.5t60.5 -25.5t22.5 -60t-22.5 -60.5t-60.5 -26t-61.5 26t-23.5 60.5zM305 469h557l-252 944h-41zM723 1896.5q0 34.5 25 59.5q23 27 60.5 26.5t62 -26t24.5 -60 t-24.5 -60.5t-62.5 -26t-61.5 26t-23.5 60.5z" />
<glyph unicode="&#xc5;" d="M39 0l440 1530h223l422 -1530h-137l-96 352h-619l-96 -352h-137zM305 469h557l-252 944h-41zM338 1910.5q0 104.5 66.5 164t178 59.5t178 -59.5t66.5 -164t-66.5 -163.5t-178 -59t-178 59t-66.5 163.5zM436 1911q0 -63 39 -98t106.5 -35t106.5 34.5t39 98.5 q0 133 -145.5 133t-145.5 -133z" />
<glyph unicode="&#xc6;" d="M37 0l444 1530h635v-113h-383v-583h320v-113h-320v-608h389v-113h-518v352h-334l-98 -352h-135zM303 469h301v950h-24z" />
<glyph unicode="&#xc7;" d="M129 764q0 414 126 601t402 187q182 0 367 -57v-309h-127v209q-102 37 -240 37q-209 0 -300 -157t-91 -507t98.5 -509t292.5 -159q147 0 351 64l30 -121q-190 -66 -383 -66q-266 0 -396 186.5t-130 600.5zM471 -549l12 100q47 -12 111 -12q123 0 123 115q0 111 -123 110 q-43 0 -100 -12l-15 96q74 18 156 18.5t141.5 -55t59.5 -159t-59.5 -160.5t-158.5 -57q-53 0 -147 16z" />
<glyph unicode="&#xc8;" d="M190 0v1530h797v-115h-668v-579h605v-115h-605v-606h676v-115h-805zM322 1954l45 108l477 -207l-41 -98z" />
<glyph unicode="&#xc9;" d="M190 0v1530h797v-115h-668v-579h605v-115h-605v-606h676v-115h-805zM346 1853l475 205l45 -106l-481 -197z" />
<glyph unicode="&#xca;" d="M190 0v1530h797v-115h-668v-579h605v-115h-605v-606h676v-115h-805zM250 1755l295 303h92l295 -303h-135l-207 211l-205 -211h-135z" />
<glyph unicode="&#xcb;" d="M190 0v1530h797v-115h-668v-579h605v-115h-605v-606h676v-115h-805zM272 1896.5q0 34.5 23.5 60t61.5 25.5t60.5 -25.5t22.5 -60t-22.5 -60.5t-60.5 -26t-61.5 26t-23.5 60.5zM723 1896.5q0 34.5 25 59.5q23 27 60.5 26.5t62 -26t24.5 -60t-24.5 -60.5t-62.5 -26 t-61.5 26t-23.5 60.5z" />
<glyph unicode="&#xcc;" d="M260 0v117h262v1296h-262v117h651v-117h-260v-1296h260v-117h-651zM307 1954l45 108l477 -207l-41 -98z" />
<glyph unicode="&#xcd;" d="M260 0v117h262v1296h-262v117h651v-117h-260v-1296h260v-117h-651zM330 1853l475 205l45 -106l-481 -197z" />
<glyph unicode="&#xce;" d="M250 1755l295 303h92l295 -303h-135l-207 211l-205 -211h-135zM260 0v117h262v1296h-262v117h651v-117h-260v-1296h260v-117h-651z" />
<glyph unicode="&#xcf;" d="M260 0v117h262v1296h-262v117h651v-117h-260v-1296h260v-117h-651zM272 1896.5q0 34.5 23.5 60t61.5 25.5t60.5 -25.5t22.5 -60t-22.5 -60.5t-60.5 -26t-61.5 26t-23.5 60.5zM723 1896.5q0 34.5 25 59.5q23 27 60.5 26.5t62 -26t24.5 -60t-24.5 -60.5t-62.5 -26t-61.5 26 t-23.5 60.5z" />
<glyph unicode="&#xd0;" d="M61 707v127h125v696h267q174 0 284.5 -34t187 -121t110.5 -235.5t34 -375.5t-37 -377.5t-119 -234.5t-191.5 -118t-272.5 -34h-263v707h-125zM315 117h134q180 0 279 51t151.5 192.5t52.5 404.5t-51.5 404.5t-149.5 192.5t-278 51h-138v-579h275v-127h-275v-590z" />
<glyph unicode="&#xd1;" d="M119 0v1530h127l667 -1059h7v1059h129v-1530h-129v240l-666 1046h-6v-1286h-129zM221 1911q133 125 217 125t173 -61.5t131 -61.5t143 92l59 -76q-117 -129 -196.5 -129t-167.5 64q-90 61 -141.5 61t-151.5 -94z" />
<glyph unicode="&#xd2;" d="M94 780q0 182 23 316q23 133 73 239q106 217 394 217q328 -2 430 -305q59 -176 59 -412.5t-22.5 -377t-73.5 -252.5q-109 -227 -393 -228q-281 0 -389 228q-101 208 -101 575zM231 813q0 -176 12.5 -284.5t47.5 -213.5q74 -217 293 -217q223 0 295 219q59 186 57 445 q0 125 -6 201.5t-26.5 171t-56.5 155t-102.5 101.5t-161 41t-161 -41t-102 -101.5t-56.5 -154.5q-33 -146 -33 -322zM330 1954l43 108l477 -207l-39 -98z" />
<glyph unicode="&#xd3;" d="M94 780q0 182 23 316q23 133 73 239q106 217 394 217q328 -2 430 -305q59 -176 59 -412.5t-22.5 -377t-73.5 -252.5q-109 -227 -393 -228q-281 0 -389 228q-101 208 -101 575zM231 813q0 -176 12.5 -284.5t47.5 -213.5q74 -217 293 -217q223 0 295 219q59 186 57 445 q0 125 -6 201.5t-26.5 171t-56.5 155t-102.5 101.5t-161 41t-161 -41t-102 -101.5t-56.5 -154.5q-33 -146 -33 -322zM362 1853l476 205l45 -106l-482 -197z" />
<glyph unicode="&#xd4;" d="M94 780q0 182 23 316q23 133 73 239q106 217 394 217q328 -2 430 -305q59 -176 59 -412.5t-22.5 -377t-73.5 -252.5q-109 -227 -393 -228q-281 0 -389 228q-101 208 -101 575zM231 813q0 -176 12.5 -284.5t47.5 -213.5q74 -217 293 -217q223 0 295 219q59 186 57 445 q0 125 -6 201.5t-26.5 171t-56.5 155t-102.5 101.5t-161 41t-161 -41t-102 -101.5t-56.5 -154.5q-33 -146 -33 -322zM250 1755l295 303h92l295 -303h-135l-207 211l-205 -211h-135z" />
<glyph unicode="&#xd5;" d="M94 780q0 182 23 316q23 133 73 239q106 217 394 217q328 -2 430 -305q59 -176 59 -412.5t-22.5 -377t-73.5 -252.5q-109 -227 -393 -228q-281 0 -389 228q-101 208 -101 575zM221 1911q131 125 216 125t174 -61.5t131 -61.5t143 92l59 -76q-121 -129 -198.5 -129 t-164.5 62.5t-140.5 62.5t-153.5 -94zM231 813q0 -176 12.5 -284.5t47.5 -213.5q74 -217 293 -217q223 0 295 219q59 186 57 445q0 125 -6 201.5t-26.5 171t-56.5 155t-102.5 101.5t-161 41t-161 -41t-102 -101.5t-56.5 -154.5q-33 -146 -33 -322z" />
<glyph unicode="&#xd6;" d="M94 780q0 182 23 316q23 133 73 239q106 217 394 217q328 -2 430 -305q59 -176 59 -412.5t-22.5 -377t-73.5 -252.5q-109 -227 -393 -228q-281 0 -389 228q-101 208 -101 575zM231 813q0 -176 12.5 -284.5t47.5 -213.5q74 -217 293 -217q223 0 295 219q59 186 57 445 q0 125 -6 201.5t-26.5 171t-56.5 155t-102.5 101.5t-161 41t-161 -41t-102 -101.5t-56.5 -154.5q-33 -146 -33 -322zM272 1896.5q0 34.5 23.5 60t61.5 25.5t60.5 -25.5t22.5 -60t-22.5 -60.5t-60.5 -26t-61.5 26t-23.5 60.5zM723 1896.5q0 34.5 24.5 60t61.5 25.5 t61.5 -25.5t24.5 -60t-24.5 -60.5t-61.5 -26t-61.5 26t-24.5 60.5z" />
<glyph unicode="&#xd7;" d="M135 330l365 364l-365 361l80 78l363 -363l360 363l80 -78l-365 -361l365 -364l-80 -78l-360 362l-363 -362z" />
<glyph unicode="&#xd8;" d="M94 784q0 573 246 715q98 55 244 53q197 0 315 -114l66 116l86 -51l-86 -149q109 -184 108 -570q0 -600 -250 -749q-96 -57 -239 -58q-207 0 -324 129l-72 -124l-84 51l95 166q-105 194 -105 585zM231 743.5q0 -245.5 50 -397.5l548 969q-90 117 -245 117q-94 0 -161 -41 t-102.5 -101.5t-56.5 -154.5q-33 -146 -33 -391.5zM332 233q82 -135 252 -135q223 0 295 219q59 186 58 467t-54 426z" />
<glyph unicode="&#xd9;" d="M127 440v1090h127v-1073q0 -358 330 -359q166 0 247.5 99.5t81.5 259.5v1073h127v-1090q0 -225 -117.5 -344t-344 -119t-339 123t-112.5 340zM303 1954l45 108l475 -207l-39 -98z" />
<glyph unicode="&#xda;" d="M127 440v1090h127v-1073q0 -358 330 -359q166 0 247.5 99.5t81.5 259.5v1073h127v-1090q0 -225 -117.5 -344t-344 -119t-339 123t-112.5 340zM371 1853l477 205l43 -106l-479 -197z" />
<glyph unicode="&#xdb;" d="M127 440v1090h127v-1073q0 -358 330 -359q166 0 247.5 99.5t81.5 259.5v1073h127v-1090q0 -225 -117.5 -344t-344 -119t-339 123t-112.5 340zM250 1755l295 303h92l295 -303h-135l-207 211l-205 -211h-135z" />
<glyph unicode="&#xdc;" d="M127 440v1090h127v-1073q0 -358 330 -359q166 0 247.5 99.5t81.5 259.5v1073h127v-1090q0 -225 -117.5 -344t-344 -119t-339 123t-112.5 340zM272 1896.5q0 34.5 23.5 60t61.5 25.5t60.5 -25.5t22.5 -60t-22.5 -60.5t-60.5 -26t-61.5 26t-23.5 60.5zM723 1896.5 q0 34.5 25 59.5q23 27 60.5 26.5t62 -26t24.5 -60t-24.5 -60.5t-62.5 -26t-61.5 26t-23.5 60.5z" />
<glyph unicode="&#xdd;" d="M68 1530h153l359 -735h4l356 735h156l-451 -868v-662h-127v662zM369 1780l422 233l55 -115l-428 -210z" />
<glyph unicode="&#xde;" d="M152 0v1530h129v-268h254q123 0 220 -54.5t146 -139.5t69.5 -189.5t-3 -207t-75.5 -187.5t-147.5 -139t-214.5 -54h-249v-291h-129zM281 410h249q84 0 152 39.5t102.5 104t51 142.5t1 158t-50 144.5t-101.5 105.5t-150 41h-254v-735z" />
<glyph unicode="&#xdf;" d="M162 0v1096q0 215 104.5 335.5t302 120.5t295 -99t97.5 -241v-196q-143 -14 -230.5 -32.5t-118 -56.5t-30.5 -106.5t43 -109.5t193.5 -90.5t206.5 -112t56 -193.5q0 -336 -342 -335q-113 0 -295 59l33 123q174 -63 273 -64q205 0 204 213q0 82 -37.5 121t-184 85 t-212 113.5t-65.5 184.5q0 246 266 281l115 14v74q0 252 -275 252q-137 0 -206.5 -89.5t-69.5 -259.5v-1087h-123z" />
<glyph unicode="&#xe0;" d="M139 315.5q0 161.5 109 249.5q106 90 284.5 90t313.5 -12q0 207 -51.5 282.5t-208 75.5t-369.5 -73l-35 116q217 78 391 78q231 0 313.5 -102t82.5 -358v-492l18 -176l-119 -12l-22 139q-55 -47 -152.5 -94t-187.5 -47q-170 0 -268.5 87t-98.5 248.5zM270 328 q0 -227 240 -228q86 0 187.5 55.5t148.5 100.5v279q-156 12 -295 12t-210 -59.5t-71 -159.5zM346 1561l53 112l422 -233l-49 -90z" />
<glyph unicode="&#xe1;" d="M139 315.5q0 161.5 109 249.5q106 90 284.5 90t313.5 -12q0 207 -51.5 282.5t-208 75.5t-369.5 -73l-35 116q217 78 391 78q231 0 313.5 -102t82.5 -358v-492l18 -176l-119 -12l-22 139q-55 -47 -152.5 -94t-187.5 -47q-170 0 -268.5 87t-98.5 248.5zM270 328 q0 -227 240 -228q86 0 187.5 55.5t148.5 100.5v279q-156 12 -295 12t-210 -59.5t-71 -159.5zM315 1440l422 233l54 -112l-426 -211z" />
<glyph unicode="&#xe2;" d="M139 315.5q0 161.5 109 249.5q106 90 284.5 90t313.5 -12q0 207 -51.5 282.5t-208 75.5t-369.5 -73l-35 116q217 78 391 78q231 0 313.5 -102t82.5 -358v-492l18 -176l-119 -12l-22 139q-55 -47 -152.5 -94t-187.5 -47q-170 0 -268.5 87t-98.5 248.5zM231 1372l299 379 h107l299 -379h-135l-217 285l-217 -285h-136zM270 328q0 -227 240 -228q86 0 187.5 55.5t148.5 100.5v279q-156 12 -295 12t-210 -59.5t-71 -159.5z" />
<glyph unicode="&#xe3;" d="M139 315.5q0 161.5 109 249.5q106 90 284.5 90t313.5 -12q0 207 -51.5 282.5t-208 75.5t-369.5 -73l-35 116q217 78 391 78q231 0 313.5 -102t82.5 -358v-492l18 -176l-119 -12l-22 139q-55 -47 -152.5 -94t-187.5 -47q-170 0 -268.5 87t-98.5 248.5zM195 1524 q133 127 217 127t172 -61.5t130 -61.5t142 92l59 -76q-117 -129 -196.5 -129t-167.5 64q-88 61 -139.5 61t-151.5 -94zM270 328q0 -227 240 -228q86 0 187.5 55.5t148.5 100.5v279q-156 12 -295 12t-210 -59.5t-71 -159.5z" />
<glyph unicode="&#xe4;" d="M139 315.5q0 161.5 109 249.5q106 90 284.5 90t313.5 -12q0 207 -51.5 282.5t-208 75.5t-369.5 -73l-35 116q217 78 391 78q231 0 313.5 -102t82.5 -358v-492l18 -176l-119 -12l-22 139q-55 -47 -152.5 -94t-187.5 -47q-170 0 -268.5 87t-98.5 248.5zM270 328 q0 -227 240 -228q86 0 187.5 55.5t148.5 100.5v279q-156 12 -295 12t-210 -59.5t-71 -159.5zM272 1510.5q0 35.5 23.5 61t61.5 25.5t60.5 -25.5t22.5 -61t-22.5 -61.5t-60.5 -26t-61.5 26t-23.5 61.5zM723 1510.5q0 35.5 25 60.5q23 27 60.5 26.5t62 -26t24.5 -61 t-24.5 -61.5t-62.5 -26t-61.5 26t-23.5 61.5z" />
<glyph unicode="&#xe5;" d="M139 315.5q0 161.5 106.5 250.5t286 89t314.5 -12q0 207 -51.5 282.5t-208 75.5t-369.5 -73l-35 116q217 78 391 78q231 0 313.5 -102t82.5 -358v-492l18 -176l-119 -12l-22 139q-55 -47 -152.5 -94t-187.5 -47q-170 0 -268.5 87t-98.5 248.5zM270 328q0 -227 240 -228 q86 0 187.5 55.5t148.5 100.5v279q-152 12 -293 12t-212 -59.5t-71 -159.5zM338 1467.5q0 103.5 66.5 163t178 59.5t178 -59.5t66.5 -163t-66.5 -163t-178 -59.5t-178 59.5t-66.5 163zM436 1466q0 -63 39 -98t106.5 -35t106.5 35t39 98q0 133 -145.5 133t-145.5 -133z" />
<glyph unicode="&#xe6;" d="M45 306.5q0 150.5 85 236.5t235 86h151q0 236 -13.5 267.5t-25.5 53.5q-25 37 -116 37t-240 -72l-41 113q168 82 280.5 82t166 -31.5t77.5 -109.5q63 152 225 151.5t233 -118t71 -373.5l-9 -123h-485q25 -309 117 -379q43 -33 92 -31q76 2 199 39l40 12l35 -112 q-152 -57 -253 -57.5t-163.5 37.5t-109.5 124q-90 -162 -281 -162q-125 0 -197.5 89.5t-72.5 240zM176 313q0 -217 152 -217q92 2 157 76q14 18 31 43v295h-151q-88 0 -138.5 -52.5t-50.5 -144.5zM639 623h360q0 193 -35.5 284.5t-136 91.5t-141.5 -88.5t-47 -287.5z" />
<glyph unicode="&#xe7;" d="M188 558q0 273 120 418.5t349 145.5q156 0 308 -49v-325h-127v231q-115 25 -183 25q-168 0 -250.5 -119t-82.5 -329t83.5 -333t249.5 -123q106 0 293 66l35 -117q-184 -70 -326 -69q-227 0 -348 152.5t-121 425.5zM483 -549l13 100q45 -12 108 -12q125 0 125 115 q0 111 -125 110q-41 0 -100 -12l-15 96q76 18 158 18.5t141.5 -55t59.5 -159t-59.5 -160.5t-157.5 -57q-54 0 -148 16z" />
<glyph unicode="&#xe8;" d="M156 553q0 268 111.5 418.5t323.5 150.5t316.5 -139t104.5 -373l-8 -116h-715q12 -176 94 -285t225.5 -109t337.5 68l35 -117q-190 -72 -354 -71q-229 0 -350 152.5t-121 420.5zM289 610h590q0 393 -279 394q-295 -1 -311 -394zM346 1561l53 112l422 -233l-49 -90z" />
<glyph unicode="&#xe9;" d="M156 553q0 268 111.5 418.5t323.5 150.5t316.5 -139t104.5 -373l-8 -116h-715q12 -176 94 -285t225.5 -109t337.5 68l35 -117q-190 -72 -354 -71q-229 0 -350 152.5t-121 420.5zM289 610h590q0 393 -279 394q-295 -1 -311 -394zM334 1440l422 233l55 -112l-428 -211z" />
<glyph unicode="&#xea;" d="M156 553q0 268 111.5 418.5t323.5 150.5t316.5 -139t104.5 -373l-8 -116h-715q12 -176 94 -285t225.5 -109t337.5 68l35 -117q-190 -72 -354 -71q-229 0 -350 152.5t-121 420.5zM231 1372l299 379h107l299 -379h-135l-217 285l-217 -285h-136zM289 610h590 q0 393 -279 394q-295 -1 -311 -394z" />
<glyph unicode="&#xeb;" d="M156 553q0 268 111.5 418.5t323.5 150.5t316.5 -139t104.5 -373l-8 -116h-715q12 -176 94 -285t225.5 -109t337.5 68l35 -117q-190 -72 -354 -71q-229 0 -350 152.5t-121 420.5zM272 1510.5q0 35.5 23.5 61t61.5 25.5t60.5 -25.5t22.5 -61t-22.5 -61.5t-60.5 -26 t-61.5 26t-23.5 61.5zM289 610h590q0 393 -279 394q-295 -1 -311 -394zM723 1510.5q0 35.5 24.5 61t61.5 25.5t61.5 -25.5t24.5 -61t-24.5 -61.5t-61.5 -26t-61.5 26t-24.5 61.5z" />
<glyph unicode="&#xec;" d="M268 0v117h289v874h-270v119h395v-993h270v-117h-684zM360 1440l422 233l54 -112l-426 -211z" />
<glyph unicode="&#xed;" d="M268 0v117h289v874h-270v119h395v-993h270v-117h-684zM346 1440l422 233l53 -112l-426 -211z" />
<glyph unicode="&#xee;" d="M231 1372l299 379h107l299 -379h-135l-217 285l-217 -285h-136zM268 0v117h289v874h-270v119h395v-993h270v-117h-684z" />
<glyph unicode="&#xef;" d="M268 0v117h289v874h-270v119h395v-993h270v-117h-684zM297 1510.5q0 35.5 23.5 61t60.5 25.5t60.5 -25.5t23.5 -61t-23.5 -61.5t-60.5 -26t-60.5 26t-23.5 61.5zM723 1510.5q0 35.5 25 60.5q23 27 60.5 26.5t62 -26t24.5 -61t-24.5 -61.5t-62.5 -26t-61.5 26t-23.5 61.5z " />
<glyph unicode="&#xf0;" d="M137 551q0 571 447 571q156 0 268 -75q-61 184 -229 327l-234 -162l-57 84l205 144q-66 47 -209 127l53 102q135 -66 258 -158l215 152l59 -84l-192 -135q166 -150 237.5 -347.5t71.5 -465.5q8 -336 -101.5 -493.5t-344.5 -157.5q-447 0 -447 571zM270 550.5 q0 -450.5 314 -450.5q164 0 237.5 111t77.5 344t-66.5 339.5t-248.5 106.5q-314 0 -314 -450.5z" />
<glyph unicode="&#xf1;" d="M182 0v1110h119l4 -94q227 106 376.5 106t234.5 -102t85 -281v-739h-122v739q0 115 -58 191q-55 72 -167.5 71.5t-348.5 -102.5v-899h-123zM223 1524q131 127 215 127t173 -61.5t133 -61.5t143 92l59 -76q-119 -129 -198.5 -129t-165.5 62.5t-137.5 62.5t-155.5 -94z" />
<glyph unicode="&#xf2;" d="M137 551q0 571 446.5 571t446.5 -571t-446.5 -571t-446.5 571zM270 550.5q0 -450.5 313.5 -450.5t313.5 450.5t-313.5 450.5t-313.5 -450.5zM346 1561l53 112l422 -233l-49 -90z" />
<glyph unicode="&#xf3;" d="M137 551q0 571 446.5 571t446.5 -571t-446.5 -571t-446.5 571zM270 550.5q0 -450.5 313.5 -450.5t313.5 450.5t-313.5 450.5t-313.5 -450.5zM352 1440l422 233l55 -112l-428 -211z" />
<glyph unicode="&#xf4;" d="M137 551q0 571 446.5 571t446.5 -571t-446.5 -571t-446.5 571zM231 1372l299 379h107l299 -379h-135l-217 285l-217 -285h-136zM270 550.5q0 -450.5 313.5 -450.5t313.5 450.5t-313.5 450.5t-313.5 -450.5z" />
<glyph unicode="&#xf5;" d="M137 551q0 571 446.5 571t446.5 -571t-446.5 -571t-446.5 571zM227 1524q133 127 217 127t172.5 -61.5t130 -61.5t142.5 92l59 -76q-117 -129 -196.5 -129t-167.5 64q-88 61 -139.5 61t-153.5 -94zM270 550.5q0 -450.5 313.5 -450.5t313.5 450.5t-313.5 450.5 t-313.5 -450.5z" />
<glyph unicode="&#xf6;" d="M137 551q0 571 446.5 571t446.5 -571t-446.5 -571t-446.5 571zM270 550.5q0 -450.5 313.5 -450.5t313.5 450.5t-313.5 450.5t-313.5 -450.5zM272 1510.5q0 35.5 23.5 61t61.5 25.5t60.5 -25.5t22.5 -61t-22.5 -61.5t-60.5 -26t-61.5 26t-23.5 61.5zM723 1510.5 q0 35.5 25 60.5q23 27 60.5 26.5t62 -26t24.5 -61t-24.5 -61.5t-62.5 -26t-61.5 26t-23.5 61.5z" />
<glyph unicode="&#xf7;" d="M82 610v107h1003v-107h-1003zM481 319.5q0 104.5 95.5 104.5t95.5 -104.5t-95.5 -104.5t-95.5 104.5zM481 992.5q0 105.5 95.5 105.5t95.5 -105.5t-95.5 -105.5t-95.5 105.5z" />
<glyph unicode="&#xf8;" d="M137 551q0 571 447 571q135 0 229 -53l76 133l100 -61l-84 -150q125 -139 125 -440q0 -571 -446 -571q-131 0 -228 51l-73 -131l-99 61l82 141q-129 144 -129 449zM270 551q0 -215 66 -322l414 727q-70 45 -166 45q-314 1 -314 -450zM420 143q63 -43 164 -43 q313 0 313 451q0 207 -63 317z" />
<glyph unicode="&#xf9;" d="M172 362v748h125v-748q0 -115 54.5 -188.5t167 -73.5t349.5 117v893h123v-1110h-119l-4 96q-223 -117 -372.5 -116.5t-236.5 102.5t-87 280zM346 1561l53 112l422 -233l-49 -90z" />
<glyph unicode="&#xfa;" d="M172 362v748h125v-748q0 -115 54.5 -188.5t167 -73.5t349.5 117v893h123v-1110h-119l-4 96q-223 -117 -372.5 -116.5t-236.5 102.5t-87 280zM367 1440l421 233l56 -112l-428 -211z" />
<glyph unicode="&#xfb;" d="M172 362v748h125v-748q0 -115 54.5 -188.5t167 -73.5t349.5 117v893h123v-1110h-119l-4 96q-223 -117 -372.5 -116.5t-236.5 102.5t-87 280zM231 1372l299 379h107l299 -379h-135l-217 285l-217 -285h-136z" />
<glyph unicode="&#xfc;" d="M172 362v748h125v-748q0 -115 54.5 -188.5t167 -73.5t349.5 117v893h123v-1110h-119l-4 96q-223 -117 -372.5 -116.5t-236.5 102.5t-87 280zM272 1510.5q0 35.5 23.5 61t61.5 25.5t60.5 -25.5t22.5 -61t-22.5 -61.5t-60.5 -26t-61.5 26t-23.5 61.5zM723 1510.5 q0 35.5 25 60.5q23 27 60.5 26.5t62 -26t24.5 -61t-24.5 -61.5t-62.5 -26t-61.5 26t-23.5 61.5z" />
<glyph unicode="&#xfd;" d="M123 1110h141l330 -944h18l293 944h142l-431 -1298q-61 -184 -127.5 -236.5t-269.5 -56.5v119q131 2 175 37.5t83 146.5l53 162zM346 1440l422 233l53 -112l-426 -211z" />
<glyph unicode="&#xfe;" d="M180 -449v1979h117v-531q170 123 324 123q209 0 321.5 -151.5t112.5 -418.5t-125 -419.5t-348 -152.5q-131 0 -279 63v-492h-123zM303 168q49 -23 134 -46.5t141 -23.5q166 0 259 124t93 329t-82 329t-229.5 124t-315.5 -136v-700z" />
<glyph unicode="&#xff;" d="M123 1110h141l330 -944h18l293 944h142l-431 -1298q-61 -184 -127.5 -236.5t-269.5 -56.5v119q131 2 175 37.5t83 146.5l53 162zM272 1510.5q0 35.5 23.5 61t61.5 25.5t60.5 -25.5t22.5 -61t-22.5 -61.5t-60.5 -26t-61.5 26t-23.5 61.5zM723 1510.5q0 35.5 25 60.5 q23 27 60.5 26.5t62 -26t24.5 -61t-24.5 -61.5t-62.5 -26t-61.5 26t-23.5 61.5z" />
<glyph unicode="&#x152;" d="M88 784q0 549 266 691q102 55 248 55h514v-113h-360v-583h297v-113h-297v-608h366v-113h-520q-514 0 -514 784zM227 780q0 -141 16.5 -252.5t55.5 -210.5q82 -203 303 -202h27v1298q-18 2 -27 2q-229 0 -307 -196q-66 -165 -68 -439z" />
<glyph unicode="&#x153;" d="M39 551q0 295 64.5 433t251 138t235.5 -223q6 49 33 107q57 117 211.5 116.5t226.5 -125.5t72 -374l-9 -117h-479q23 -406 234 -406q74 2 176 39l32 13l35 -117q-139 -55 -235 -55t-157.5 34.5t-90.5 87.5q-41 84 -45 138q0 -53 -29 -123q-55 -139 -226 -139.5 t-235.5 139t-64.5 434.5zM172 552q0 -120 5 -192.5t22.5 -138t53.5 -94.5t92 -29t93 29q33 29 51 94q29 100 29 275.5t-4 248t-22.5 137t-53.5 92t-93 27.5t-93 -27.5t-52.5 -92t-22.5 -137t-5 -192.5zM645 623h354q0 195 -35.5 286.5t-134.5 91.5q-72 0 -96 -24l-37 -43 q-14 -14 -22 -49t-14.5 -53.5t-8.5 -66.5t-3 -66.5t-3 -75.5z" />
<glyph unicode="&#x178;" d="M68 1530h161l355 -735h4l360 735h148l-447 -868v-662h-129v662zM272 1896.5q0 34.5 23.5 60t61.5 25.5t60.5 -25.5t22.5 -60t-22.5 -60.5t-60.5 -26t-61.5 26t-23.5 60.5zM723 1896.5q0 34.5 25 59.5q23 27 60.5 26.5t62 -26t24.5 -60t-24.5 -60.5t-62.5 -26t-61.5 26 t-23.5 60.5z" />
<glyph unicode="&#x2dc;" d="M-523 250q170 182 293 182q94 0 248 -92q154 -90 219.5 -90t202.5 141l82 -69q-86 -94 -150.5 -138.5t-138.5 -44.5t-163 46.5t-165.5 91.5t-134.5 45q-74 2 -209 -146z" />
<glyph unicode="&#x2013;" d="M164 610v103h837v-103h-837z" />
<glyph unicode="&#x2014;" d="M0 610v103h1167v-103h-1167z" />
<glyph unicode="&#x2018;" d="M438 1100l189 469l96 -25l-135 -483z" />
<glyph unicode="&#x2019;" d="M440 1102l138 483l149 -39l-188 -469z" />
<glyph unicode="&#x201c;" d="M244 1130l186 469l98 -26l-135 -483zM578 1087l186 469l98 -24l-135 -483z" />
<glyph unicode="&#x201d;" d="M272 1110l138 481l147 -39l-186 -469zM606 1067l137 483l148 -39l-186 -471z" />
<glyph unicode="&#x2022;" d="M514 623v149h135v-149h-135z" />
<glyph unicode="&#x2026;" d="M121 0v188h162v-188h-162zM479 0v188h160v-188h-160zM838 0v188h161v-188h-161z" />
<glyph unicode="&#x2039;" d="M332 485v95l459 393v-152l-338 -293l338 -288v-150z" />
<glyph unicode="&#x203a;" d="M332 90v150l338 288l-338 293v152l459 -393v-95z" />
<glyph unicode="&#x2044;" d="M190 0l648 1552h131l-647 -1552h-132z" />
<glyph unicode="&#x20ac;" d="M35 563v103h102v77q0 63 2 97h-104v104h112q29 287 154 422q123 135 343 135t390 -57l-35 -121q-182 57 -346 57t-255 -105.5t-113 -330.5h565v-104h-571q-2 -33 -3 -97v-77h574v-103h-567q25 -246 122 -354.5t253.5 -108.5t359.5 64l31 -119q-195 -66 -405 -65.5 t-341 135.5t-158 448h-110z" />
<glyph unicode="&#x2122;" d="M33 1286v92h420v-92h-156v-602h-100v602h-164zM547 684v694h82l182 -438h4l193 438h82v-694h-89l3 457h-9l-155 -326h-56l-141 326h-10l2 -457h-88z" />
<glyph unicode="&#xe000;" horiz-adv-x="1110" d="M0 1110h1110v-1110h-1110v1110z" />
<glyph unicode="&#xfb01;" d="M14 991v119h222q0 227 99 344t286 117q150 0 284 -35l45 -12l-22 -113q-174 45 -308.5 45t-197 -85t-62.5 -261h627v-1110h-123v991h-504v-991h-124v991h-222z" />
<glyph unicode="&#xfb02;" d="M2 991v119h221q0 227 99.5 344t287.5 117q152 -2 340 -25l64 -8v-1538h-125v1438q-166 18 -291 18q-252 0 -250 -346h375v-119h-375v-991h-125v991h-221z" />
<glyph unicode="&#xfb03;" horiz-adv-x="2334" d="M268 991v119h269q0 221 124.5 341t319.5 120q115 0 322 -53q88 53 192 53q176 0 369 -35l61 -12l-22 -113q-242 45 -377 45t-197.5 -85t-62.5 -261h698v-1110h-125v991h-573v-991h-125v991h-479v-991h-125v991h-269zM662 1110h479q0 195 65 309q-143 37 -221 37 q-147 0 -235 -89t-88 -257z" />
<glyph unicode="&#xfb04;" horiz-adv-x="2334" d="M268 991v119h246q0 221 122 341t316 120q137 0 346 -55q88 55 189 55q178 -2 401 -25l76 -8v-1538h-125v1438q-209 18 -336 18q-252 0 -252 -346h400v-119h-400v-991h-123v991h-491v-991h-123v991h-246zM637 1110h491q0 197 74 311q-170 35 -246 35q-145 0 -232 -89 t-87 -257z" />
</font>
</defs>
</svg>
